<svg width="149" height="44" viewBox="0 0 149 44" fill="none" xmlns="http://www.w3.org/2000/svg">
<path d="M44.3353 18.3802L31.5761 17.5622V15.4577L42.935 14.3949C39.3331 6.68924 31.296 1.472 22.1044 2.04259C11.2052 2.71973 2.42223 11.7392 2.01536 22.65C1.76349 29.3968 4.62744 35.4831 9.28181 39.5847C12.4672 42.3918 17.5161 40.3261 17.9802 36.1056L19.5787 21.5502H27.3718L28.9711 36.11C29.4334 40.3173 34.4656 42.4007 37.6457 39.6058C42.1239 35.6706 44.95 29.9013 44.95 23.4724C44.95 21.7175 44.7325 20.0137 44.3353 18.3802ZM19.5778 13.1595L23.4748 11.121L27.3709 13.1595V14.0163H19.5778V13.1595ZM28.9446 20.2893H18.0031V18.854H19.5769V15.4489H27.37V18.854H28.9438V20.2893H28.9446Z" fill="#75C3EC"/>
<path d="M56.08 13.1295L42.9148 14.3614C43.5128 15.6373 43.9945 16.9784 44.3336 18.3767L56.08 19.1296V13.1295Z" fill="#ED5E34"/>
<path d="M73.8758 21.9226C73.808 21.8857 73.7384 21.8496 73.6688 21.8143C73.9991 21.544 74.2782 21.22 74.5028 20.8457C74.885 20.2073 75.0797 19.4518 75.0797 18.5995C75.0797 17.6485 74.8357 16.7873 74.3557 16.0388C73.8793 15.3 73.2179 14.7127 72.3901 14.2936C71.5737 13.8815 70.6604 13.6728 69.6758 13.6728H64.5591C63.5058 13.6728 62.6762 13.9396 62.1003 14.4574C61.3816 15.079 61.0188 15.9596 61.0188 17.0761V17.7638L63.8396 17.8008V30.7977L65.874 31.0275C66.6252 31.105 67.4222 31.1446 68.2439 31.1446H68.9933C70.9625 31.1446 72.5785 30.7254 73.7974 29.8986C75.1026 29.0145 75.7631 27.684 75.7631 25.945C75.7631 24.9632 75.5984 24.1266 75.2716 23.4565C74.9264 22.7486 74.4544 22.2317 73.8758 21.9226ZM71.3157 19.9132C70.9114 20.2593 70.3672 20.4275 69.645 20.4275L67.0981 20.4574V16.7943H69.9717C70.5653 16.7943 71.018 16.9511 71.357 17.2742C71.6864 17.5868 71.8458 18.0201 71.8458 18.6003C71.8458 19.1806 71.6759 19.5971 71.3165 19.9141L71.3157 19.9132ZM69.8123 23.5261C70.634 23.5261 71.291 23.7436 71.8176 24.19C72.3117 24.6092 72.5512 25.1754 72.5512 25.9221C72.5512 26.8968 72.1241 27.2693 71.8044 27.4657H71.8027C70.9105 28.0107 69.4284 28.0953 67.0981 27.9544V23.5261H69.8123Z" fill="#ED5E34"/>
<path d="M95.7324 13.9229H92.4739V30.9394H95.7324V13.9229Z" fill="#ED5E34"/>
<path d="M87.5597 21.0764C86.6332 20.63 85.6143 20.4046 84.5284 20.4046H82.4491V13.9907H79.1915V30.795L81.1959 31.0257C81.8899 31.1041 82.8956 31.1437 84.1867 31.1437C85.3932 31.1437 86.3347 31.0284 87.0586 30.7924C88.2044 30.4278 89.1062 29.7842 89.7385 28.879C90.3647 27.9826 90.6826 26.9717 90.6826 25.8763C90.6826 24.7809 90.3928 23.8281 89.8213 22.9925C89.2594 22.1736 88.4985 21.529 87.5588 21.0764H87.5597ZM87.425 25.8772C87.425 26.5842 87.203 27.0791 86.7266 27.4331C86.2017 27.824 85.4232 28.0231 84.4139 28.0231C84.015 28.0231 83.535 28.0081 82.9758 27.979L82.4491 27.9482V23.5261H84.7107C85.6116 23.5261 86.2986 23.748 86.7512 24.1856C87.2039 24.6206 87.425 25.1736 87.425 25.8772Z" fill="#ED5E34"/>
<path d="M109.407 21.2191C109.677 20.9523 109.909 20.6406 110.101 20.2857C110.484 19.5865 110.677 18.8284 110.677 18.0306C110.677 16.6614 110.116 15.5677 109.008 14.7796C107.974 14.0461 106.579 13.6728 104.862 13.6728C103.876 13.6728 102.935 13.8058 102.068 14.0664C101.193 14.3306 100.404 14.718 99.7209 15.2164L99.2788 15.5396L100.498 18.4823L101.219 17.9214C101.566 17.652 102.093 17.394 102.781 17.1545C104.264 16.642 105.93 16.6755 106.824 17.2874C107.236 17.5683 107.42 17.8818 107.42 18.3036C107.42 18.7254 107.266 19.0617 106.937 19.3964C106.612 19.7266 106.131 19.893 105.474 19.9044L101.438 19.9326V23.0902L105.491 23.1175C106.348 23.1299 107.007 23.3623 107.503 23.8272C107.983 24.2772 108.217 24.8364 108.217 25.5364C108.217 26.2734 107.945 26.8722 107.383 27.367C106.804 27.8778 105.925 28.1367 104.773 28.1367C103.945 28.1367 103.138 28.0037 102.374 27.7413C101.634 27.4886 101.058 27.1672 100.663 26.7859L99.9887 26.1334L98.5127 29.004L98.9301 29.3624C99.6364 29.9673 100.534 30.441 101.599 30.7721H101.601C102.643 31.0953 103.718 31.2582 104.797 31.2582C106.075 31.2582 107.229 31.0266 108.226 30.5687C109.252 30.0985 110.057 29.4302 110.62 28.5804C111.187 27.7245 111.476 26.7454 111.476 25.6711C111.476 24.5969 111.189 23.5481 110.625 22.6147C110.279 22.045 109.873 21.5783 109.411 21.2173L109.407 21.2191Z" fill="#ED5E34"/>
<path d="M126.416 14.7154C123.858 13.1885 120.491 13.1744 117.892 14.7136C116.602 15.477 115.57 16.5267 114.823 17.8325C114.074 19.1401 113.695 20.5913 113.695 22.1472V22.8067C113.695 24.4225 114.066 25.8965 114.798 27.1874C115.532 28.4818 116.559 29.5173 117.851 30.2667C119.142 31.0143 120.615 31.4008 122.233 31.4184C122.264 31.4184 122.295 31.4184 122.327 31.4184C123.853 31.4184 125.258 31.0495 126.502 30.3213C127.775 29.5781 128.791 28.5329 129.523 27.2165C130.254 25.9045 130.624 24.4207 130.624 22.8067V22.1472C130.624 20.5913 130.24 19.1384 129.483 17.8299C128.729 16.5249 127.697 15.4779 126.417 14.7154H126.416ZM122.124 16.6807C123.093 16.6807 123.953 16.9185 124.751 17.4081C125.547 17.8968 126.187 18.5686 126.656 19.406C127.126 20.2443 127.364 21.1671 127.364 22.1481V22.8076C127.364 23.8528 127.132 24.8029 126.677 25.6341C126.217 26.4724 125.608 27.1126 124.812 27.5889C123.239 28.5373 121.1 28.5346 119.511 27.5889C118.722 27.1178 118.093 26.4601 117.639 25.635C117.183 24.8038 116.952 23.8528 116.952 22.8085V22.1489C116.952 21.1663 117.187 20.2425 117.651 19.4034C118.113 18.566 118.746 17.895 119.533 17.4081C120.312 16.9264 121.184 16.6825 122.124 16.6825V16.6807Z" fill="#ED5E34"/>
<path d="M146.509 23.4557C146.163 22.7477 145.691 22.2308 145.113 21.9218C145.045 21.8848 144.975 21.8487 144.906 21.8135C145.236 21.5431 145.515 21.2191 145.74 20.8449C146.122 20.2065 146.317 19.4509 146.317 18.5986C146.317 17.6476 146.073 16.7864 145.593 16.0379C145.116 15.2992 144.455 14.7118 143.627 14.2927C142.811 13.8806 141.897 13.6719 140.913 13.6719H135.796C134.743 13.6719 133.913 13.9387 133.337 14.4565C132.619 15.0782 132.256 15.9587 132.256 17.0752V17.7629L135.077 17.7999V30.7968L137.111 31.0266C137.862 31.1041 138.659 31.1437 139.481 31.1437H140.23C142.199 31.1437 143.815 30.7246 145.034 29.8977C146.339 29.0137 147 27.6832 147 25.9441C147 24.9623 146.835 24.1258 146.509 23.4557ZM142.553 19.9132C142.148 20.2593 141.604 20.4275 140.882 20.4275L138.335 20.4574V16.7943H141.209C141.802 16.7943 142.255 16.9511 142.594 17.2742C142.923 17.5868 143.083 18.0201 143.083 18.6003C143.083 19.1806 142.913 19.5971 142.553 19.9141L142.553 19.9132ZM141.049 23.5261C141.871 23.5261 142.528 23.7436 143.055 24.19C143.549 24.6092 143.788 25.1754 143.788 25.9221C143.788 26.8968 143.361 27.2693 143.041 27.4657H143.04C142.147 28.0107 140.665 28.0953 138.335 27.9544V23.5261H141.049Z" fill="#ED5E34"/>
<path d="M67.2672 37.496V40.8139H66.11V38.4206H64.9968V40.8139H63.8396V37.496H67.2672Z" fill="#ED5E34"/>
<path d="M71.3923 37.6483C71.6618 37.7866 71.8696 37.9865 72.014 38.2453C72.1585 38.5042 72.2324 38.8071 72.2324 39.1541C72.2324 39.501 72.1637 39.7978 72.0299 40.0566C71.896 40.3155 71.7049 40.5163 71.461 40.6563C71.2161 40.7972 70.9317 40.8676 70.6093 40.8676C70.2298 40.8676 69.9321 40.7514 69.7155 40.5189V42H68.553V39.1664C68.553 38.8239 68.6305 38.5219 68.7855 38.2603C68.9405 37.9997 69.1606 37.7972 69.446 37.6545C69.7322 37.511 70.0651 37.4405 70.4447 37.4405C70.8242 37.4405 71.1245 37.5092 71.3932 37.6483H71.3923ZM70.8947 39.7264C71.0224 39.582 71.0867 39.3909 71.0867 39.1541C71.0867 38.9172 71.0224 38.7261 70.8947 38.5817C70.7661 38.4364 70.597 38.3642 70.3892 38.3642C70.1813 38.3642 70.014 38.4364 69.8872 38.5817C69.7604 38.7261 69.6979 38.9172 69.6979 39.1541C69.6979 39.3909 69.7595 39.5864 69.8846 39.7291C70.0087 39.8726 70.1778 39.943 70.3892 39.943C70.6005 39.943 70.7661 39.8708 70.8947 39.7255V39.7264Z" fill="#ED5E34"/>
<path d="M76.8243 37.496V40.8139H75.7164V40.4652C75.594 40.5964 75.4478 40.6959 75.2778 40.7655C75.1087 40.835 74.9282 40.8694 74.7362 40.8694C74.3038 40.8694 73.9612 40.7426 73.7058 40.4899C73.4504 40.2371 73.3227 39.8567 73.3227 39.3513V37.496H74.4861V39.1611C74.4861 39.6384 74.6719 39.877 75.0435 39.877C75.2267 39.877 75.3764 39.8127 75.49 39.6842C75.6045 39.5556 75.6618 39.3584 75.6618 39.0933V37.496H76.8252H76.8243Z" fill="#ED5E34"/>
<path d="M80.989 39.3724C81.0938 39.4966 81.1449 39.6445 81.1449 39.8162C81.1449 40.0373 81.0691 40.2275 80.9168 40.3886C80.7635 40.5497 80.5557 40.6721 80.2915 40.7567C80.0282 40.8394 79.734 40.8817 79.4082 40.8817C78.8445 40.8817 78.3426 40.7866 77.9013 40.5938L78.2016 39.811C78.5522 39.9571 78.9423 40.0311 79.3703 40.0311C79.5544 40.0311 79.7006 40.0047 79.8089 39.9519C79.9163 39.899 79.97 39.8233 79.97 39.7255C79.97 39.6357 79.9375 39.5697 79.8723 39.5292C79.808 39.4887 79.7067 39.4676 79.5729 39.4676H78.8569V38.7887H79.4681C79.742 38.7887 79.8785 38.705 79.8785 38.5368C79.8785 38.3686 79.6962 38.2735 79.3342 38.2735C79.0198 38.2735 78.6684 38.3475 78.2818 38.4945L78.0061 37.7294C78.487 37.5295 78.9634 37.4291 79.4328 37.4291C79.9022 37.4291 80.2897 37.5119 80.5953 37.6765C80.9027 37.8421 81.055 38.0728 81.055 38.3713C81.055 38.5219 81.0101 38.6619 80.9212 38.7878C80.8305 38.9146 80.7072 39.0158 80.5469 39.0933C80.7389 39.155 80.8877 39.2474 80.9907 39.3716L80.989 39.3724Z" fill="#ED5E34"/>
<path d="M85.572 39.8585C85.572 40.1561 85.4558 40.3904 85.2224 40.5594C84.9899 40.7294 84.6473 40.8139 84.1938 40.8139H82.3267V37.496H84.1083C84.5407 37.496 84.8763 37.5717 85.1149 37.7223C85.3536 37.8729 85.4734 38.0851 85.4734 38.3589C85.4734 38.5183 85.432 38.6592 85.351 38.7816C85.2699 38.904 85.1519 39.0026 85.0013 39.0757C85.3818 39.2025 85.5711 39.4631 85.5711 39.8585H85.572ZM83.3677 38.83H84.0053C84.2748 38.83 84.4095 38.7296 84.4095 38.5298C84.4095 38.3299 84.2757 38.2418 84.0053 38.2418H83.3677V38.83ZM84.5134 39.7546C84.5134 39.5512 84.3769 39.4491 84.1031 39.4491H83.3677V40.061H84.0898C84.3725 40.061 84.5126 39.9589 84.5126 39.7546H84.5134Z" fill="#ED5E34"/>
<path d="M90.2616 37.496V40.8139H89.1537V40.4837C88.9371 40.7408 88.6103 40.8685 88.1735 40.8685C87.8715 40.8685 87.5985 40.7981 87.3501 40.6572C87.1035 40.5163 86.908 40.3155 86.7627 40.054C86.6165 39.7925 86.5443 39.4913 86.5443 39.1488C86.5443 38.8063 86.6165 38.5051 86.7627 38.2462C86.9071 37.9873 87.1035 37.7875 87.3501 37.6492C87.5976 37.511 87.8715 37.4414 88.1735 37.4414C88.5654 37.4414 88.8737 37.5559 89.0982 37.7839V37.496H90.2616ZM88.9203 39.7335C89.0516 39.5926 89.1167 39.398 89.1167 39.1488C89.1167 38.8996 89.0524 38.712 88.9203 38.5729C88.79 38.4347 88.6227 38.3651 88.4184 38.3651C88.214 38.3651 88.0467 38.4338 87.9164 38.5729C87.786 38.712 87.72 38.904 87.72 39.1488C87.72 39.3936 87.786 39.5926 87.9164 39.7335C88.0467 39.8744 88.214 39.9448 88.4184 39.9448C88.6227 39.9448 88.79 39.8744 88.9203 39.7335Z" fill="#ED5E34"/>
<path d="M91.6381 37.496H92.7953V38.727H93.9886V37.496H95.152V40.8139H93.9886V39.6507H92.7953V40.8139H91.6381V37.496Z" fill="#ED5E34"/>
<path d="M99.9649 37.496V40.8139H98.857V40.4652C98.7346 40.5964 98.5884 40.6959 98.4184 40.7655C98.2493 40.835 98.0688 40.8694 97.8768 40.8694C97.4444 40.8694 97.1018 40.7426 96.8464 40.4899C96.591 40.2371 96.4633 39.8567 96.4633 39.3513V37.496H97.6267V39.1611C97.6267 39.6384 97.8125 39.877 98.1842 39.877C98.3673 39.877 98.5171 39.8127 98.6307 39.6842C98.7452 39.5556 98.8024 39.3584 98.8024 39.0933V37.496H99.9658H99.9649Z" fill="#ED5E34"/>
<path d="M103.531 39.914C103.647 39.8691 103.764 39.7951 103.883 39.693L104.49 40.3296C104.175 40.6889 103.705 40.8685 103.081 40.8685C102.694 40.8685 102.352 40.7954 102.059 40.6484C101.765 40.5013 101.538 40.2979 101.377 40.0364C101.215 39.7749 101.134 39.479 101.134 39.1488C101.134 38.8186 101.215 38.5289 101.373 38.27C101.533 38.0111 101.753 37.8077 102.031 37.6607C102.311 37.5136 102.625 37.4405 102.972 37.4405C103.294 37.4405 103.588 37.5066 103.855 37.6395C104.123 37.7725 104.336 37.9662 104.495 38.2216C104.655 38.476 104.734 38.7798 104.734 39.1303L102.365 39.5829C102.492 39.8488 102.743 39.9809 103.119 39.9809C103.277 39.9809 103.415 39.9589 103.532 39.914H103.531ZM102.487 38.454C102.36 38.5782 102.288 38.7569 102.273 38.9903L103.62 38.727C103.578 38.5888 103.501 38.4769 103.386 38.3933C103.273 38.3105 103.136 38.2682 102.976 38.2682C102.776 38.2682 102.613 38.3299 102.487 38.4549V38.454Z" fill="#ED5E34"/>
<path d="M111.725 37.496V40.8139H110.567V38.4206H109.454V40.8139H108.297V37.496H111.725Z" fill="#ED5E34"/>
<path d="M113.8 40.6484C113.514 40.5013 113.29 40.2979 113.129 40.0364C112.968 39.7749 112.888 39.479 112.888 39.1488C112.888 38.8186 112.968 38.528 113.129 38.2674C113.29 38.0058 113.512 37.8033 113.796 37.6589C114.079 37.5136 114.401 37.4414 114.761 37.4414C115.121 37.4414 115.442 37.5136 115.727 37.6589C116.013 37.8033 116.235 38.005 116.396 38.2647C116.554 38.5236 116.634 38.8186 116.634 39.1497C116.634 39.4808 116.554 39.7757 116.396 40.0373C116.235 40.2988 116.013 40.5022 115.727 40.6492C115.442 40.7963 115.12 40.8694 114.761 40.8694C114.403 40.8694 114.085 40.7963 113.8 40.6492V40.6484ZM115.263 39.7335C115.393 39.5926 115.459 39.398 115.459 39.1488C115.459 38.8996 115.393 38.712 115.263 38.5729C115.133 38.4347 114.965 38.3651 114.761 38.3651C114.557 38.3651 114.389 38.4338 114.259 38.5729C114.128 38.712 114.063 38.904 114.063 39.1488C114.063 39.3936 114.127 39.5926 114.259 39.7335C114.389 39.8744 114.556 39.9448 114.761 39.9448C114.966 39.9448 115.133 39.8744 115.263 39.7335Z" fill="#ED5E34"/>
<path d="M121.012 40.8139V39.0695L120.161 40.5198H119.665L118.838 39.0449V40.8139H117.792V37.496H119.016L119.939 39.228L120.956 37.496H122.051L122.058 40.8139H121.011H121.012Z" fill="#ED5E34"/>
<path d="M124.129 40.6484C123.843 40.5013 123.619 40.2979 123.458 40.0364C123.297 39.7749 123.216 39.479 123.216 39.1488C123.216 38.8186 123.297 38.528 123.458 38.2674C123.619 38.0058 123.841 37.8033 124.124 37.6589C124.408 37.5136 124.729 37.4414 125.09 37.4414C125.45 37.4414 125.77 37.5136 126.056 37.6589C126.342 37.8033 126.564 38.005 126.724 38.2647C126.883 38.5236 126.963 38.8186 126.963 39.1497C126.963 39.4808 126.883 39.7757 126.724 40.0373C126.564 40.2988 126.342 40.5022 126.056 40.6492C125.77 40.7963 125.448 40.8694 125.09 40.8694C124.731 40.8694 124.413 40.7963 124.129 40.6492V40.6484ZM125.592 39.7335C125.722 39.5926 125.788 39.398 125.788 39.1488C125.788 38.8996 125.722 38.712 125.592 38.5729C125.461 38.4347 125.294 38.3651 125.09 38.3651C124.885 38.3651 124.718 38.4338 124.588 38.5729C124.456 38.712 124.391 38.904 124.391 39.1488C124.391 39.3936 124.456 39.5926 124.588 39.7335C124.718 39.8744 124.884 39.9448 125.09 39.9448C125.295 39.9448 125.461 39.8744 125.592 39.7335Z" fill="#ED5E34"/>
<path d="M130.899 38.4197H129.278V40.813H128.121V37.4951H130.899V38.4197Z" fill="#ED5E34"/>
<path d="M135.326 37.496V40.8139H134.218V40.4837C134.001 40.7408 133.674 40.8685 133.238 40.8685C132.936 40.8685 132.663 40.7981 132.414 40.6572C132.168 40.5163 131.972 40.3155 131.827 40.054C131.681 39.7925 131.608 39.4913 131.608 39.1488C131.608 38.8063 131.681 38.5051 131.827 38.2462C131.971 37.9873 132.168 37.7875 132.414 37.6492C132.662 37.511 132.936 37.4414 133.238 37.4414C133.63 37.4414 133.938 37.5559 134.162 37.7839V37.496H135.326ZM133.984 39.7335C134.116 39.5926 134.181 39.398 134.181 39.1488C134.181 38.8996 134.117 38.712 133.984 38.5729C133.854 38.4347 133.687 38.3651 133.482 38.3651C133.278 38.3651 133.111 38.4338 132.981 38.5729C132.85 38.712 132.784 38.904 132.784 39.1488C132.784 39.3936 132.85 39.5926 132.981 39.7335C133.111 39.8744 133.278 39.9448 133.482 39.9448C133.687 39.9448 133.854 39.8744 133.984 39.7335Z" fill="#ED5E34"/>
<path d="M142.002 37.8077C142.244 38.0525 142.366 38.4215 142.366 38.9154V40.813H141.203V39.1048C141.203 38.8723 141.159 38.7006 141.072 38.5905C140.983 38.4805 140.861 38.425 140.701 38.425C140.525 38.425 140.384 38.4866 140.279 38.6081C140.173 38.7305 140.12 38.9163 140.12 39.1655V40.8121H138.957V39.1039C138.957 38.6513 138.789 38.425 138.455 38.425C138.275 38.425 138.132 38.4866 138.027 38.6081C137.919 38.7305 137.867 38.9163 137.867 39.1655V40.8121H136.704V37.4942H137.812V37.843C137.934 37.7082 138.081 37.6078 138.25 37.54C138.419 37.4731 138.603 37.4397 138.803 37.4397C139.036 37.4397 139.244 37.4819 139.427 37.5682C139.611 37.6536 139.76 37.7839 139.874 37.96C140.005 37.7927 140.169 37.6651 140.37 37.5744C140.57 37.4846 140.789 37.4405 141.025 37.4405C141.433 37.4405 141.76 37.562 142.002 37.8077Z" fill="#ED5E34"/>
<path d="M143.615 39.4975V37.496H144.771V38.5483C144.862 38.4919 144.982 38.4444 145.136 38.4074C145.289 38.3704 145.464 38.3528 145.659 38.3528C146.075 38.3528 146.403 38.4558 146.642 38.6618C146.88 38.8679 147 39.1726 147 39.5767C147 40.0135 146.848 40.3446 146.543 40.5709C146.238 40.7972 145.822 40.9108 145.291 40.9108C144.173 40.9108 143.615 40.4397 143.615 39.4966V39.4975ZM145.678 39.9783C145.767 39.8858 145.812 39.7608 145.812 39.6014C145.812 39.442 145.768 39.3267 145.681 39.243C145.593 39.1594 145.468 39.1171 145.304 39.1171C145.185 39.1171 145.081 39.1373 144.989 39.1787C144.898 39.2192 144.824 39.2747 144.771 39.3443V39.6014C144.771 39.7643 144.815 39.8911 144.902 39.9809C144.99 40.0716 145.118 40.1156 145.285 40.1156C145.453 40.1156 145.587 40.0699 145.677 39.9783H145.678Z" fill="#ED5E34"/>
<path d="M63.8335 4.81632H66.2756V5.29533H64.4077V6.06581H65.335C65.7111 6.06581 65.9973 6.14417 66.1928 6.30091C66.3883 6.45765 66.4861 6.68396 66.4861 6.97983C66.4861 7.29066 66.3786 7.53016 66.1638 7.69835C65.9489 7.86741 65.6424 7.95105 65.2452 7.95105H63.8344V4.81544L63.8335 4.81632ZM65.2135 7.50375C65.4372 7.50375 65.6081 7.4606 65.7243 7.37343C65.8406 7.28714 65.8987 7.16122 65.8987 6.99743C65.8987 6.67516 65.6706 6.51402 65.2135 6.51402H64.4068V7.50375H65.2135Z" fill="#282828"/>
<path d="M69.3483 5.5595V7.95193H68.7882V6.035H67.8925L67.8705 6.50961C67.8555 6.82661 67.8265 7.09165 67.7833 7.30474C67.7402 7.51872 67.6671 7.6869 67.564 7.81106C67.461 7.93522 67.3201 7.99684 67.1404 7.99684C67.0568 7.99684 66.9537 7.98013 66.8313 7.94755L66.8586 7.47733C66.9 7.48613 66.9361 7.49053 66.9661 7.49053C67.0797 7.49053 67.1651 7.44476 67.2215 7.35406C67.2778 7.26336 67.3148 7.15416 67.3315 7.02736C67.3483 6.90056 67.3624 6.71917 67.3738 6.48319L67.4143 5.56038H69.35L69.3483 5.5595Z" fill="#282828"/>
<path d="M71.9806 5.7858C72.1673 5.95487 72.2607 6.20934 72.2607 6.54923V7.95105H71.7323V7.65961C71.6636 7.76439 71.5658 7.84364 71.439 7.89911C71.3122 7.95459 71.159 7.98188 70.9802 7.98188C70.8014 7.98188 70.6438 7.95106 70.5099 7.8903C70.376 7.82954 70.2721 7.74414 70.1981 7.63495C70.125 7.52576 70.0881 7.40249 70.0881 7.26512C70.0881 7.05027 70.1682 6.87767 70.3276 6.74735C70.487 6.61703 70.7389 6.55275 71.0823 6.55275H71.7006V6.51666C71.7006 6.34936 71.6504 6.22079 71.5509 6.13185C71.4505 6.04204 71.3025 5.99713 71.1052 5.99713C70.9705 5.99713 70.8384 6.01825 70.7089 6.05964C70.5786 6.10191 70.4694 6.16002 70.3796 6.23399L70.1603 5.8263C70.2853 5.73121 70.4368 5.65724 70.6129 5.60705C70.7891 5.55598 70.9758 5.53131 71.173 5.53131C71.5253 5.53131 71.7948 5.61586 71.9815 5.78404L71.9806 5.7858ZM71.4698 7.47909C71.579 7.41481 71.6557 7.32322 71.7006 7.20347V6.92611H71.1228C70.8005 6.92611 70.6394 7.03178 70.6394 7.24399C70.6394 7.34525 70.6799 7.42627 70.76 7.48614C70.841 7.54602 70.9529 7.57596 71.0964 7.57596C71.24 7.57596 71.3615 7.54425 71.4707 7.47997L71.4698 7.47909Z" fill="#282828"/>
<path d="M74.9714 6.035H73.6944V7.95193H73.1343V5.5595H74.9714V6.035Z" fill="#282828"/>
<path d="M75.867 7.8269C75.6733 7.72212 75.5209 7.57683 75.4126 7.39015C75.3034 7.20348 75.2488 6.99215 75.2488 6.75617C75.2488 6.52018 75.3034 6.30971 75.4126 6.1248C75.5218 5.93989 75.6733 5.7946 75.867 5.6907C76.0608 5.58591 76.2792 5.53396 76.5214 5.53396C76.7636 5.53396 76.9855 5.58591 77.1801 5.6907C77.3739 5.79548 77.5262 5.93989 77.6346 6.1248C77.7438 6.30971 77.7984 6.52018 77.7984 6.75617C77.7984 6.99215 77.7438 7.20348 77.6346 7.39015C77.5254 7.57683 77.3739 7.72212 77.1801 7.8269C76.9855 7.93169 76.7662 7.98364 76.5214 7.98364C76.2766 7.98364 76.0617 7.93169 75.867 7.8269ZM77.0322 7.29769C77.1669 7.16033 77.2339 6.97982 77.2339 6.75528C77.2339 6.53075 77.1669 6.35022 77.0322 6.21285C76.8974 6.07549 76.7275 6.00682 76.5214 6.00682C76.3153 6.00682 76.1453 6.07549 76.0132 6.21285C75.8802 6.35022 75.8142 6.53075 75.8142 6.75528C75.8142 6.97982 75.8802 7.16033 76.0132 7.29769C76.1462 7.43506 76.3153 7.50375 76.5214 7.50375C76.7275 7.50375 76.8974 7.43506 77.0322 7.29769Z" fill="#282828"/>
<path d="M79.4963 6.035V7.95193H78.9362V6.035H78.0943V5.56038H80.3347V6.035H79.4963Z" fill="#282828"/>
<path d="M83.0983 7.28009C83.0983 7.49494 83.0172 7.66047 82.8561 7.77759C82.6949 7.89382 82.4562 7.95193 82.1392 7.95193H80.9204V5.5595H82.0899C82.3823 5.5595 82.6112 5.61322 82.7751 5.72064C82.9389 5.82807 83.0216 5.9804 83.0216 6.17764C83.0216 6.30004 82.9899 6.40571 82.9256 6.49553C82.8614 6.58534 82.7707 6.6549 82.6544 6.70597C82.9503 6.79578 83.0983 6.98686 83.0983 7.27921V7.28009ZM81.454 6.55892H82.0406C82.3303 6.55892 82.4747 6.45853 82.4747 6.25864C82.4747 6.05876 82.3294 5.9672 82.0406 5.9672H81.454V6.55892ZM82.5558 7.24399C82.5558 7.13921 82.5197 7.06082 82.4483 7.00887C82.377 6.95692 82.2643 6.93051 82.1119 6.93051H81.4532V7.54425H82.0934C82.4008 7.54425 82.5549 7.44388 82.5549 7.24399H82.5558Z" fill="#282828"/>
<path d="M84.2854 7.8269C84.0917 7.72212 83.9393 7.57683 83.831 7.39015C83.7218 7.20348 83.6672 6.99215 83.6672 6.75617C83.6672 6.52018 83.7218 6.30971 83.831 6.1248C83.9402 5.93989 84.0917 5.7946 84.2854 5.6907C84.4792 5.58591 84.6976 5.53396 84.9398 5.53396C85.1819 5.53396 85.4039 5.58591 85.5985 5.6907C85.7922 5.79548 85.9446 5.93989 86.0529 6.1248C86.1621 6.30971 86.2167 6.52018 86.2167 6.75617C86.2167 6.99215 86.1621 7.20348 86.0529 7.39015C85.9437 7.57683 85.7922 7.72212 85.5985 7.8269C85.4039 7.93169 85.1846 7.98364 84.9398 7.98364C84.6949 7.98364 84.48 7.93169 84.2854 7.8269ZM85.4505 7.29769C85.5853 7.16033 85.6522 6.97982 85.6522 6.75528C85.6522 6.53075 85.5853 6.35022 85.4505 6.21285C85.3158 6.07549 85.1458 6.00682 84.9398 6.00682C84.7337 6.00682 84.5637 6.07549 84.4316 6.21285C84.2986 6.35022 84.2326 6.53075 84.2326 6.75528C84.2326 6.97982 84.2986 7.16033 84.4316 7.29769C84.5646 7.43506 84.7337 7.50375 84.9398 7.50375C85.1458 7.50375 85.3158 7.43506 85.4505 7.29769Z" fill="#282828"/>
<path d="M88.8975 5.68541C89.0816 5.78667 89.2251 5.93021 89.3299 6.11513C89.4347 6.30004 89.4867 6.51402 89.4867 6.75528C89.4867 6.99655 89.4347 7.21141 89.3299 7.39809C89.2251 7.58476 89.0816 7.72917 88.8975 7.83043C88.7134 7.93169 88.5056 7.98276 88.2722 7.98276C87.9499 7.98276 87.6945 7.87534 87.506 7.66049V8.82104H86.9459V5.56038H87.4787V5.87386C87.5712 5.76027 87.6857 5.67484 87.8213 5.61849C87.9569 5.56213 88.1075 5.53308 88.2713 5.53308C88.5047 5.53308 88.7126 5.58415 88.8966 5.68541H88.8975ZM88.7187 7.29769C88.8517 7.16033 88.9178 6.97982 88.9178 6.75528C88.9178 6.53075 88.8508 6.35022 88.7187 6.21285C88.5857 6.07549 88.4167 6.00682 88.2106 6.00682C88.0758 6.00682 87.9552 6.03764 87.8477 6.0984C87.7403 6.16004 87.6549 6.24721 87.5924 6.3608C87.5298 6.47439 87.4981 6.60559 87.4981 6.75528C87.4981 6.90498 87.5298 7.03618 87.5924 7.14977C87.6549 7.26336 87.7403 7.35053 87.8477 7.41217C87.9552 7.47381 88.0758 7.50375 88.2106 7.50375C88.4167 7.50375 88.5857 7.43506 88.7187 7.29769Z" fill="#282828"/>
<path d="M90.2212 5.5595H90.7813V7.13655L92.1032 5.5595H92.614V7.95193H92.0538V6.37488L90.7364 7.95193H90.2212V5.5595Z" fill="#282828"/>
<path d="M94.6034 6.035V7.95193H94.0433V6.035H93.2014V5.56038H95.4418V6.035H94.6034Z" fill="#282828"/>
<path d="M98.156 6.93492H96.2784C96.311 7.11103 96.3973 7.25104 96.5365 7.35406C96.6756 7.45708 96.8482 7.50816 97.0543 7.50816C97.3168 7.50816 97.5334 7.42185 97.7043 7.24838L98.0046 7.59357C97.8971 7.72213 97.7615 7.81897 97.5968 7.88501C97.4321 7.95105 97.2472 7.98364 97.0411 7.98364C96.7787 7.98364 96.5471 7.93169 96.3463 7.8269C96.1463 7.72212 95.9913 7.57683 95.8821 7.39015C95.7729 7.20348 95.7183 6.99215 95.7183 6.75617C95.7183 6.52018 95.7712 6.31324 95.8777 6.12656C95.9834 5.93989 96.1305 5.7946 96.319 5.68982C96.5074 5.58503 96.7188 5.53308 96.9548 5.53308C97.1908 5.53308 97.396 5.58415 97.5801 5.68805C97.7641 5.79108 97.9068 5.93638 98.0098 6.12218C98.1129 6.30885 98.164 6.52457 98.164 6.76937C98.164 6.80811 98.1613 6.8636 98.1552 6.93492H98.156ZM96.5004 6.13978C96.3762 6.24545 96.3013 6.38722 96.274 6.56333H97.6312C97.6074 6.38986 97.5343 6.24985 97.4119 6.14243C97.2895 6.035 97.1371 5.98128 96.9548 5.98128C96.7725 5.98128 96.6237 6.03412 96.5004 6.14067V6.13978Z" fill="#282828"/>
<path d="M101.095 5.5595V7.95193H100.535V6.035H99.6391L99.6171 6.50961C99.6021 6.82661 99.573 7.09165 99.5299 7.30474C99.4867 7.51872 99.4136 7.6869 99.3106 7.81106C99.2076 7.93522 99.0667 7.99684 98.887 7.99684C98.8033 7.99684 98.7003 7.98013 98.5779 7.94755L98.6052 7.47733C98.6466 7.48613 98.6827 7.49053 98.7126 7.49053C98.8262 7.49053 98.9117 7.44476 98.968 7.35406C99.0244 7.26336 99.0614 7.15416 99.0781 7.02736C99.0948 6.90056 99.1089 6.71917 99.1204 6.48319L99.1609 5.56038H101.097L101.095 5.5595Z" fill="#282828"/>
<path d="M103.929 6.55452C104.092 6.69188 104.173 6.88559 104.173 7.13655C104.173 7.3875 104.083 7.60237 103.904 7.7459C103.725 7.88943 103.473 7.95898 103.147 7.95634L102.027 7.95193V5.5595H102.587V6.3432L103.227 6.34758C103.532 6.34758 103.765 6.41627 103.928 6.55364L103.929 6.55452ZM103.474 7.44123C103.56 7.36991 103.604 7.26512 103.604 7.12775C103.604 6.99039 103.562 6.8944 103.479 6.83188C103.395 6.76936 103.268 6.73679 103.098 6.73327L102.588 6.72886V7.53984L103.098 7.54425C103.262 7.54689 103.388 7.51256 103.474 7.44123H103.474Z" fill="#282828"/>
<path d="M104.845 5.5595H105.405V6.53162H106.61V5.5595H107.17V7.95193H106.61V7.00711H105.405V7.95193H104.845V5.5595Z" fill="#282828"/>
<path d="M109.965 6.55452C110.126 6.69188 110.207 6.88559 110.207 7.13655C110.207 7.3875 110.118 7.60237 109.94 7.7459C109.762 7.88943 109.511 7.95898 109.186 7.95634L108.102 7.95193V5.5595H108.662V6.3432L109.267 6.34758C109.571 6.34758 109.804 6.41627 109.966 6.55364L109.965 6.55452ZM109.513 7.44123C109.6 7.36991 109.644 7.26512 109.644 7.12775C109.644 6.99039 109.601 6.8944 109.519 6.83188C109.435 6.76936 109.308 6.73679 109.138 6.73327L108.663 6.72886V7.53984L109.138 7.54425C109.302 7.54689 109.428 7.51256 109.514 7.44123H109.513ZM110.516 5.5595H111.076V7.95193H110.516V5.5595Z" fill="#282828"/>
<path d="M112.008 5.5595H112.568V7.13655L113.89 5.5595H114.401V7.95193H113.841V6.37488L112.523 7.95193H112.008V5.5595ZM112.615 5.10955C112.488 4.99772 112.423 4.83393 112.42 4.61908H112.792C112.795 4.72651 112.828 4.81191 112.892 4.87443C112.957 4.93695 113.047 4.96865 113.164 4.96865C113.28 4.96865 113.367 4.93695 113.435 4.87443C113.502 4.81191 113.537 4.72651 113.541 4.61908H113.921C113.918 4.83393 113.852 4.99772 113.724 5.10955C113.595 5.22138 113.41 5.27773 113.168 5.27773C112.926 5.27773 112.742 5.22138 112.615 5.10955Z" fill="#282828"/>
<path d="M119.541 7.62525C119.295 7.83747 118.943 7.95811 118.486 7.98805V8.82104H117.958V7.99246C117.501 7.96252 117.15 7.84187 116.906 7.62966C116.661 7.41745 116.538 7.12511 116.538 6.75176C116.538 6.37841 116.661 6.09222 116.906 5.88529C117.15 5.67749 117.502 5.55949 117.958 5.52955V4.62875H118.486V5.52955C118.943 5.55949 119.295 5.67925 119.541 5.88794C119.788 6.09663 119.911 6.38545 119.911 6.75264C119.911 7.11983 119.788 7.41392 119.541 7.62614V7.62525ZM117.301 7.2889C117.443 7.41746 117.662 7.49494 117.957 7.52224V6.0033C117.661 6.02707 117.443 6.10192 117.301 6.22696C117.159 6.35199 117.088 6.52722 117.088 6.75088C117.088 6.97454 117.159 7.16034 117.301 7.28802V7.2889ZM119.364 6.75176C119.364 6.52458 119.292 6.34935 119.147 6.22519C119.002 6.10104 118.781 6.02707 118.486 6.0033V7.52224C119.072 7.46852 119.364 7.2114 119.364 6.75176Z" fill="#282828"/>
<path d="M121.045 7.8269C120.851 7.72212 120.699 7.57683 120.59 7.39015C120.481 7.20348 120.427 6.99215 120.427 6.75617C120.427 6.52018 120.481 6.30971 120.59 6.1248C120.7 5.93989 120.851 5.7946 121.045 5.6907C121.239 5.58591 121.457 5.53396 121.699 5.53396C121.941 5.53396 122.163 5.58591 122.358 5.6907C122.552 5.79548 122.704 5.93989 122.812 6.1248C122.922 6.30971 122.976 6.52018 122.976 6.75617C122.976 6.99215 122.922 7.20348 122.812 7.39015C122.703 7.57683 122.552 7.72212 122.358 7.8269C122.163 7.93169 121.944 7.98364 121.699 7.98364C121.454 7.98364 121.239 7.93169 121.045 7.8269ZM122.209 7.29769C122.344 7.16033 122.411 6.97982 122.411 6.75528C122.411 6.53075 122.344 6.35022 122.209 6.21285C122.074 6.07549 121.904 6.00682 121.698 6.00682C121.492 6.00682 121.322 6.07549 121.19 6.21285C121.057 6.35022 120.991 6.53075 120.991 6.75528C120.991 6.97982 121.057 7.16033 121.19 7.29769C121.323 7.43506 121.492 7.50375 121.698 7.50375C121.904 7.50375 122.074 7.43506 122.209 7.29769Z" fill="#282828"/>
<path d="M123.706 5.5595H124.266V6.53162H125.471V5.5595H126.031V7.95193H125.471V7.00711H124.266V7.95193H123.706V5.5595Z" fill="#282828"/>
<path d="M129.517 7.47733V8.48555H128.993V7.95281H127.147V8.48555H126.627V7.47733H126.739C126.892 7.47116 126.996 7.37342 127.051 7.1841C127.106 6.99478 127.143 6.72623 127.161 6.38017L127.193 5.56038H129.164V7.47733H129.518H129.517ZM127.603 7.09166C127.571 7.26513 127.511 7.39368 127.424 7.47733H128.603V6.035H127.684L127.671 6.42067C127.659 6.6954 127.637 6.91905 127.604 7.09252L127.603 7.09166Z" fill="#282828"/>
</svg>
