<svg width="728" height="505" viewBox="0 0 728 505" fill="none" xmlns="http://www.w3.org/2000/svg">
<path d="M545.518 199.61C545.588 200.564 544.873 201.394 543.919 201.464C542.966 201.534 542.136 200.819 542.066 199.865C541.996 198.911 542.711 198.083 543.665 198.012C544.618 197.942 545.448 198.657 545.518 199.61Z" fill="#F6AF9A" fill-opacity="0.5"/>
<path d="M625.013 311.221C625.083 312.175 624.368 313.005 623.414 313.075C622.46 313.145 621.631 312.43 621.561 311.476C621.491 310.522 622.206 309.693 623.159 309.623C624.113 309.553 624.943 310.268 625.013 311.221Z" fill="#F6AF9A" fill-opacity="0.5"/>
<path d="M141.289 450.237C141.359 451.191 140.644 452.02 139.69 452.091C138.736 452.161 137.908 451.446 137.837 450.492C137.765 449.539 138.482 448.709 139.435 448.639C140.389 448.569 141.219 449.284 141.289 450.237Z" fill="#F6AF9A" fill-opacity="0.5"/>
<path d="M465.357 423.731C465.426 424.685 464.712 425.513 463.758 425.584C462.804 425.656 461.974 424.939 461.904 423.986C461.834 423.032 462.549 422.204 463.503 422.132C464.455 422.062 465.285 422.777 465.357 423.731Z" fill="#F6AF9A" fill-opacity="0.5"/>
<path d="M478.452 108.904C478.522 109.858 477.807 110.688 476.853 110.758C475.899 110.828 475.071 110.113 475 109.159C474.928 108.206 475.645 107.376 476.598 107.306C477.551 107.236 478.38 107.952 478.452 108.904Z" fill="#F6AF9A" fill-opacity="0.5"/>
<path d="M49.9845 139.919C50.0544 140.872 49.3395 141.701 48.3858 141.772C47.4321 141.842 46.6036 141.127 46.5323 140.173C46.4624 139.22 47.1773 138.39 48.131 138.32C49.0847 138.25 49.9146 138.965 49.9845 139.919Z" fill="#F6AF9A" fill-opacity="0.5"/>
<path d="M67.6924 264.922C67.7623 265.876 67.0474 266.706 66.0937 266.775C65.14 266.845 64.3115 266.13 64.2402 265.177C64.1688 264.223 64.8852 263.393 65.8389 263.323C66.7926 263.253 67.621 263.968 67.6924 264.922Z" fill="#F6AF9A" fill-opacity="0.5"/>
<path d="M596.056 63.5966C596.126 64.5502 595.411 65.3802 594.457 65.45C593.503 65.5199 592.675 64.805 592.604 63.8514C592.534 62.8977 593.249 62.0692 594.202 61.9979C595.154 61.928 595.984 62.6443 596.056 63.5966Z" fill="#F6AF9A" fill-opacity="0.5"/>
<path d="M503.118 232.647C503.261 234.58 501.81 236.264 499.877 236.406C497.943 236.549 496.26 235.097 496.117 233.165C495.975 231.232 497.425 229.548 499.359 229.406C501.292 229.263 502.975 230.713 503.118 232.647Z" fill="#F6AF9A" fill-opacity="0.5"/>
<path d="M499.619 223.611V242.376" stroke="#F6AF9A" stroke-opacity="0.5" stroke-width="1.5" stroke-miterlimit="10" stroke-linecap="round" stroke-linejoin="round"/>
<path d="M493.133 232.993H506.104" stroke="#F6AF9A" stroke-opacity="0.5" stroke-width="1.5" stroke-miterlimit="10" stroke-linecap="round" stroke-linejoin="round"/>
<path d="M665.388 339.188C665.53 341.122 664.079 342.805 662.147 342.948C660.213 343.09 658.53 341.64 658.387 339.707C658.244 337.773 659.696 336.09 661.628 335.947C663.56 335.805 665.245 337.255 665.388 339.188Z" fill="#F6AF9A" fill-opacity="0.5"/>
<path d="M661.887 330.152V348.917" stroke="#F6AF9A" stroke-opacity="0.5" stroke-width="1.5" stroke-miterlimit="10" stroke-linecap="round" stroke-linejoin="round"/>
<path d="M655.402 339.535H668.372" stroke="#F6AF9A" stroke-opacity="0.5" stroke-width="1.5" stroke-miterlimit="10" stroke-linecap="round" stroke-linejoin="round"/>
<path d="M74.8093 366.172C74.952 368.106 73.5003 369.789 71.5682 369.932C69.6346 370.074 67.9515 368.624 67.8088 366.691C67.6661 364.757 69.1163 363.074 71.0499 362.931C72.9834 362.789 74.6666 364.24 74.8093 366.172Z" fill="#F6AF9A" fill-opacity="0.5"/>
<path d="M71.3091 357.138V375.903" stroke="#F6AF9A" stroke-opacity="0.5" stroke-width="1.5" stroke-miterlimit="10" stroke-linecap="round" stroke-linejoin="round"/>
<path d="M64.824 366.52H77.7941" stroke="#F6AF9A" stroke-opacity="0.5" stroke-width="1.5" stroke-miterlimit="10" stroke-linecap="round" stroke-linejoin="round"/>
<path d="M398.922 456.607C399.065 458.541 397.613 460.224 395.681 460.367C393.748 460.509 392.064 459.059 391.922 457.126C391.779 455.192 393.229 453.509 395.163 453.366C397.095 453.222 398.778 454.674 398.922 456.607Z" fill="#F6AF9A" fill-opacity="0.5"/>
<path d="M395.422 447.571V466.336" stroke="#F6AF9A" stroke-opacity="0.5" stroke-width="1.5" stroke-miterlimit="10" stroke-linecap="round" stroke-linejoin="round"/>
<path d="M388.935 456.954H401.907" stroke="#F6AF9A" stroke-opacity="0.5" stroke-width="1.5" stroke-miterlimit="10" stroke-linecap="round" stroke-linejoin="round"/>
<path d="M86.4602 72.248C86.6029 74.1816 85.1527 75.8648 83.2191 76.0074C81.2856 76.1501 79.6024 74.7 79.4598 72.7664C79.3171 70.8328 80.7687 69.1497 82.7008 69.007C84.6329 68.8643 86.3161 70.3159 86.4602 72.248Z" fill="#F6AF9A" fill-opacity="0.5"/>
<path d="M82.96 63.2136V81.9785" stroke="#F6AF9A" stroke-opacity="0.5" stroke-width="1.5" stroke-miterlimit="10" stroke-linecap="round" stroke-linejoin="round"/>
<path d="M76.4749 72.5962H89.445" stroke="#F6AF9A" stroke-opacity="0.5" stroke-width="1.5" stroke-miterlimit="10" stroke-linecap="round" stroke-linejoin="round"/>
<path d="M651.975 101.412C652.118 103.345 650.667 105.028 648.734 105.171C646.8 105.314 645.117 103.864 644.975 101.93C644.832 99.9964 646.282 98.3133 648.216 98.1706C650.149 98.0279 651.832 99.4795 651.975 101.412Z" fill="#F6AF9A" fill-opacity="0.5"/>
<path d="M648.475 92.3772V111.142" stroke="#F6AF9A" stroke-opacity="0.5" stroke-width="1.5" stroke-miterlimit="10" stroke-linecap="round" stroke-linejoin="round"/>
<path d="M641.99 101.76H654.96" stroke="#F6AF9A" stroke-opacity="0.5" stroke-width="1.5" stroke-miterlimit="10" stroke-linecap="round" stroke-linejoin="round"/>
</svg>
