<svg width="1333" height="1420" viewBox="0 0 1333 1420" fill="none" xmlns="http://www.w3.org/2000/svg">
<g clip-path="url(#clip0_755_21422)">
<path d="M1042.83 1274.34C1040.29 1274.52 1038.08 1272.62 1037.9 1270.08C1037.71 1267.54 1039.61 1265.33 1042.16 1265.14C1044.7 1264.95 1046.91 1266.86 1047.09 1269.4C1047.28 1271.94 1045.37 1274.15 1042.83 1274.34Z" fill="#D5D5D5"/>
<path d="M960.2 133.132C957.659 133.318 955.452 131.414 955.262 128.873C955.075 126.333 956.98 124.127 959.521 123.937C962.062 123.751 964.273 125.655 964.46 128.195C964.646 130.735 962.741 132.945 960.2 133.132Z" fill="#D5D5D5"/>
<path d="M713.134 1340.04C707.982 1340.42 703.498 1336.55 703.118 1331.4C702.737 1326.25 706.605 1321.77 711.753 1321.39C716.905 1321.01 721.389 1324.87 721.77 1330.02C722.15 1335.17 718.286 1339.66 713.134 1340.04Z" fill="#D5D5D5"/>
<path d="M737.209 1330.72L687.212 1330.72" stroke="#D5D5D5" stroke-width="1.5" stroke-miterlimit="10" stroke-linecap="round" stroke-linejoin="round"/>
<path d="M712.211 1313.44L712.211 1347.99" stroke="#D5D5D5" stroke-width="1.5" stroke-miterlimit="10" stroke-linecap="round" stroke-linejoin="round"/>
<path d="M1140.5 230.283C1135.35 230.663 1130.86 226.8 1130.48 221.65C1130.1 216.5 1133.97 212.017 1139.12 211.637C1144.27 211.257 1148.76 215.124 1149.14 220.27C1149.52 225.416 1145.65 229.899 1140.5 230.283Z" fill="#D5D5D5"/>
<path d="M1164.57 220.96L1114.58 220.96" stroke="#D5D5D5" stroke-width="1.5" stroke-miterlimit="10" stroke-linecap="round" stroke-linejoin="round"/>
<path d="M1139.57 203.688L1139.57 238.233" stroke="#D5D5D5" stroke-width="1.5" stroke-miterlimit="10" stroke-linecap="round" stroke-linejoin="round"/>
<path d="M592.238 703.675C592.238 836.984 700.345 945.053 833.701 945.053C967.058 945.053 1075.17 836.984 1075.17 703.675C1075.17 570.365 967.058 462.296 833.701 462.296C700.345 462.296 592.238 570.365 592.238 703.675Z" stroke="#D5D5D5" stroke-width="1.5" stroke-miterlimit="10"/>
<path d="M655.281 703.675C655.281 802.179 735.163 882.032 833.702 882.032C932.24 882.032 1012.12 802.179 1012.12 703.675C1012.12 605.171 932.24 525.318 833.702 525.318C735.163 525.318 655.281 605.171 655.281 703.675Z" fill="#D5D5D5"/>
<path d="M529.19 703.675C529.19 871.793 665.524 1008.08 833.701 1008.08C1001.88 1008.08 1138.21 871.793 1138.21 703.675C1138.21 535.558 1001.88 399.272 833.701 399.272C665.524 399.272 529.19 535.558 529.19 703.675Z" stroke="#D5D5D5" stroke-width="1.5" stroke-miterlimit="10"/>
<path d="M573.798 963.475C717.337 1106.96 950.06 1106.96 1093.6 963.475C1237.14 819.987 1237.14 587.346 1093.6 443.857C950.06 300.369 717.337 300.369 573.798 443.857C430.259 587.346 430.259 819.986 573.798 963.475Z" stroke="#D5D5D5" stroke-width="1.5" stroke-miterlimit="10"/>
<path d="M529.217 1008.04C697.378 1176.14 970.02 1176.14 1138.18 1008.04C1306.34 839.939 1306.34 567.393 1138.18 399.292C970.02 231.191 697.378 231.191 529.217 399.292C361.057 567.393 361.057 839.939 529.217 1008.04Z" stroke="#D5D5D5" stroke-width="1.5" stroke-miterlimit="10"/>
</g>
<defs>
<clipPath id="clip0_755_21422">
<rect width="1939" height="1333" fill="white" transform="translate(1333) rotate(90)"/>
</clipPath>
</defs>
</svg>
