<svg width="240" height="240" viewBox="0 0 240 240" fill="none" xmlns="http://www.w3.org/2000/svg">
<path d="M101.211 39.412C96.8714 39.9801 90.4644 41.2041 83.22 44.1148C52.9069 56.308 40.7782 84.9812 38.869 89.6957C30.9393 109.28 32.4913 127.019 33.932 135.88C35.3492 135.382 36.7724 134.878 38.1896 134.381C41.5278 125.936 44.866 117.485 48.2042 109.04C52.8601 111.915 57.516 114.791 62.1777 117.666C63.0679 115.909 63.9639 114.152 64.8541 112.395C67.7004 102.469 75.3665 81.4908 94.4878 72.6241C96.1452 71.8569 97.9256 71.16 99.8407 70.5685C99.6533 75.5933 99.46 80.624 99.2726 85.6489C114.833 77.3151 130.4 68.9814 145.96 60.6476C146.452 58.5978 146.944 56.5481 147.436 54.4983C133.755 44.7531 120.069 35.0138 106.388 25.2687C104.924 25.1867 103.46 25.1047 101.996 25.0227C101.738 29.825 101.475 34.6156 101.211 39.412Z" fill="#373735"/>
<path d="M105.36 39.0605C101.044 39.2831 94.7076 40.0269 87.5568 42.5393C61.2261 51.7866 49.3668 75.9856 46.1047 82.6561C35.3874 104.565 36.9218 125.233 38.1926 134.38C42.3624 124.067 46.5381 113.76 50.7079 103.447C55.4224 106.427 60.1427 109.414 64.8571 112.395C66.3857 105.461 73.841 74.8318 97.1263 66.6269C99.2639 65.8714 101.624 65.2799 104.213 64.9344C103.861 69.2916 103.51 73.6488 103.158 78.0061C117.917 70.1701 132.675 62.34 147.439 54.504C133.758 44.7589 120.072 35.0196 106.391 25.2744C106.052 29.8717 105.706 34.4691 105.36 39.0605Z" fill="#E62F32"/>
<path d="M195.703 146.849C200.388 135.575 201.641 125.912 201.946 119.482C203.152 94.1116 192.183 64.8 168.576 49.175C160.47 43.8105 152.828 41.3507 148.429 40.1912C146.948 41.3156 145.466 42.44 143.979 43.5645C146.321 45.6552 149.566 49.0461 152.248 53.9714C154.356 57.8367 155.463 61.4209 156.066 64.1207C152.582 67.0313 149.097 69.942 145.612 72.8585C152.828 78.7853 157.284 84.9463 159.885 89.1864C162.748 93.854 168.705 103.839 168.968 117.62C169.056 122.193 168.494 125.994 167.949 128.641C166.245 127.435 164.541 126.229 162.836 125.016C161.349 125.66 159.867 126.299 158.38 126.943C157.079 145.637 155.773 164.337 154.473 183.03C171.047 175.522 187.621 168.014 204.201 160.506C204.974 158.586 205.741 156.659 206.514 154.738C202.912 152.108 199.31 149.479 195.703 146.849Z" fill="#373735"/>
<path d="M195.703 146.849C197.519 142.919 199.832 137.074 201.308 129.725C207.58 98.4979 192.008 73.8656 190.022 70.832C181.53 57.854 171.328 50.961 168.576 49.1806C160.845 44.1675 153.548 41.5848 148.43 40.1968C150.544 43.166 152.863 46.9434 154.913 51.5349C156.424 54.9316 157.496 58.1058 158.263 60.917C155.452 63.4938 152.64 66.0707 149.829 68.6475C155.387 73.3912 173.829 90.334 175.129 116.003C175.446 122.246 174.69 127.851 173.536 132.606C169.97 130.076 166.403 127.552 162.837 125.022C161.49 142.129 160.148 159.229 158.801 176.336C174.708 169.139 190.608 161.941 206.514 154.749C202.912 152.108 199.311 149.478 195.703 146.849Z" fill="white"/>
<path d="M52.6988 171.815C57.8408 179.686 67.3282 191.504 82.9416 199.434C123.486 220.031 166.543 194.696 170.127 192.512C170.449 190.655 170.771 188.805 171.093 186.948C159.901 187.815 148.71 188.682 137.518 189.548C137.612 184.904 137.7 180.26 137.793 175.616C126.924 177.232 101.079 179.475 84.1832 163.505C82.8362 162.228 81.5126 160.811 80.2476 159.229C84.0836 157.531 87.9196 155.833 91.7556 154.14C91.9547 152.635 92.148 151.136 92.3471 149.631C79.2052 139.991 66.0574 130.345 52.9155 120.706C50.9009 121.795 48.8804 122.89 46.8658 123.979C43.2816 141.929 39.6974 159.885 36.1133 177.835C41.6359 175.832 47.1644 173.824 52.6988 171.815Z" fill="#373735"/>
<path d="M56.4897 165.426C58.4867 169.262 61.7898 174.714 67.043 180.178C86.3869 200.289 113.327 201.033 120.753 201.232C145.133 201.888 163.3 191.909 171.089 186.954C163.692 187.147 156.301 187.341 148.905 187.534C147.698 182.216 146.492 176.893 145.291 171.575C138.709 173.156 103.857 180.951 84.9872 161.467C83.2127 159.634 81.4968 157.473 79.939 154.913C84.0736 153.151 88.2083 151.394 92.3429 149.631C79.2479 139.997 66.1587 130.363 53.0636 120.723C49.8836 137.215 46.6976 153.707 43.5176 170.205C47.8455 168.612 52.1676 167.019 56.4897 165.426Z" fill="#696969"/>
<path d="M64.8113 83.3238L58.3984 78.217L62.9313 72.5245L69.3442 77.6314L68.4013 78.8144L62.7029 74.2756L63.2183 74.2346L60.1319 78.1116L60.0558 77.6021L65.7542 82.1408L64.8113 83.3238Z" fill="white"/>
<path d="M70.779 76.1087L65.1041 70.1936L67.5404 67.8569C68.0616 67.3533 68.5945 67.0077 69.1275 66.8145C69.6604 66.6212 70.1816 66.5861 70.6853 66.709C71.189 66.832 71.6516 67.1073 72.0733 67.5465C72.4891 67.9799 72.7468 68.4543 72.8463 68.9579C72.9459 69.4674 72.8873 69.9828 72.6765 70.5157C72.4657 71.0487 72.0967 71.5641 71.5755 72.0677L69.76 73.8129L69.7541 72.8466L71.88 75.0604L70.779 76.1087ZM69.8713 72.9579L68.8698 72.8818L70.6385 71.1892C71.1245 70.7266 71.3881 70.2698 71.4349 69.8305C71.4818 69.3913 71.3295 68.9813 70.9723 68.6124C70.615 68.2434 70.2168 68.0677 69.7717 68.097C69.3325 68.1263 68.8639 68.3723 68.3779 68.8408L66.6092 70.5333L66.5741 69.5319L69.8713 72.9579Z" fill="white"/>
<path d="M75.5579 71.4586L73.596 62.6856L74.7965 61.7896L82.6735 66.1351L81.3909 67.0956L74.4276 63.0722L74.9137 62.7091L76.8053 70.5275L75.5579 71.4586ZM75.7746 68.9228L75.3939 67.7164L78.9312 65.0692L79.9737 65.7779L75.7746 68.9228Z" fill="white"/>
<path d="M83.5871 65.6314L79.5813 58.4807L82.7789 56.6886C83.5871 56.2318 84.3074 56.0386 84.9341 56.103C85.5607 56.1674 86.041 56.5012 86.3806 57.0986C86.7027 57.6784 86.7437 58.2464 86.4978 58.8028C86.2518 59.3592 85.7657 59.8336 85.0512 60.2376L85.0454 59.7691C85.8418 59.324 86.5446 59.1366 87.1595 59.201C87.7686 59.2713 88.2488 59.6051 88.5885 60.2142C88.9399 60.8409 88.9868 61.4558 88.7232 62.0649C88.4597 62.6739 87.8857 63.2244 86.9839 63.7281L83.5871 65.6314ZM82.6032 60.7823L84.3836 59.7867C84.8111 59.5466 85.0922 59.2772 85.2211 58.9785C85.3499 58.6798 85.3206 58.3694 85.1332 58.0356C84.9458 57.7018 84.694 57.5144 84.3719 57.4675C84.0498 57.4207 83.6749 57.5202 83.2474 57.7604L81.4671 58.756L82.6032 60.7823ZM84.3309 63.8687L86.3631 62.7266C86.8316 62.4631 87.1361 62.1761 87.2767 61.8716C87.4114 61.5671 87.3821 61.2274 87.1713 60.8643C86.978 60.5188 86.7145 60.3196 86.3806 60.2786C86.0468 60.2376 85.6486 60.3489 85.1742 60.6125L83.142 61.7545L84.3309 63.8687Z" fill="white"/>
<path d="M94.65 60.2845C94.0585 60.5129 93.4728 60.63 92.893 60.63C92.3074 60.63 91.7627 60.5246 91.2532 60.3138C90.7437 60.1029 90.2928 59.7984 89.9062 59.4002C89.5138 59.0019 89.2152 58.5276 88.9926 57.9653C88.7701 57.3973 88.6705 56.835 88.6881 56.2787C88.7057 55.7223 88.8286 55.1952 89.0629 54.6974C89.2972 54.1996 89.6251 53.7545 90.0526 53.3622C90.4802 52.9698 90.9897 52.6594 91.587 52.4251C92.1785 52.1967 92.7583 52.0796 93.3381 52.0737C93.912 52.0737 94.4567 52.1733 94.9604 52.3841C95.464 52.595 95.915 52.8995 96.3015 53.2977C96.6939 53.696 96.9984 54.1821 97.221 54.7501C97.4435 55.3182 97.5431 55.8804 97.5255 56.4368C97.5079 56.9932 97.3849 57.5202 97.1565 58.018C96.9281 58.5158 96.6002 58.9609 96.1727 59.3533C95.751 59.7457 95.2415 60.0561 94.65 60.2845ZM94.1639 59.0429C94.5504 58.8907 94.8784 58.6915 95.1536 58.4339C95.4289 58.1762 95.6339 57.8833 95.7803 57.5495C95.9267 57.2157 96.0028 56.8585 96.0087 56.4778C96.0145 56.0971 95.9442 55.7106 95.792 55.3182C95.6397 54.9258 95.4347 54.592 95.1712 54.3168C94.9135 54.0415 94.6148 53.8307 94.2752 53.6843C93.9355 53.5378 93.5841 53.4676 93.2093 53.4617C92.8345 53.4559 92.4538 53.532 92.0673 53.6784C91.6807 53.8307 91.3469 54.0356 91.0717 54.2933C90.7906 54.551 90.5797 54.8497 90.4333 55.1894C90.2869 55.529 90.2108 55.8863 90.199 56.2611C90.1873 56.6418 90.2576 57.0224 90.4099 57.4148C90.5622 57.8014 90.7671 58.1293 91.0365 58.4046C91.3059 58.6798 91.6046 58.8907 91.9384 59.0371C92.2722 59.1893 92.6353 59.2655 93.016 59.2655C93.3967 59.2655 93.7832 59.1893 94.1639 59.0429Z" fill="white"/>
<path d="M64.8113 83.3238L58.3984 78.217L62.9313 72.5245L69.3442 77.6314L68.4013 78.8144L62.7029 74.2756L63.2183 74.2346L60.1319 78.1116L60.0558 77.6021L65.7542 82.1408L64.8113 83.3238Z" stroke="white" stroke-miterlimit="10"/>
<path d="M70.779 76.1087L65.1041 70.1936L67.5404 67.8569C68.0616 67.3533 68.5945 67.0077 69.1275 66.8145C69.6604 66.6212 70.1816 66.5861 70.6853 66.709C71.189 66.832 71.6516 67.1073 72.0733 67.5465C72.4891 67.9799 72.7468 68.4543 72.8463 68.9579C72.9459 69.4674 72.8873 69.9828 72.6765 70.5157C72.4657 71.0487 72.0967 71.5641 71.5755 72.0677L69.76 73.8129L69.7541 72.8466L71.88 75.0604L70.779 76.1087ZM69.8713 72.9579L68.8698 72.8818L70.6385 71.1892C71.1245 70.7266 71.3881 70.2698 71.4349 69.8305C71.4818 69.3913 71.3295 68.9813 70.9723 68.6124C70.615 68.2434 70.2168 68.0677 69.7717 68.097C69.3325 68.1263 68.8639 68.3723 68.3779 68.8408L66.6092 70.5333L66.5741 69.5319L69.8713 72.9579Z" stroke="white" stroke-miterlimit="10"/>
<path d="M75.5579 71.4586L73.596 62.6856L74.7965 61.7896L82.6735 66.1351L81.3909 67.0956L74.4276 63.0722L74.9137 62.7091L76.8053 70.5275L75.5579 71.4586ZM75.7746 68.9228L75.3939 67.7164L78.9312 65.0692L79.9737 65.7779L75.7746 68.9228Z" stroke="white" stroke-miterlimit="10"/>
<path d="M83.5871 65.6314L79.5813 58.4807L82.7789 56.6886C83.5871 56.2318 84.3074 56.0386 84.9341 56.103C85.5607 56.1674 86.041 56.5012 86.3806 57.0986C86.7027 57.6784 86.7437 58.2464 86.4978 58.8028C86.2518 59.3592 85.7657 59.8336 85.0512 60.2376L85.0454 59.7691C85.8418 59.324 86.5446 59.1366 87.1595 59.201C87.7686 59.2713 88.2488 59.6051 88.5885 60.2142C88.9399 60.8409 88.9868 61.4558 88.7232 62.0649C88.4597 62.6739 87.8857 63.2244 86.9839 63.7281L83.5871 65.6314ZM82.6032 60.7823L84.3836 59.7867C84.8111 59.5466 85.0922 59.2772 85.2211 58.9785C85.3499 58.6798 85.3206 58.3694 85.1332 58.0356C84.9458 57.7018 84.694 57.5144 84.3719 57.4675C84.0498 57.4207 83.6749 57.5202 83.2474 57.7604L81.4671 58.756L82.6032 60.7823ZM84.3309 63.8687L86.3631 62.7266C86.8316 62.4631 87.1361 62.1761 87.2767 61.8716C87.4114 61.5671 87.3821 61.2274 87.1713 60.8643C86.978 60.5188 86.7145 60.3196 86.3806 60.2786C86.0468 60.2376 85.6486 60.3489 85.1742 60.6125L83.142 61.7545L84.3309 63.8687Z" stroke="white" stroke-miterlimit="10"/>
<path d="M94.65 60.2845C94.0585 60.5129 93.4728 60.63 92.893 60.63C92.3074 60.63 91.7627 60.5246 91.2532 60.3138C90.7437 60.1029 90.2928 59.7984 89.9062 59.4002C89.5138 59.0019 89.2152 58.5276 88.9926 57.9653C88.7701 57.3973 88.6705 56.835 88.6881 56.2787C88.7057 55.7223 88.8286 55.1952 89.0629 54.6974C89.2972 54.1996 89.6251 53.7545 90.0526 53.3622C90.4802 52.9698 90.9897 52.6594 91.587 52.4251C92.1785 52.1967 92.7583 52.0796 93.3381 52.0737C93.912 52.0737 94.4567 52.1733 94.9604 52.3841C95.464 52.595 95.915 52.8995 96.3015 53.2977C96.6939 53.696 96.9984 54.1821 97.221 54.7501C97.4435 55.3182 97.5431 55.8804 97.5255 56.4368C97.5079 56.9932 97.3849 57.5202 97.1565 58.018C96.9281 58.5158 96.6002 58.9609 96.1727 59.3533C95.751 59.7457 95.2415 60.0561 94.65 60.2845ZM94.1639 59.0429C94.5504 58.8907 94.8784 58.6915 95.1536 58.4339C95.4289 58.1762 95.6339 57.8833 95.7803 57.5495C95.9267 57.2157 96.0028 56.8585 96.0087 56.4778C96.0145 56.0971 95.9442 55.7106 95.792 55.3182C95.6397 54.9258 95.4347 54.592 95.1712 54.3168C94.9135 54.0415 94.6148 53.8307 94.2752 53.6843C93.9355 53.5378 93.5841 53.4676 93.2093 53.4617C92.8345 53.4559 92.4538 53.532 92.0673 53.6784C91.6807 53.8307 91.3469 54.0356 91.0717 54.2933C90.7906 54.551 90.5797 54.8497 90.4333 55.1894C90.2869 55.529 90.2108 55.8863 90.199 56.2611C90.1873 56.6418 90.2576 57.0224 90.4099 57.4148C90.5622 57.8014 90.7671 58.1293 91.0365 58.4046C91.3059 58.6798 91.6046 58.8907 91.9384 59.0371C92.2722 59.1893 92.6353 59.2655 93.016 59.2655C93.3967 59.2655 93.7832 59.1893 94.1639 59.0429Z" stroke="white" stroke-miterlimit="10"/>
<path d="M163.253 67.6461L162.217 66.5861L167.909 61.0107L168.946 62.0649L163.253 67.6461ZM168.659 68.2786L165.619 65.1747L166.521 64.2904L169.567 67.3943L168.659 68.2786ZM171.827 65.0107L172.852 66.059L167.16 71.6344L166.135 70.5861L171.827 65.0107Z" fill="#373735"/>
<path d="M170.351 73.6256L173.081 77.198L172.085 77.9594L168.454 73.2098L174.785 68.3723L178.316 72.9931L177.321 73.7544L174.685 70.3108L170.351 73.6256ZM172.987 71.4704L175.394 74.6153L174.428 75.3532L172.021 72.2083L172.987 71.4704Z" fill="#373735"/>
<path d="M170.966 79.1892L173.514 77.7075L177.988 85.3385L175.447 86.8319L174.755 85.6548L176.22 84.7939L173.127 79.523L171.663 80.3781L170.966 79.1892ZM176.179 83.3707L181.385 80.3195L179.81 77.6255L178.562 78.2873C178.094 78.545 177.649 78.7676 177.209 78.9667C176.776 79.1658 176.372 79.3239 175.997 79.4469C175.622 79.5699 175.283 79.6343 174.984 79.6285C174.685 79.6285 174.445 79.5523 174.258 79.4059L173.649 77.9184C173.789 78.1702 173.994 78.3225 174.269 78.381C174.545 78.4337 174.873 78.4103 175.253 78.3108C175.634 78.2112 176.061 78.0531 176.53 77.8422C176.999 77.6314 177.502 77.3796 178.035 77.0926L180.249 75.8979L183.201 80.9344L176.917 84.6182L176.179 83.3707Z" fill="#373735"/>
<path d="M177.367 87.0603L184.706 83.9505L186.094 87.2302C186.445 88.0618 186.556 88.7763 186.427 89.3736C186.299 89.971 185.924 90.4044 185.309 90.662C184.717 90.9139 184.161 90.8904 183.651 90.5918C183.142 90.2931 182.732 89.7777 182.422 89.0398L182.873 89.0808C183.218 89.9007 183.323 90.5976 183.195 91.1833C183.06 91.7689 182.685 92.1906 182.064 92.4541C181.42 92.7294 180.823 92.7059 180.266 92.3897C179.71 92.0734 179.236 91.4527 178.843 90.5332L177.367 87.0603ZM178.99 87.9681L179.874 90.053C180.079 90.5332 180.319 90.8612 180.6 91.0251C180.881 91.1891 181.209 91.195 181.584 91.031C181.941 90.8787 182.158 90.6445 182.234 90.3282C182.31 90.012 182.246 89.6137 182.041 89.1277L181.157 87.0427L178.99 87.9681ZM182.152 86.6269L182.925 88.4483C183.113 88.8875 183.341 89.1862 183.616 89.3443C183.892 89.5025 184.196 89.5083 184.536 89.3619C184.881 89.2155 185.086 88.993 185.162 88.6884C185.239 88.3839 185.186 88.0149 184.998 87.5698L184.225 85.7485L182.152 86.6269Z" fill="#373735"/>
<path d="M180.501 94.7264L188.179 92.6005L188.571 94.0178L183.119 95.5288L189.713 98.1408L190.082 99.4702L182.404 101.596L182.012 100.179L187.452 98.6737L180.87 96.0676L180.501 94.7264Z" fill="#373735"/>
<path d="M182.972 104.284L182.779 102.586L187.675 104.835L187.095 106.152L182.972 104.284ZM183.517 109.081L183.353 107.646L191.271 106.738L191.435 108.173L183.517 109.081ZM183.903 112.431L187.493 109.672L188.36 110.843L184.097 114.141L183.903 112.431ZM186.738 107.693L186.463 105.297L187.716 105.157L187.991 107.552L186.738 107.693ZM186.808 108.267L188.061 108.126L188.337 110.51L187.083 110.656L186.808 108.267ZM186.884 104.846L190.714 101.854L190.896 103.412L187.224 106.17L186.884 104.846ZM187.587 110.996L187.61 109.619L191.81 111.499L191.985 113.051L187.587 110.996Z" fill="#373735"/>
<path d="M183.956 114.931L191.921 115.23L191.868 116.7L186.217 116.489L191.71 120.975L191.657 122.351L183.692 122.053L183.745 120.583L189.385 120.794L183.903 116.319L183.956 114.931Z" fill="#373735"/>
<path d="M183.528 124.038L191.364 125.49L191.142 126.685L184.788 129.051L184.905 128.425L190 132.864L189.777 134.053L181.936 132.624L182.193 131.224L187.868 132.272L187.815 132.565L183.552 128.823L183.675 128.161L189.004 126.141L188.94 126.486L183.265 125.438L183.528 124.038Z" fill="#373735"/>
<path d="M180.067 138C180.266 137.42 180.553 136.911 180.916 136.483C181.285 136.05 181.707 135.716 182.181 135.47C182.662 135.224 183.171 135.083 183.71 135.048C184.249 135.013 184.793 135.089 185.344 135.277C185.906 135.47 186.386 135.751 186.785 136.114C187.183 136.477 187.493 136.905 187.716 137.391C187.938 137.877 188.061 138.404 188.079 138.96C188.102 139.523 188.009 140.096 187.81 140.682C187.61 141.262 187.329 141.766 186.966 142.199C186.603 142.626 186.187 142.966 185.713 143.206C185.239 143.446 184.729 143.587 184.19 143.622C183.646 143.657 183.095 143.581 182.539 143.388C181.976 143.195 181.502 142.913 181.098 142.55C180.694 142.187 180.384 141.766 180.161 141.279C179.933 140.793 179.81 140.272 179.792 139.716C179.774 139.154 179.862 138.586 180.067 138ZM181.291 138.427C181.162 138.808 181.104 139.177 181.121 139.54C181.139 139.903 181.227 140.243 181.379 140.565C181.531 140.881 181.748 141.162 182.023 141.408C182.299 141.654 182.632 141.842 183.019 141.976C183.405 142.111 183.786 142.17 184.149 142.152C184.518 142.135 184.858 142.047 185.18 141.889C185.496 141.73 185.777 141.514 186.017 141.238C186.258 140.963 186.445 140.635 186.574 140.255C186.703 139.874 186.761 139.499 186.75 139.13C186.732 138.761 186.644 138.416 186.486 138.094C186.328 137.771 186.111 137.49 185.842 137.244C185.572 136.998 185.239 136.805 184.852 136.676C184.471 136.542 184.097 136.489 183.728 136.518C183.359 136.542 183.013 136.629 182.691 136.788C182.369 136.94 182.088 137.157 181.848 137.438C181.608 137.713 181.42 138.047 181.291 138.427Z" fill="#373735"/>
<path d="M176.401 146.597C176.676 146.047 177.016 145.584 177.432 145.215C177.842 144.84 178.299 144.571 178.802 144.395C179.306 144.219 179.827 144.143 180.36 144.178C180.899 144.208 181.432 144.36 181.971 144.629C182.509 144.899 182.949 145.238 183.294 145.648C183.64 146.058 183.892 146.521 184.05 147.031C184.208 147.546 184.261 148.073 184.214 148.629C184.167 149.186 183.997 149.73 183.728 150.281C183.435 150.861 183.066 151.347 182.627 151.727C182.187 152.108 181.684 152.366 181.127 152.501L180.753 151.241C181.162 151.118 181.52 150.931 181.818 150.679C182.117 150.427 182.357 150.123 182.539 149.754C182.726 149.379 182.837 149.01 182.867 148.641C182.896 148.272 182.861 147.915 182.75 147.575C182.638 147.236 182.463 146.925 182.222 146.644C181.982 146.363 181.678 146.129 181.309 145.947C180.94 145.766 180.571 145.66 180.202 145.637C179.833 145.613 179.482 145.66 179.142 145.771C178.802 145.889 178.498 146.07 178.223 146.316C177.947 146.562 177.713 146.872 177.526 147.247C177.344 147.616 177.239 147.991 177.221 148.378C177.204 148.764 177.268 149.162 177.42 149.572L176.19 150.023C175.962 149.496 175.868 148.94 175.903 148.354C175.933 147.774 176.102 147.189 176.401 146.597Z" fill="#373735"/>
<path d="M173.555 151.804L179.499 155.651L179.001 155.751L180.624 153.244L181.678 153.924L178.018 159.581L176.963 158.902L178.586 156.395L178.709 156.869L172.764 153.022L173.555 151.804Z" fill="#373735"/>
<path d="M172.413 162.304C171.81 163.042 171.177 163.481 170.521 163.61C169.865 163.739 169.209 163.54 168.553 163.001C167.857 162.433 167.517 161.789 167.517 161.057C167.523 160.325 167.845 159.569 168.483 158.79L170.656 156.126L176.829 161.168L175.897 162.304L173.807 160.6L172.413 162.304ZM169.409 159.452C169.051 159.891 168.87 160.319 168.876 160.729C168.881 161.139 169.081 161.508 169.473 161.83C169.859 162.146 170.24 162.257 170.615 162.158C170.99 162.058 171.359 161.789 171.722 161.344L172.922 159.874L170.603 157.982L169.409 159.452Z" fill="#373735"/>
<path d="M163.253 67.6461L162.217 66.5861L167.909 61.0107L168.946 62.0649L163.253 67.6461ZM168.659 68.2786L165.619 65.1747L166.521 64.2904L169.567 67.3943L168.659 68.2786ZM171.827 65.0107L172.852 66.059L167.16 71.6344L166.135 70.5861L171.827 65.0107Z" stroke="#373735" stroke-width="0.75" stroke-miterlimit="10"/>
<path d="M170.351 73.6256L173.081 77.198L172.085 77.9594L168.454 73.2098L174.785 68.3723L178.316 72.9931L177.321 73.7544L174.685 70.3108L170.351 73.6256ZM172.987 71.4704L175.394 74.6153L174.428 75.3532L172.021 72.2083L172.987 71.4704Z" stroke="#373735" stroke-width="0.75" stroke-miterlimit="10"/>
<path d="M170.966 79.1892L173.514 77.7075L177.988 85.3385L175.447 86.8319L174.755 85.6548L176.22 84.7939L173.127 79.523L171.663 80.3781L170.966 79.1892ZM176.179 83.3707L181.385 80.3195L179.81 77.6255L178.562 78.2873C178.094 78.545 177.649 78.7676 177.209 78.9667C176.776 79.1658 176.372 79.3239 175.997 79.4469C175.622 79.5699 175.283 79.6343 174.984 79.6285C174.685 79.6285 174.445 79.5523 174.258 79.4059L173.649 77.9184C173.789 78.1702 173.994 78.3225 174.269 78.381C174.545 78.4337 174.873 78.4103 175.253 78.3108C175.634 78.2112 176.061 78.0531 176.53 77.8422C176.999 77.6314 177.502 77.3796 178.035 77.0926L180.249 75.8979L183.201 80.9344L176.917 84.6182L176.179 83.3707Z" stroke="#373735" stroke-width="0.75" stroke-miterlimit="10"/>
<path d="M177.367 87.0603L184.706 83.9505L186.094 87.2302C186.445 88.0618 186.556 88.7763 186.427 89.3736C186.299 89.971 185.924 90.4044 185.309 90.662C184.717 90.9139 184.161 90.8904 183.651 90.5918C183.142 90.2931 182.732 89.7777 182.422 89.0398L182.873 89.0808C183.218 89.9007 183.323 90.5976 183.195 91.1833C183.06 91.7689 182.685 92.1906 182.064 92.4541C181.42 92.7294 180.823 92.7059 180.266 92.3897C179.71 92.0734 179.236 91.4527 178.843 90.5332L177.367 87.0603ZM178.99 87.9681L179.874 90.053C180.079 90.5332 180.319 90.8612 180.6 91.0251C180.881 91.1891 181.209 91.195 181.584 91.031C181.941 90.8787 182.158 90.6445 182.234 90.3282C182.31 90.012 182.246 89.6137 182.041 89.1277L181.157 87.0427L178.99 87.9681ZM182.152 86.6269L182.925 88.4483C183.113 88.8875 183.341 89.1862 183.616 89.3443C183.892 89.5025 184.196 89.5083 184.536 89.3619C184.881 89.2155 185.086 88.993 185.162 88.6884C185.239 88.3839 185.186 88.0149 184.998 87.5698L184.225 85.7485L182.152 86.6269Z" stroke="#373735" stroke-width="0.75" stroke-miterlimit="10"/>
<path d="M180.501 94.7264L188.179 92.6005L188.571 94.0178L183.119 95.5288L189.713 98.1408L190.082 99.4702L182.404 101.596L182.012 100.179L187.452 98.6737L180.87 96.0676L180.501 94.7264Z" stroke="#373735" stroke-width="0.75" stroke-miterlimit="10"/>
<path d="M182.972 104.284L182.779 102.586L187.675 104.835L187.095 106.152L182.972 104.284ZM183.517 109.081L183.353 107.646L191.271 106.738L191.435 108.173L183.517 109.081ZM183.903 112.431L187.493 109.672L188.36 110.843L184.097 114.141L183.903 112.431ZM186.738 107.693L186.463 105.297L187.716 105.157L187.991 107.552L186.738 107.693ZM186.808 108.267L188.061 108.126L188.337 110.51L187.083 110.656L186.808 108.267ZM186.884 104.846L190.714 101.854L190.896 103.412L187.224 106.17L186.884 104.846ZM187.587 110.996L187.61 109.619L191.81 111.499L191.985 113.051L187.587 110.996Z" stroke="#373735" stroke-width="0.75" stroke-miterlimit="10"/>
<path d="M183.956 114.931L191.921 115.23L191.868 116.7L186.217 116.489L191.71 120.975L191.657 122.351L183.692 122.053L183.745 120.583L189.385 120.794L183.903 116.319L183.956 114.931Z" stroke="#373735" stroke-width="0.75" stroke-miterlimit="10"/>
<path d="M183.528 124.038L191.364 125.49L191.142 126.685L184.788 129.051L184.905 128.425L190 132.864L189.777 134.053L181.936 132.624L182.193 131.224L187.868 132.272L187.815 132.565L183.552 128.823L183.675 128.161L189.004 126.141L188.94 126.486L183.265 125.438L183.528 124.038Z" stroke="#373735" stroke-width="0.75" stroke-miterlimit="10"/>
<path d="M180.067 138C180.266 137.42 180.553 136.911 180.916 136.483C181.285 136.05 181.707 135.716 182.181 135.47C182.662 135.224 183.171 135.083 183.71 135.048C184.249 135.013 184.793 135.089 185.344 135.277C185.906 135.47 186.386 135.751 186.785 136.114C187.183 136.477 187.493 136.905 187.716 137.391C187.938 137.877 188.061 138.404 188.079 138.96C188.102 139.523 188.009 140.096 187.81 140.682C187.61 141.262 187.329 141.766 186.966 142.199C186.603 142.626 186.187 142.966 185.713 143.206C185.239 143.446 184.729 143.587 184.19 143.622C183.646 143.657 183.095 143.581 182.539 143.388C181.976 143.195 181.502 142.913 181.098 142.55C180.694 142.187 180.384 141.766 180.161 141.279C179.933 140.793 179.81 140.272 179.792 139.716C179.774 139.154 179.862 138.586 180.067 138ZM181.291 138.427C181.162 138.808 181.104 139.177 181.121 139.54C181.139 139.903 181.227 140.243 181.379 140.565C181.531 140.881 181.748 141.162 182.023 141.408C182.299 141.654 182.632 141.842 183.019 141.976C183.405 142.111 183.786 142.17 184.149 142.152C184.518 142.135 184.858 142.047 185.18 141.889C185.496 141.73 185.777 141.514 186.017 141.238C186.258 140.963 186.445 140.635 186.574 140.255C186.703 139.874 186.761 139.499 186.75 139.13C186.732 138.761 186.644 138.416 186.486 138.094C186.328 137.771 186.111 137.49 185.842 137.244C185.572 136.998 185.239 136.805 184.852 136.676C184.471 136.542 184.097 136.489 183.728 136.518C183.359 136.542 183.013 136.629 182.691 136.788C182.369 136.94 182.088 137.157 181.848 137.438C181.608 137.713 181.42 138.047 181.291 138.427Z" stroke="#373735" stroke-width="0.75" stroke-miterlimit="10"/>
<path d="M176.401 146.597C176.676 146.047 177.016 145.584 177.432 145.215C177.842 144.84 178.299 144.571 178.802 144.395C179.306 144.219 179.827 144.143 180.36 144.178C180.899 144.208 181.432 144.36 181.971 144.629C182.509 144.899 182.949 145.238 183.294 145.648C183.64 146.058 183.892 146.521 184.05 147.031C184.208 147.546 184.261 148.073 184.214 148.629C184.167 149.186 183.997 149.73 183.728 150.281C183.435 150.861 183.066 151.347 182.627 151.727C182.187 152.108 181.684 152.366 181.127 152.501L180.753 151.241C181.162 151.118 181.52 150.931 181.818 150.679C182.117 150.427 182.357 150.123 182.539 149.754C182.726 149.379 182.837 149.01 182.867 148.641C182.896 148.272 182.861 147.915 182.75 147.575C182.638 147.236 182.463 146.925 182.222 146.644C181.982 146.363 181.678 146.129 181.309 145.947C180.94 145.766 180.571 145.66 180.202 145.637C179.833 145.613 179.482 145.66 179.142 145.771C178.802 145.889 178.498 146.07 178.223 146.316C177.947 146.562 177.713 146.872 177.526 147.247C177.344 147.616 177.239 147.991 177.221 148.378C177.204 148.764 177.268 149.162 177.42 149.572L176.19 150.023C175.962 149.496 175.868 148.94 175.903 148.354C175.933 147.774 176.102 147.189 176.401 146.597Z" stroke="#373735" stroke-width="0.75" stroke-miterlimit="10"/>
<path d="M173.555 151.804L179.499 155.651L179.001 155.751L180.624 153.244L181.678 153.924L178.018 159.581L176.963 158.902L178.586 156.395L178.709 156.869L172.764 153.022L173.555 151.804Z" stroke="#373735" stroke-width="0.75" stroke-miterlimit="10"/>
<path d="M172.413 162.304C171.81 163.042 171.177 163.481 170.521 163.61C169.865 163.739 169.209 163.54 168.553 163.001C167.857 162.433 167.517 161.789 167.517 161.057C167.523 160.325 167.845 159.569 168.483 158.79L170.656 156.126L176.829 161.168L175.897 162.304L173.807 160.6L172.413 162.304ZM169.409 159.452C169.051 159.891 168.87 160.319 168.876 160.729C168.881 161.139 169.081 161.508 169.473 161.83C169.859 162.146 170.24 162.257 170.615 162.158C170.99 162.058 171.359 161.789 171.722 161.344L172.922 159.874L170.603 157.982L169.409 159.452Z" stroke="#373735" stroke-width="0.75" stroke-miterlimit="10"/>
<path d="M72.0483 171.827C71.2987 171.124 70.7482 170.421 70.4144 169.724C70.0806 169.027 69.9517 168.354 70.0337 167.704C70.1157 167.054 70.4203 166.451 70.9415 165.894C71.4627 165.338 72.0483 164.992 72.6926 164.863C73.3368 164.735 74.022 164.817 74.7365 165.104C75.4568 165.391 76.1889 165.888 76.9444 166.591C76.9561 166.603 76.9795 166.626 77.0205 166.661C77.0615 166.696 77.1025 166.737 77.1493 166.784C77.1962 166.825 77.2196 166.849 77.2255 166.855C77.9751 167.557 78.5197 168.26 78.8477 168.951C79.1757 169.642 79.2928 170.316 79.205 170.96C79.1171 171.604 78.8067 172.207 78.2796 172.77C77.7643 173.314 77.1903 173.66 76.552 173.8C75.9136 173.941 75.2401 173.871 74.5373 173.59C73.8346 173.308 73.1084 172.822 72.3705 172.125C72.3587 172.114 72.3295 172.084 72.2826 172.043C72.2358 171.997 72.183 171.95 72.1362 171.909C72.0893 171.862 72.0601 171.833 72.0483 171.827ZM71.0703 172.096L77.1201 165.631L78.1449 166.591L72.0952 173.057L71.0703 172.096ZM72.962 171.071C72.9737 171.083 72.9912 171.101 73.0147 171.118C73.0381 171.142 73.0498 171.153 73.0557 171.159C73.6062 171.674 74.1333 172.043 74.6311 172.26C75.1289 172.477 75.5974 172.541 76.0366 172.459C76.4758 172.377 76.8741 172.143 77.2372 171.751C77.5944 171.37 77.7994 170.96 77.8404 170.521C77.8872 170.082 77.7877 169.625 77.5359 169.144C77.2899 168.664 76.8916 168.172 76.3528 167.669C76.347 167.663 76.3294 167.645 76.3001 167.622C76.2709 167.593 76.2533 167.575 76.2416 167.563C75.6794 167.036 75.1406 166.656 74.6369 166.421C74.1333 166.187 73.6647 166.111 73.2314 166.193C72.798 166.275 72.3939 166.509 72.0308 166.901C71.6677 167.288 71.4627 167.71 71.4217 168.161C71.3807 168.612 71.4861 169.08 71.7497 169.566C72.0132 170.052 72.4114 170.562 72.962 171.071Z" fill="white"/>
<path d="M77.2723 177.092L81.9341 170.345L83.1756 171.206L79.8667 175.997L86.8008 173.713L87.9662 174.521L83.3045 181.267L82.0629 180.406L85.366 175.628L78.4495 177.912L77.2723 177.092Z" fill="white"/>
<path d="M87.1463 183.411L85.7876 182.726L89.4713 175.399L90.83 176.084L87.1463 183.411ZM92.6163 182.228L88.6163 180.219L89.2019 179.059L93.2019 181.068L92.6163 182.228ZM94.6133 177.988L95.9662 178.667L92.2883 185.994L90.9355 185.314L94.6133 177.988Z" fill="white"/>
<path d="M93.9633 186.761L100.107 180.196L101.524 180.682L102.373 189.636L100.856 189.115L100.259 181.098L100.833 181.297L95.4391 187.264L93.9633 186.761ZM96.1828 185.513L96.9676 184.518L101.143 185.947V187.212L96.1828 185.513Z" fill="white"/>
<path d="M105.641 190.345L104.148 190.052L105.723 182.005L107.216 182.298L105.641 190.345ZM110.596 187.739L106.203 186.878L106.455 185.601L110.847 186.462L110.596 187.739ZM111.38 183.118L112.862 183.411L111.287 191.458L109.805 191.165L111.38 183.118Z" fill="white"/>
<path d="M117.887 192.137C117.254 192.096 116.68 191.955 116.165 191.715C115.65 191.475 115.205 191.153 114.836 190.743C114.467 190.339 114.191 189.871 114.004 189.355C113.817 188.834 113.746 188.266 113.782 187.651C113.823 187.036 113.963 186.48 114.215 185.988C114.467 185.496 114.801 185.068 115.222 184.711C115.644 184.354 116.124 184.09 116.669 183.914C117.213 183.739 117.799 183.674 118.432 183.715C119.099 183.756 119.708 183.915 120.247 184.178C120.786 184.442 121.231 184.816 121.582 185.291L120.54 186.152C120.259 185.812 119.937 185.554 119.579 185.367C119.222 185.185 118.836 185.08 118.414 185.051C117.986 185.021 117.588 185.068 117.225 185.185C116.862 185.302 116.54 185.484 116.265 185.724C115.989 185.964 115.761 186.257 115.591 186.597C115.421 186.936 115.322 187.317 115.298 187.739C115.269 188.16 115.322 188.553 115.445 188.91C115.568 189.267 115.755 189.589 116.001 189.859C116.247 190.134 116.54 190.351 116.885 190.515C117.231 190.679 117.618 190.772 118.045 190.802C118.467 190.831 118.865 190.772 119.24 190.638C119.615 190.503 119.966 190.28 120.294 189.97L121.219 190.954C120.809 191.381 120.317 191.698 119.749 191.891C119.181 192.084 118.566 192.184 117.887 192.137Z" fill="white"/>
<path d="M126.484 186.556C127.462 186.474 128.235 186.632 128.803 187.024C129.366 187.417 129.688 188.049 129.758 188.922C129.834 189.841 129.594 190.556 129.049 191.077C128.505 191.598 127.714 191.897 126.677 191.979L123.152 192.266L122.49 184.096L123.995 183.973L124.218 186.737L126.484 186.556ZM126.508 190.819C127.093 190.772 127.533 190.597 127.837 190.298C128.136 189.999 128.265 189.589 128.224 189.068C128.183 188.553 127.989 188.196 127.656 187.985C127.322 187.774 126.853 187.698 126.262 187.745L124.311 187.903L124.557 190.972L126.508 190.819ZM131.146 191.622L130.484 183.452L131.989 183.329L132.651 191.499L131.146 191.622Z" fill="white"/>
<path d="M72.0483 171.827C71.2987 171.124 70.7482 170.421 70.4144 169.724C70.0806 169.027 69.9517 168.354 70.0337 167.704C70.1157 167.054 70.4203 166.451 70.9415 165.894C71.4627 165.338 72.0483 164.992 72.6926 164.863C73.3368 164.735 74.022 164.817 74.7365 165.104C75.4568 165.391 76.1889 165.888 76.9444 166.591C76.9561 166.603 76.9795 166.626 77.0205 166.661C77.0615 166.696 77.1025 166.737 77.1493 166.784C77.1962 166.825 77.2196 166.849 77.2255 166.855C77.9751 167.557 78.5197 168.26 78.8477 168.951C79.1757 169.642 79.2928 170.316 79.205 170.96C79.1171 171.604 78.8067 172.207 78.2796 172.77C77.7643 173.314 77.1903 173.66 76.552 173.8C75.9136 173.941 75.2401 173.871 74.5373 173.59C73.8346 173.308 73.1084 172.822 72.3705 172.125C72.3587 172.114 72.3295 172.084 72.2826 172.043C72.2358 171.997 72.183 171.95 72.1362 171.909C72.0893 171.862 72.0601 171.833 72.0483 171.827ZM71.0703 172.096L77.1201 165.631L78.1449 166.591L72.0952 173.057L71.0703 172.096ZM72.962 171.071C72.9737 171.083 72.9912 171.101 73.0147 171.118C73.0381 171.142 73.0498 171.153 73.0557 171.159C73.6062 171.674 74.1333 172.043 74.6311 172.26C75.1289 172.477 75.5974 172.541 76.0366 172.459C76.4758 172.377 76.8741 172.143 77.2372 171.751C77.5944 171.37 77.7994 170.96 77.8404 170.521C77.8872 170.082 77.7877 169.625 77.5359 169.144C77.2899 168.664 76.8916 168.172 76.3528 167.669C76.347 167.663 76.3294 167.645 76.3001 167.622C76.2709 167.593 76.2533 167.575 76.2416 167.563C75.6794 167.036 75.1406 166.656 74.6369 166.421C74.1333 166.187 73.6647 166.111 73.2314 166.193C72.798 166.275 72.3939 166.509 72.0308 166.901C71.6677 167.288 71.4627 167.71 71.4217 168.161C71.3807 168.612 71.4861 169.08 71.7497 169.566C72.0132 170.052 72.4114 170.562 72.962 171.071Z" stroke="white" stroke-miterlimit="10"/>
<path d="M77.2723 177.092L81.9341 170.345L83.1756 171.206L79.8667 175.997L86.8008 173.713L87.9662 174.521L83.3045 181.267L82.0629 180.406L85.366 175.628L78.4495 177.912L77.2723 177.092Z" stroke="white" stroke-miterlimit="10"/>
<path d="M87.1463 183.411L85.7876 182.726L89.4713 175.399L90.83 176.084L87.1463 183.411ZM92.6163 182.228L88.6163 180.219L89.2019 179.059L93.2019 181.068L92.6163 182.228ZM94.6133 177.988L95.9662 178.667L92.2883 185.994L90.9355 185.314L94.6133 177.988Z" stroke="white" stroke-miterlimit="10"/>
<path d="M93.9633 186.761L100.107 180.196L101.524 180.682L102.373 189.636L100.856 189.115L100.259 181.098L100.833 181.297L95.4391 187.264L93.9633 186.761ZM96.1828 185.513L96.9676 184.518L101.143 185.947V187.212L96.1828 185.513Z" stroke="white" stroke-miterlimit="10"/>
<path d="M105.641 190.345L104.148 190.052L105.723 182.005L107.216 182.298L105.641 190.345ZM110.596 187.739L106.203 186.878L106.455 185.601L110.847 186.462L110.596 187.739ZM111.38 183.118L112.862 183.411L111.287 191.458L109.805 191.165L111.38 183.118Z" stroke="white" stroke-miterlimit="10"/>
<path d="M117.887 192.137C117.254 192.096 116.68 191.955 116.165 191.715C115.65 191.475 115.205 191.153 114.836 190.743C114.467 190.339 114.191 189.871 114.004 189.355C113.817 188.834 113.746 188.266 113.782 187.651C113.823 187.036 113.963 186.48 114.215 185.988C114.467 185.496 114.801 185.068 115.222 184.711C115.644 184.354 116.124 184.09 116.669 183.914C117.213 183.739 117.799 183.674 118.432 183.715C119.099 183.756 119.708 183.915 120.247 184.178C120.786 184.442 121.231 184.816 121.582 185.291L120.54 186.152C120.259 185.812 119.937 185.554 119.579 185.367C119.222 185.185 118.836 185.08 118.414 185.051C117.986 185.021 117.588 185.068 117.225 185.185C116.862 185.302 116.54 185.484 116.265 185.724C115.989 185.964 115.761 186.257 115.591 186.597C115.421 186.936 115.322 187.317 115.298 187.739C115.269 188.16 115.322 188.553 115.445 188.91C115.568 189.267 115.755 189.589 116.001 189.859C116.247 190.134 116.54 190.351 116.885 190.515C117.231 190.679 117.618 190.772 118.045 190.802C118.467 190.831 118.865 190.772 119.24 190.638C119.615 190.503 119.966 190.28 120.294 189.97L121.219 190.954C120.809 191.381 120.317 191.698 119.749 191.891C119.181 192.084 118.566 192.184 117.887 192.137Z" stroke="white" stroke-miterlimit="10"/>
<path d="M126.484 186.556C127.462 186.474 128.235 186.632 128.803 187.024C129.366 187.417 129.688 188.049 129.758 188.922C129.834 189.841 129.594 190.556 129.049 191.077C128.505 191.598 127.714 191.897 126.677 191.979L123.152 192.266L122.49 184.096L123.995 183.973L124.218 186.737L126.484 186.556ZM126.508 190.819C127.093 190.772 127.533 190.597 127.837 190.298C128.136 189.999 128.265 189.589 128.224 189.068C128.183 188.553 127.989 188.196 127.656 187.985C127.322 187.774 126.853 187.698 126.262 187.745L124.311 187.903L124.557 190.972L126.508 190.819ZM131.146 191.622L130.484 183.452L131.989 183.329L132.651 191.499L131.146 191.622Z" stroke="white" stroke-miterlimit="10"/>
<path d="M82.6196 105.783H98.6956L101.741 137.127H95.0236L94.3501 129.736H86.9592L86.2857 137.127H79.5742L82.6196 105.783ZM87.5449 123.019H93.7703L92.7864 112.495H88.5346L87.5449 123.019Z" fill="#373735"/>
<path d="M109.442 105.783H126.367V130.41H128.962V141.244H122.244V137.127H110.245V141.244H103.527V130.41H106.127L109.442 105.783ZM112.663 130.41H119.65V112.501H115.129L112.663 130.41Z" fill="#373735"/>
<path d="M132.769 105.783H153.817V115.546H147.099V112.501H139.486V130.41H147.099V127.365H153.817V137.127H132.769V105.783Z" fill="#373735"/>
<path d="M232.07 234.868C232.07 234.401 232.201 233.995 232.462 233.65C232.733 233.295 233.102 233.025 233.568 232.838C234.035 232.642 234.576 232.544 235.192 232.544C235.519 232.544 235.85 232.567 236.186 232.614C236.532 232.661 236.835 232.735 237.096 232.838V232.376C237.096 231.863 236.942 231.461 236.634 231.172C236.326 230.883 235.883 230.738 235.304 230.738C234.894 230.738 234.506 230.813 234.142 230.962C233.778 231.102 233.391 231.303 232.98 231.564L232.462 230.528C232.948 230.201 233.433 229.959 233.918 229.8C234.413 229.641 234.931 229.562 235.472 229.562C236.452 229.562 237.222 229.823 237.782 230.346C238.352 230.859 238.636 231.592 238.636 232.544V235.274C238.636 235.451 238.664 235.577 238.72 235.652C238.786 235.727 238.893 235.769 239.042 235.778V237.01C238.902 237.038 238.776 237.057 238.664 237.066C238.552 237.075 238.459 237.08 238.384 237.08C238.058 237.08 237.81 237.001 237.642 236.842C237.474 236.683 237.376 236.497 237.348 236.282L237.306 235.862C236.989 236.273 236.583 236.59 236.088 236.814C235.594 237.038 235.094 237.15 234.59 237.15C234.105 237.15 233.671 237.052 233.288 236.856C232.906 236.651 232.607 236.375 232.392 236.03C232.178 235.685 232.07 235.297 232.07 234.868ZM236.732 235.316C236.844 235.195 236.933 235.073 236.998 234.952C237.064 234.831 237.096 234.723 237.096 234.63V233.79C236.835 233.687 236.56 233.613 236.27 233.566C235.981 233.51 235.696 233.482 235.416 233.482C234.856 233.482 234.399 233.594 234.044 233.818C233.699 234.042 233.526 234.35 233.526 234.742C233.526 234.957 233.582 235.162 233.694 235.358C233.816 235.554 233.984 235.713 234.198 235.834C234.422 235.955 234.698 236.016 235.024 236.016C235.36 236.016 235.682 235.951 235.99 235.82C236.298 235.689 236.546 235.521 236.732 235.316Z" fill="#282828"/>
<path d="M227.96 237.15C227.391 237.15 226.873 237.052 226.406 236.856C225.949 236.651 225.552 236.371 225.216 236.016C224.88 235.661 224.619 235.255 224.432 234.798C224.255 234.341 224.166 233.855 224.166 233.342C224.166 232.651 224.32 232.021 224.628 231.452C224.945 230.883 225.384 230.425 225.944 230.08C226.513 229.735 227.185 229.562 227.96 229.562C228.707 229.562 229.355 229.73 229.906 230.066C230.466 230.393 230.877 230.831 231.138 231.382L229.64 231.858C229.472 231.55 229.234 231.312 228.926 231.144C228.627 230.967 228.296 230.878 227.932 230.878C227.521 230.878 227.148 230.985 226.812 231.2C226.485 231.405 226.224 231.695 226.028 232.068C225.841 232.432 225.748 232.857 225.748 233.342C225.748 233.809 225.846 234.233 226.042 234.616C226.238 234.989 226.499 235.288 226.826 235.512C227.162 235.727 227.535 235.834 227.946 235.834C228.198 235.834 228.441 235.792 228.674 235.708C228.917 235.615 229.127 235.493 229.304 235.344C229.481 235.185 229.607 235.013 229.682 234.826L231.194 235.274C231.035 235.638 230.797 235.96 230.48 236.24C230.172 236.52 229.803 236.744 229.374 236.912C228.954 237.071 228.483 237.15 227.96 237.15Z" fill="#282828"/>
<path d="M216.012 237.01V229.702H217.552V234.952L221.262 229.688H222.662V237.01H221.122V231.872L217.454 237.01H216.012Z" fill="#282828"/>
<path d="M208.107 237.01V229.688H212.027C212.494 229.688 212.877 229.777 213.175 229.954C213.483 230.122 213.712 230.341 213.861 230.612C214.011 230.873 214.085 231.163 214.085 231.48C214.085 231.881 213.992 232.236 213.805 232.544C213.619 232.852 213.343 233.085 212.979 233.244C213.399 233.365 213.74 233.58 214.001 233.888C214.272 234.187 214.407 234.574 214.407 235.05C214.407 235.479 214.305 235.843 214.099 236.142C213.894 236.431 213.6 236.651 213.217 236.8C212.844 236.94 212.405 237.01 211.901 237.01H208.107ZM209.563 235.946H211.859C212.055 235.946 212.233 235.899 212.391 235.806C212.559 235.703 212.69 235.573 212.783 235.414C212.877 235.246 212.923 235.069 212.923 234.882C212.923 234.677 212.877 234.495 212.783 234.336C212.699 234.177 212.578 234.051 212.419 233.958C212.27 233.865 212.093 233.818 211.887 233.818H209.563V235.946ZM209.563 232.824H211.635C211.831 232.824 212.004 232.777 212.153 232.684C212.303 232.581 212.419 232.446 212.503 232.278C212.587 232.11 212.629 231.933 212.629 231.746C212.629 231.475 212.541 231.242 212.363 231.046C212.186 230.85 211.953 230.752 211.663 230.752H209.563V232.824Z" fill="#282828"/>
<path d="M203.334 237.15C202.746 237.15 202.228 237.01 201.78 236.73C201.332 236.45 200.977 236.086 200.716 235.638V239.992H199.176V229.688H200.534V231.004C200.814 230.565 201.178 230.215 201.626 229.954C202.074 229.693 202.573 229.562 203.124 229.562C203.628 229.562 204.09 229.665 204.51 229.87C204.93 230.066 205.294 230.341 205.602 230.696C205.91 231.051 206.148 231.457 206.316 231.914C206.493 232.362 206.582 232.838 206.582 233.342C206.582 234.042 206.442 234.681 206.162 235.26C205.891 235.839 205.508 236.301 205.014 236.646C204.528 236.982 203.968 237.15 203.334 237.15ZM202.83 235.834C203.156 235.834 203.45 235.764 203.712 235.624C203.982 235.484 204.211 235.297 204.398 235.064C204.594 234.831 204.743 234.565 204.846 234.266C204.948 233.967 205 233.659 205 233.342C205 233.006 204.944 232.689 204.832 232.39C204.72 232.091 204.556 231.83 204.342 231.606C204.136 231.382 203.894 231.205 203.614 231.074C203.343 230.943 203.044 230.878 202.718 230.878C202.522 230.878 202.316 230.915 202.102 230.99C201.887 231.065 201.686 231.167 201.5 231.298C201.313 231.429 201.15 231.583 201.01 231.76C200.87 231.937 200.772 232.124 200.716 232.32V234.238C200.846 234.537 201.019 234.807 201.234 235.05C201.448 235.283 201.696 235.475 201.976 235.624C202.256 235.764 202.54 235.834 202.83 235.834Z" fill="#282828"/>
<path d="M194.028 237.15C193.459 237.15 192.941 237.052 192.474 236.856C192.017 236.651 191.62 236.375 191.284 236.03C190.948 235.675 190.687 235.274 190.5 234.826C190.323 234.369 190.234 233.883 190.234 233.37C190.234 232.679 190.393 232.049 190.71 231.48C191.028 230.901 191.471 230.439 192.04 230.094C192.61 229.739 193.277 229.562 194.042 229.562C194.808 229.562 195.466 229.739 196.016 230.094C196.576 230.439 197.01 230.897 197.318 231.466C197.626 232.035 197.78 232.647 197.78 233.3C197.78 233.412 197.776 233.519 197.766 233.622C197.757 233.715 197.748 233.795 197.738 233.86H191.872C191.9 234.289 192.017 234.667 192.222 234.994C192.437 235.311 192.708 235.563 193.034 235.75C193.361 235.927 193.711 236.016 194.084 236.016C194.495 236.016 194.882 235.913 195.246 235.708C195.62 235.503 195.872 235.232 196.002 234.896L197.318 235.274C197.16 235.629 196.917 235.951 196.59 236.24C196.273 236.52 195.895 236.744 195.456 236.912C195.018 237.071 194.542 237.15 194.028 237.15ZM191.83 232.838H196.254C196.226 232.418 196.105 232.049 195.89 231.732C195.685 231.405 195.419 231.153 195.092 230.976C194.775 230.789 194.42 230.696 194.028 230.696C193.646 230.696 193.291 230.789 192.964 230.976C192.647 231.153 192.386 231.405 192.18 231.732C191.975 232.049 191.858 232.418 191.83 232.838Z" fill="#282828"/>
<path d="M186.136 237.15C185.566 237.15 185.048 237.052 184.582 236.856C184.124 236.651 183.728 236.371 183.392 236.016C183.056 235.661 182.794 235.255 182.608 234.798C182.43 234.341 182.342 233.855 182.342 233.342C182.342 232.651 182.496 232.021 182.804 231.452C183.121 230.883 183.56 230.425 184.12 230.08C184.689 229.735 185.361 229.562 186.136 229.562C186.882 229.562 187.531 229.73 188.082 230.066C188.642 230.393 189.052 230.831 189.314 231.382L187.816 231.858C187.648 231.55 187.41 231.312 187.102 231.144C186.803 230.967 186.472 230.878 186.108 230.878C185.697 230.878 185.324 230.985 184.988 231.2C184.661 231.405 184.4 231.695 184.204 232.068C184.017 232.432 183.924 232.857 183.924 233.342C183.924 233.809 184.022 234.233 184.218 234.616C184.414 234.989 184.675 235.288 185.002 235.512C185.338 235.727 185.711 235.834 186.122 235.834C186.374 235.834 186.616 235.792 186.85 235.708C187.092 235.615 187.302 235.493 187.48 235.344C187.657 235.185 187.783 235.013 187.858 234.826L189.37 235.274C189.211 235.638 188.973 235.96 188.656 236.24C188.348 236.52 187.979 236.744 187.55 236.912C187.13 237.071 186.658 237.15 186.136 237.15Z" fill="#282828"/>
<path d="M173.948 237.15C173.369 237.15 172.851 237.052 172.394 236.856C171.936 236.651 171.54 236.371 171.204 236.016C170.877 235.661 170.625 235.26 170.448 234.812C170.27 234.355 170.182 233.869 170.182 233.356C170.182 232.843 170.27 232.357 170.448 231.9C170.625 231.443 170.877 231.041 171.204 230.696C171.54 230.341 171.936 230.066 172.394 229.87C172.86 229.665 173.378 229.562 173.948 229.562C174.517 229.562 175.03 229.665 175.488 229.87C175.954 230.066 176.351 230.341 176.678 230.696C177.014 231.041 177.27 231.443 177.448 231.9C177.625 232.357 177.714 232.843 177.714 233.356C177.714 233.869 177.625 234.355 177.448 234.812C177.27 235.26 177.014 235.661 176.678 236.016C176.351 236.371 175.954 236.651 175.488 236.856C175.03 237.052 174.517 237.15 173.948 237.15ZM171.764 233.37C171.764 233.837 171.862 234.257 172.058 234.63C172.254 235.003 172.515 235.297 172.842 235.512C173.168 235.727 173.537 235.834 173.948 235.834C174.349 235.834 174.713 235.727 175.04 235.512C175.376 235.288 175.642 234.989 175.838 234.616C176.034 234.233 176.132 233.813 176.132 233.356C176.132 232.889 176.034 232.469 175.838 232.096C175.642 231.723 175.376 231.429 175.04 231.214C174.713 230.99 174.349 230.878 173.948 230.878C173.537 230.878 173.168 230.99 172.842 231.214C172.515 231.438 172.254 231.737 172.058 232.11C171.862 232.474 171.764 232.894 171.764 233.37Z" fill="#282828"/>
<path d="M164.68 237.01V229.688H169.356V231.046H166.22V237.01H164.68Z" fill="#282828"/>
<path d="M159.407 237.15C158.828 237.15 158.31 237.052 157.853 236.856C157.395 236.651 156.999 236.371 156.663 236.016C156.336 235.661 156.084 235.26 155.907 234.812C155.729 234.355 155.641 233.869 155.641 233.356C155.641 232.843 155.729 232.357 155.907 231.9C156.084 231.443 156.336 231.041 156.663 230.696C156.999 230.341 157.395 230.066 157.853 229.87C158.319 229.665 158.837 229.562 159.407 229.562C159.976 229.562 160.489 229.665 160.947 229.87C161.413 230.066 161.81 230.341 162.137 230.696C162.473 231.041 162.729 231.443 162.907 231.9C163.084 232.357 163.173 232.843 163.173 233.356C163.173 233.869 163.084 234.355 162.907 234.812C162.729 235.26 162.473 235.661 162.137 236.016C161.81 236.371 161.413 236.651 160.947 236.856C160.489 237.052 159.976 237.15 159.407 237.15ZM157.223 233.37C157.223 233.837 157.321 234.257 157.517 234.63C157.713 235.003 157.974 235.297 158.301 235.512C158.627 235.727 158.996 235.834 159.407 235.834C159.808 235.834 160.172 235.727 160.499 235.512C160.835 235.288 161.101 234.989 161.297 234.616C161.493 234.233 161.591 233.813 161.591 233.356C161.591 232.889 161.493 232.469 161.297 232.096C161.101 231.723 160.835 231.429 160.499 231.214C160.172 230.99 159.808 230.878 159.407 230.878C158.996 230.878 158.627 230.99 158.301 231.214C157.974 231.438 157.713 231.737 157.517 232.11C157.321 232.474 157.223 232.894 157.223 233.37Z" fill="#282828"/>
<path d="M148.211 237.01V229.688H152.131C152.598 229.688 152.98 229.777 153.279 229.954C153.587 230.122 153.816 230.341 153.965 230.612C154.114 230.873 154.189 231.163 154.189 231.48C154.189 231.881 154.096 232.236 153.909 232.544C153.722 232.852 153.447 233.085 153.083 233.244C153.503 233.365 153.844 233.58 154.105 233.888C154.376 234.187 154.511 234.574 154.511 235.05C154.511 235.479 154.408 235.843 154.203 236.142C153.998 236.431 153.704 236.651 153.321 236.8C152.948 236.94 152.509 237.01 152.005 237.01H148.211ZM149.667 235.946H151.963C152.159 235.946 152.336 235.899 152.495 235.806C152.663 235.703 152.794 235.573 152.887 235.414C152.98 235.246 153.027 235.069 153.027 234.882C153.027 234.677 152.98 234.495 152.887 234.336C152.803 234.177 152.682 234.051 152.523 233.958C152.374 233.865 152.196 233.818 151.991 233.818H149.667V235.946ZM149.667 232.824H151.739C151.935 232.824 152.108 232.777 152.257 232.684C152.406 232.581 152.523 232.446 152.607 232.278C152.691 232.11 152.733 231.933 152.733 231.746C152.733 231.475 152.644 231.242 152.467 231.046C152.29 230.85 152.056 230.752 151.767 230.752H149.667V232.824Z" fill="#282828"/>
<path d="M142.94 237.15C142.361 237.15 141.843 237.052 141.386 236.856C140.929 236.651 140.532 236.371 140.196 236.016C139.869 235.661 139.617 235.26 139.44 234.812C139.263 234.355 139.174 233.869 139.174 233.356C139.174 232.843 139.263 232.357 139.44 231.9C139.617 231.443 139.869 231.041 140.196 230.696C140.532 230.341 140.929 230.066 141.386 229.87C141.853 229.665 142.371 229.562 142.94 229.562C143.509 229.562 144.022 229.665 144.48 229.87C144.946 230.066 145.343 230.341 145.67 230.696C146.006 231.041 146.263 231.443 146.44 231.9C146.617 232.357 146.706 232.843 146.706 233.356C146.706 233.869 146.617 234.355 146.44 234.812C146.263 235.26 146.006 235.661 145.67 236.016C145.343 236.371 144.946 236.651 144.48 236.856C144.022 237.052 143.509 237.15 142.94 237.15ZM140.756 233.37C140.756 233.837 140.854 234.257 141.05 234.63C141.246 235.003 141.507 235.297 141.834 235.512C142.16 235.727 142.529 235.834 142.94 235.834C143.341 235.834 143.705 235.727 144.032 235.512C144.368 235.288 144.634 234.989 144.83 234.616C145.026 234.233 145.124 233.813 145.124 233.356C145.124 232.889 145.026 232.469 144.83 232.096C144.634 231.723 144.368 231.429 144.032 231.214C143.705 230.99 143.341 230.878 142.94 230.878C142.529 230.878 142.16 230.99 141.834 231.214C141.507 231.438 141.246 231.737 141.05 232.11C140.854 232.474 140.756 232.894 140.756 233.37Z" fill="#282828"/>
<path d="M130.719 237.08V235.708C130.952 235.708 131.162 235.652 131.349 235.54C131.535 235.419 131.699 235.223 131.839 234.952C131.979 234.672 132.091 234.285 132.175 233.79C132.259 233.295 132.315 232.665 132.343 231.9L132.441 229.688H137.663V237.01H136.123V231.046H133.799L133.771 232.04C133.733 233.02 133.645 233.837 133.505 234.49C133.365 235.134 133.169 235.647 132.917 236.03C132.674 236.403 132.366 236.674 131.993 236.842C131.629 237.001 131.204 237.08 130.719 237.08Z" fill="#282828"/>
<path d="M126.159 237.15C125.59 237.15 125.072 237.052 124.605 236.856C124.148 236.651 123.751 236.375 123.415 236.03C123.079 235.675 122.818 235.274 122.631 234.826C122.454 234.369 122.365 233.883 122.365 233.37C122.365 232.679 122.524 232.049 122.841 231.48C123.159 230.901 123.602 230.439 124.171 230.094C124.741 229.739 125.408 229.562 126.173 229.562C126.939 229.562 127.597 229.739 128.147 230.094C128.707 230.439 129.141 230.897 129.449 231.466C129.757 232.035 129.911 232.647 129.911 233.3C129.911 233.412 129.907 233.519 129.897 233.622C129.888 233.715 129.879 233.795 129.869 233.86H124.003C124.031 234.289 124.148 234.667 124.353 234.994C124.568 235.311 124.839 235.563 125.165 235.75C125.492 235.927 125.842 236.016 126.215 236.016C126.626 236.016 127.013 235.913 127.377 235.708C127.751 235.503 128.003 235.232 128.133 234.896L129.449 235.274C129.291 235.629 129.048 235.951 128.721 236.24C128.404 236.52 128.026 236.744 127.587 236.912C127.149 237.071 126.673 237.15 126.159 237.15ZM123.961 232.838H128.385C128.357 232.418 128.236 232.049 128.021 231.732C127.816 231.405 127.55 231.153 127.223 230.976C126.906 230.789 126.551 230.696 126.159 230.696C125.777 230.696 125.422 230.789 125.095 230.976C124.778 231.153 124.517 231.405 124.311 231.732C124.106 232.049 123.989 232.418 123.961 232.838Z" fill="#282828"/>
<path d="M113.441 238.76V235.652H113.609C113.805 235.652 113.987 235.596 114.155 235.484C114.323 235.372 114.473 235.181 114.603 234.91C114.734 234.63 114.841 234.247 114.925 233.762C115.009 233.267 115.061 232.647 115.079 231.9L115.163 229.688H120.385V235.652H121.393V238.76H120.035V237.01H114.785V238.76H113.441ZM115.639 235.652H118.845V231.018H116.521L116.479 232.04C116.451 232.749 116.4 233.347 116.325 233.832C116.26 234.317 116.167 234.705 116.045 234.994C115.933 235.283 115.798 235.503 115.639 235.652Z" fill="#282828"/>
<path d="M105.272 237.15C104.693 237.15 104.175 237.052 103.718 236.856C103.261 236.651 102.864 236.371 102.528 236.016C102.201 235.661 101.949 235.26 101.772 234.812C101.595 234.355 101.506 233.869 101.506 233.356C101.506 232.843 101.595 232.357 101.772 231.9C101.949 231.443 102.201 231.041 102.528 230.696C102.864 230.341 103.261 230.066 103.718 229.87C104.185 229.665 104.703 229.562 105.272 229.562C105.841 229.562 106.355 229.665 106.812 229.87C107.279 230.066 107.675 230.341 108.002 230.696C108.338 231.041 108.595 231.443 108.772 231.9C108.949 232.357 109.038 232.843 109.038 233.356C109.038 233.869 108.949 234.355 108.772 234.812C108.595 235.26 108.338 235.661 108.002 236.016C107.675 236.371 107.279 236.651 106.812 236.856C106.355 237.052 105.841 237.15 105.272 237.15ZM103.088 233.37C103.088 233.837 103.186 234.257 103.382 234.63C103.578 235.003 103.839 235.297 104.166 235.512C104.493 235.727 104.861 235.834 105.272 235.834C105.673 235.834 106.037 235.727 106.364 235.512C106.7 235.288 106.966 234.989 107.162 234.616C107.358 234.233 107.456 233.813 107.456 233.356C107.456 232.889 107.358 232.469 107.162 232.096C106.966 231.723 106.7 231.429 106.364 231.214C106.037 230.99 105.673 230.878 105.272 230.878C104.861 230.878 104.493 230.99 104.166 231.214C103.839 231.438 103.578 231.737 103.382 232.11C103.186 232.474 103.088 232.894 103.088 233.37Z" fill="#282828"/>
<path d="M94.0762 237.01V229.688H97.9962C98.4628 229.688 98.8455 229.777 99.1442 229.954C99.4522 230.122 99.6808 230.341 99.8302 230.612C99.9795 230.873 100.054 231.163 100.054 231.48C100.054 231.881 99.9608 232.236 99.7742 232.544C99.5875 232.852 99.3122 233.085 98.9482 233.244C99.3682 233.365 99.7088 233.58 99.9702 233.888C100.241 234.187 100.376 234.574 100.376 235.05C100.376 235.479 100.274 235.843 100.068 236.142C99.8628 236.431 99.5688 236.651 99.1862 236.8C98.8128 236.94 98.3742 237.01 97.8702 237.01H94.0762ZM95.5322 235.946H97.8282C98.0242 235.946 98.2015 235.899 98.3602 235.806C98.5282 235.703 98.6588 235.573 98.7522 235.414C98.8455 235.246 98.8922 235.069 98.8922 234.882C98.8922 234.677 98.8455 234.495 98.7522 234.336C98.6682 234.177 98.5468 234.051 98.3882 233.958C98.2388 233.865 98.0615 233.818 97.8562 233.818H95.5322V235.946ZM95.5322 232.824H97.6042C97.8002 232.824 97.9728 232.777 98.1222 232.684C98.2715 232.581 98.3882 232.446 98.4722 232.278C98.5562 232.11 98.5982 231.933 98.5982 231.746C98.5982 231.475 98.5095 231.242 98.3322 231.046C98.1548 230.85 97.9215 230.752 97.6322 230.752H95.5322V232.824Z" fill="#282828"/>
<path d="M88.8087 237.01V231.046H86.3867V229.688H92.7847V231.046H90.3487V237.01H88.8087Z" fill="#282828"/>
<path d="M82.4288 237.15C81.8594 237.15 81.3414 237.052 80.8748 236.856C80.4174 236.651 80.0208 236.371 79.6848 236.016C79.3488 235.661 79.0874 235.255 78.9008 234.798C78.7234 234.341 78.6348 233.855 78.6348 233.342C78.6348 232.651 78.7888 232.021 79.0968 231.452C79.4141 230.883 79.8528 230.425 80.4128 230.08C80.9821 229.735 81.6541 229.562 82.4288 229.562C83.1754 229.562 83.8241 229.73 84.3748 230.066C84.9348 230.393 85.3454 230.831 85.6068 231.382L84.1088 231.858C83.9408 231.55 83.7028 231.312 83.3948 231.144C83.0961 230.967 82.7648 230.878 82.4008 230.878C81.9901 230.878 81.6168 230.985 81.2808 231.2C80.9541 231.405 80.6928 231.695 80.4968 232.068C80.3101 232.432 80.2168 232.857 80.2168 233.342C80.2168 233.809 80.3148 234.233 80.5108 234.616C80.7068 234.989 80.9681 235.288 81.2948 235.512C81.6308 235.727 82.0041 235.834 82.4148 235.834C82.6668 235.834 82.9094 235.792 83.1428 235.708C83.3854 235.615 83.5954 235.493 83.7728 235.344C83.9501 235.185 84.0761 235.013 84.1508 234.826L85.6628 235.274C85.5041 235.638 85.2661 235.96 84.9488 236.24C84.6408 236.52 84.2721 236.744 83.8428 236.912C83.4228 237.071 82.9514 237.15 82.4288 237.15Z" fill="#282828"/>
<path d="M73.8439 237.01V231.046H71.4219V229.688H77.8199V231.046H75.3839V237.01H73.8439Z" fill="#282828"/>
<path d="M63.6289 237.01V229.688H65.1689V232.6H68.5709V229.688H70.1109V237.01H68.5709V233.93H65.1689V237.01H63.6289Z" fill="#282828"/>
<path d="M58.4795 237.15C57.9102 237.15 57.3922 237.052 56.9255 236.856C56.4682 236.651 56.0715 236.375 55.7355 236.03C55.3995 235.675 55.1382 235.274 54.9515 234.826C54.7742 234.369 54.6855 233.883 54.6855 233.37C54.6855 232.679 54.8442 232.049 55.1615 231.48C55.4789 230.901 55.9222 230.439 56.4915 230.094C57.0609 229.739 57.7282 229.562 58.4935 229.562C59.2589 229.562 59.9169 229.739 60.4675 230.094C61.0275 230.439 61.4615 230.897 61.7695 231.466C62.0775 232.035 62.2315 232.647 62.2315 233.3C62.2315 233.412 62.2269 233.519 62.2175 233.622C62.2082 233.715 62.1989 233.795 62.1895 233.86H56.3235C56.3515 234.289 56.4682 234.667 56.6735 234.994C56.8882 235.311 57.1589 235.563 57.4855 235.75C57.8122 235.927 58.1622 236.016 58.5355 236.016C58.9462 236.016 59.3335 235.913 59.6975 235.708C60.0709 235.503 60.3229 235.232 60.4535 234.896L61.7695 235.274C61.6109 235.629 61.3682 235.951 61.0415 236.24C60.7242 236.52 60.3462 236.744 59.9075 236.912C59.4689 237.071 58.9929 237.15 58.4795 237.15ZM56.2815 232.838H60.7055C60.6775 232.418 60.5562 232.049 60.3415 231.732C60.1362 231.405 59.8702 231.153 59.5435 230.976C59.2262 230.789 58.8715 230.696 58.4795 230.696C58.0969 230.696 57.7422 230.789 57.4155 230.976C57.0982 231.153 56.8369 231.405 56.6315 231.732C56.4262 232.049 56.3095 232.418 56.2815 232.838Z" fill="#282828"/>
<path d="M49.1836 237.01V229.688H53.8596V231.046H50.7236V237.01H49.1836Z" fill="#282828"/>
<path d="M42.6635 227.07H44.1475L48.0115 237.01H46.3595L45.3095 234.308H41.4735L40.4375 237.01H38.7715L42.6635 227.07ZM45.0015 233.146L43.4055 228.792L41.7535 233.146H45.0015Z" fill="#282828"/>
<path d="M30.094 237.08C29.3753 237.08 28.7267 236.94 28.148 236.66C27.5693 236.38 27.07 236.002 26.65 235.526C26.23 235.041 25.9033 234.499 25.67 233.902C25.446 233.295 25.334 232.675 25.334 232.04C25.334 231.377 25.4553 230.747 25.698 230.15C25.9407 229.543 26.2767 229.007 26.706 228.54C27.1353 228.064 27.6393 227.691 28.218 227.42C28.806 227.14 29.4407 227 30.122 227C30.8313 227 31.4753 227.145 32.054 227.434C32.642 227.723 33.1413 228.111 33.552 228.596C33.972 229.081 34.294 229.623 34.518 230.22C34.7513 230.817 34.868 231.429 34.868 232.054C34.868 232.717 34.7467 233.351 34.504 233.958C34.2707 234.555 33.9393 235.092 33.51 235.568C33.0807 236.035 32.572 236.403 31.984 236.674C31.4053 236.945 30.7753 237.08 30.094 237.08ZM26.93 232.04C26.93 232.507 27.0047 232.959 27.154 233.398C27.3033 233.837 27.5133 234.229 27.784 234.574C28.064 234.91 28.4 235.176 28.792 235.372C29.184 235.568 29.6227 235.666 30.108 235.666C30.612 235.666 31.06 235.563 31.452 235.358C31.844 235.153 32.1707 234.877 32.432 234.532C32.7027 234.177 32.908 233.785 33.048 233.356C33.188 232.917 33.258 232.479 33.258 232.04C33.258 231.573 33.1833 231.125 33.034 230.696C32.894 230.257 32.684 229.87 32.404 229.534C32.124 229.189 31.788 228.918 31.396 228.722C31.0133 228.526 30.584 228.428 30.108 228.428C29.604 228.428 29.156 228.531 28.764 228.736C28.372 228.941 28.0407 229.217 27.77 229.562C27.4993 229.907 27.2893 230.295 27.14 230.724C27 231.153 26.93 231.592 26.93 232.04Z" fill="#282828"/>
<path d="M19.428 237.08C18.7093 237.08 18.0606 236.94 17.482 236.66C16.9033 236.38 16.404 236.002 15.984 235.526C15.564 235.041 15.2373 234.499 15.004 233.902C14.78 233.295 14.668 232.675 14.668 232.04C14.668 231.377 14.7893 230.747 15.032 230.15C15.2746 229.543 15.6106 229.007 16.04 228.54C16.4693 228.064 16.9733 227.691 17.552 227.42C18.14 227.14 18.7746 227 19.456 227C20.1653 227 20.8093 227.145 21.388 227.434C21.976 227.723 22.4753 228.111 22.886 228.596C23.306 229.081 23.628 229.623 23.852 230.22C24.0853 230.817 24.202 231.429 24.202 232.054C24.202 232.717 24.0806 233.351 23.838 233.958C23.6046 234.555 23.2733 235.092 22.844 235.568C22.4146 236.035 21.906 236.403 21.318 236.674C20.7393 236.945 20.1093 237.08 19.428 237.08ZM16.264 232.04C16.264 232.507 16.3386 232.959 16.488 233.398C16.6373 233.837 16.8473 234.229 17.118 234.574C17.398 234.91 17.734 235.176 18.126 235.372C18.518 235.568 18.9566 235.666 19.442 235.666C19.946 235.666 20.394 235.563 20.786 235.358C21.178 235.153 21.5046 234.877 21.766 234.532C22.0366 234.177 22.242 233.785 22.382 233.356C22.522 232.917 22.592 232.479 22.592 232.04C22.592 231.573 22.5173 231.125 22.368 230.696C22.228 230.257 22.018 229.87 21.738 229.534C21.458 229.189 21.122 228.918 20.73 228.722C20.3473 228.526 19.918 228.428 19.442 228.428C18.938 228.428 18.49 228.531 18.098 228.736C17.706 228.941 17.3746 229.217 17.104 229.562C16.8333 229.907 16.6233 230.295 16.474 230.724C16.334 231.153 16.264 231.592 16.264 232.04Z" fill="#282828"/>
<path d="M8.76 237.08C8.04133 237.08 7.39267 236.94 6.814 236.66C6.23533 236.38 5.736 236.002 5.316 235.526C4.896 235.041 4.56933 234.499 4.336 233.902C4.112 233.295 4 232.675 4 232.04C4 231.377 4.12133 230.747 4.364 230.15C4.60667 229.543 4.94267 229.007 5.372 228.54C5.80133 228.064 6.30533 227.691 6.884 227.42C7.472 227.14 8.10667 227 8.788 227C9.49733 227 10.1413 227.145 10.72 227.434C11.308 227.723 11.8073 228.111 12.218 228.596C12.638 229.081 12.96 229.623 13.184 230.22C13.4173 230.817 13.534 231.429 13.534 232.054C13.534 232.717 13.4127 233.351 13.17 233.958C12.9367 234.555 12.6053 235.092 12.176 235.568C11.7467 236.035 11.238 236.403 10.65 236.674C10.0713 236.945 9.44133 237.08 8.76 237.08ZM5.596 232.04C5.596 232.507 5.67067 232.959 5.82 233.398C5.96933 233.837 6.17933 234.229 6.45 234.574C6.73 234.91 7.066 235.176 7.458 235.372C7.85 235.568 8.28867 235.666 8.774 235.666C9.278 235.666 9.726 235.563 10.118 235.358C10.51 235.153 10.8367 234.877 11.098 234.532C11.3687 234.177 11.574 233.785 11.714 233.356C11.854 232.917 11.924 232.479 11.924 232.04C11.924 231.573 11.8493 231.125 11.7 230.696C11.56 230.257 11.35 229.87 11.07 229.534C10.79 229.189 10.454 228.918 10.062 228.722C9.67933 228.526 9.25 228.428 8.774 228.428C8.27 228.428 7.822 228.531 7.43 228.736C7.038 228.941 6.70667 229.217 6.436 229.562C6.16533 229.907 5.95533 230.295 5.806 230.724C5.666 231.153 5.596 231.592 5.596 232.04Z" fill="#282828"/>
</svg>
