<svg width="1362" height="1362" viewBox="0 0 1362 1362" fill="none" xmlns="http://www.w3.org/2000/svg">
<g clip-path="url(#clip0_755_21992)">
<path d="M45.9839 979.973H1316.02" stroke="#D5D5D5" stroke-width="1.5" stroke-miterlimit="10"/>
<path d="M908.661 1026.51H1053.09" stroke="#D5D5D5" stroke-width="1.5" stroke-miterlimit="10" stroke-linecap="round" stroke-linejoin="round"/>
<path d="M1011.48 1040.79H1106.65" stroke="#D5D5D5" stroke-width="1.5" stroke-miterlimit="10" stroke-linecap="round" stroke-linejoin="round"/>
<path d="M874.843 1100.18H730.411" stroke="#D5D5D5" stroke-width="1.5" stroke-miterlimit="10" stroke-linecap="round" stroke-linejoin="round"/>
<path d="M772.02 1114.45H676.849" stroke="#D5D5D5" stroke-width="1.5" stroke-miterlimit="10" stroke-linecap="round" stroke-linejoin="round"/>
<path d="M80.3198 1045.55H224.752" stroke="#D5D5D5" stroke-width="1.5" stroke-miterlimit="10" stroke-linecap="round" stroke-linejoin="round"/>
<path d="M183.145 1059.82H278.316" stroke="#D5D5D5" stroke-width="1.5" stroke-miterlimit="10" stroke-linecap="round" stroke-linejoin="round"/>
<path d="M1042.12 1170.51H1186.55" stroke="#D5D5D5" stroke-width="1.5" stroke-miterlimit="10" stroke-linecap="round" stroke-linejoin="round"/>
<path d="M1144.94 1184.78H1240.11" stroke="#D5D5D5" stroke-width="1.5" stroke-miterlimit="10" stroke-linecap="round" stroke-linejoin="round"/>
<path d="M173.462 1272.17H335.542" stroke="#D5D5D5" stroke-width="1.5" stroke-miterlimit="10" stroke-linecap="round" stroke-linejoin="round"/>
<path d="M1098.79 720.193C1100.54 719.34 1102.23 721.47 1101.06 723.026C1085.89 743.227 1061.73 756.283 1034.53 756.283C988.572 756.283 951.349 719.032 951.349 673.1C951.349 631.968 981.209 597.793 1020.46 591.132C1022.36 590.811 1023.41 593.293 1021.88 594.45C1002.04 609.413 989.975 634.163 992.816 661.521C996.385 695.876 1024.02 723.557 1058.37 727.199C1072.93 728.743 1086.76 726.055 1098.79 720.193Z" fill="#D5D5D5"/>
<path d="M1020.6 373.447C1020.73 375.231 1019.39 376.784 1017.61 376.914C1015.82 377.045 1014.27 375.708 1014.14 373.924C1014.01 372.139 1015.35 370.589 1017.13 370.456C1018.91 370.325 1020.47 371.663 1020.6 373.447Z" fill="#D5D5D5"/>
<path d="M1169.32 582.258C1169.45 584.042 1168.12 585.595 1166.33 585.725C1164.55 585.856 1163 584.519 1162.86 582.735C1162.73 580.95 1164.07 579.398 1165.86 579.267C1167.64 579.136 1169.19 580.474 1169.32 582.258Z" fill="#D5D5D5"/>
<path d="M264.334 842.34C264.465 844.124 263.128 845.674 261.343 845.808C259.559 845.939 258.009 844.601 257.876 842.817C257.742 841.033 259.082 839.48 260.867 839.349C262.651 839.218 264.203 840.556 264.334 842.34Z" fill="#D5D5D5"/>
<path d="M870.626 792.75C870.756 794.534 869.419 796.084 867.635 796.217C865.85 796.351 864.298 795.011 864.167 793.226C864.036 791.442 865.374 789.892 867.158 789.759C868.939 789.628 870.492 790.965 870.626 792.75Z" fill="#D5D5D5"/>
<path d="M895.126 203.747C895.256 205.531 893.919 207.084 892.135 207.215C890.35 207.346 888.8 206.008 888.667 204.224C888.533 202.44 889.874 200.887 891.658 200.756C893.439 200.625 894.992 201.966 895.126 203.747Z" fill="#D5D5D5"/>
<path d="M93.5148 261.771C93.6456 263.555 92.3081 265.105 90.5238 265.239C88.7396 265.369 87.1897 264.032 87.0562 262.248C86.9254 260.464 88.2629 258.911 90.0471 258.78C91.8314 258.649 93.384 259.987 93.5148 261.771Z" fill="#D5D5D5"/>
<path d="M126.644 495.637C126.775 497.422 125.437 498.974 123.653 499.105C121.869 499.236 120.319 497.898 120.185 496.114C120.052 494.33 121.392 492.777 123.176 492.647C124.961 492.516 126.511 493.853 126.644 495.637Z" fill="#D5D5D5"/>
<path d="M1115.15 118.982C1115.28 120.766 1113.94 122.319 1112.16 122.449C1110.37 122.58 1108.82 121.243 1108.69 119.458C1108.56 117.674 1109.9 116.124 1111.68 115.991C1113.46 115.86 1115.01 117.2 1115.15 118.982Z" fill="#D5D5D5"/>
<path d="M941.273 435.255C941.54 438.872 938.826 442.021 935.209 442.288C931.591 442.555 928.443 439.839 928.176 436.224C927.909 432.607 930.622 429.458 934.239 429.191C937.857 428.924 941.006 431.637 941.273 435.255Z" fill="#D5D5D5"/>
<path d="M934.727 418.349V453.456" stroke="#D5D5D5" stroke-width="1.5" stroke-miterlimit="10" stroke-linecap="round" stroke-linejoin="round"/>
<path d="M922.592 435.903H946.86" stroke="#D5D5D5" stroke-width="1.5" stroke-miterlimit="10" stroke-linecap="round" stroke-linejoin="round"/>
<path d="M1244.86 634.581C1245.13 638.198 1242.41 641.347 1238.8 641.614C1235.18 641.881 1232.03 639.168 1231.76 635.55C1231.5 631.933 1234.21 628.784 1237.83 628.517C1241.44 628.25 1244.59 630.963 1244.86 634.581Z" fill="#D5D5D5"/>
<path d="M1238.31 617.675V652.782" stroke="#D5D5D5" stroke-width="1.5" stroke-miterlimit="10" stroke-linecap="round" stroke-linejoin="round"/>
<path d="M1226.18 635.229H1250.44" stroke="#D5D5D5" stroke-width="1.5" stroke-miterlimit="10" stroke-linecap="round" stroke-linejoin="round"/>
<path d="M139.959 685.064C140.226 688.682 137.51 691.831 133.895 692.098C130.278 692.365 127.129 689.652 126.862 686.034C126.595 682.417 129.308 679.268 132.926 679.001C136.543 678.734 139.692 681.45 139.959 685.064Z" fill="#D5D5D5"/>
<path d="M133.411 668.162V703.269" stroke="#D5D5D5" stroke-width="1.5" stroke-miterlimit="10" stroke-linecap="round" stroke-linejoin="round"/>
<path d="M121.278 685.715H145.543" stroke="#D5D5D5" stroke-width="1.5" stroke-miterlimit="10" stroke-linecap="round" stroke-linejoin="round"/>
<path d="M746.335 854.257C746.602 857.875 743.886 861.024 740.271 861.291C736.654 861.558 733.505 858.845 733.238 855.227C732.971 851.61 735.684 848.461 739.302 848.194C742.917 847.924 746.065 850.64 746.335 854.257Z" fill="#D5D5D5"/>
<path d="M739.787 837.352V872.459" stroke="#D5D5D5" stroke-width="1.5" stroke-miterlimit="10" stroke-linecap="round" stroke-linejoin="round"/>
<path d="M727.651 854.906H751.919" stroke="#D5D5D5" stroke-width="1.5" stroke-miterlimit="10" stroke-linecap="round" stroke-linejoin="round"/>
<path d="M161.756 135.168C162.023 138.785 159.31 141.934 155.693 142.201C152.075 142.468 148.926 139.755 148.659 136.138C148.393 132.52 151.108 129.371 154.723 129.104C158.338 128.837 161.487 131.553 161.756 135.168Z" fill="#D5D5D5"/>
<path d="M155.208 118.265V153.372" stroke="#D5D5D5" stroke-width="1.5" stroke-miterlimit="10" stroke-linecap="round" stroke-linejoin="round"/>
<path d="M143.075 135.819H167.341" stroke="#D5D5D5" stroke-width="1.5" stroke-miterlimit="10" stroke-linecap="round" stroke-linejoin="round"/>
<path d="M1219.77 189.729C1220.03 193.347 1217.32 196.496 1213.7 196.763C1210.09 197.03 1206.94 194.317 1206.67 190.699C1206.4 187.082 1209.12 183.933 1212.73 183.666C1216.35 183.399 1219.5 186.115 1219.77 189.729Z" fill="#D5D5D5"/>
<path d="M1213.22 172.827V207.934" stroke="#D5D5D5" stroke-width="1.5" stroke-miterlimit="10" stroke-linecap="round" stroke-linejoin="round"/>
<path d="M1201.08 190.38H1225.35" stroke="#D5D5D5" stroke-width="1.5" stroke-miterlimit="10" stroke-linecap="round" stroke-linejoin="round"/>
<path d="M1243.56 830.844C1240.76 817.911 1229.26 808.241 1215.5 808.241C1211.1 808.241 1206.98 809.259 1203.26 810.995C1199.55 799.527 1188.83 791.207 1176.11 791.128C1175.14 770.031 1157.78 753.213 1136.44 753.213C1116.64 753.213 1100.23 767.688 1097.19 786.631C1097.04 787.582 1095.84 787.898 1095.23 787.149C1088.14 778.383 1077.31 772.766 1065.16 772.766C1043.95 772.766 1026.74 789.845 1026.5 811.003C1022.79 809.257 1018.69 808.241 1014.34 808.241C1000.53 808.241 988.981 818.003 986.23 831.008C986.23 831.008 1233.84 830.855 1243.56 830.844Z" fill="white" stroke="#EBEBEB" stroke-width="1.5" stroke-miterlimit="10" stroke-linecap="round" stroke-linejoin="round"/>
<path d="M780.935 700.046C782.957 690.711 791.256 683.732 801.191 683.732C804.364 683.732 807.336 684.468 810.025 685.718C812.7 677.44 820.441 671.436 829.619 671.379C830.321 656.152 842.854 644.011 858.256 644.011C872.549 644.011 884.39 654.457 886.586 668.132C886.695 668.815 887.564 669.044 887.999 668.505C893.118 662.177 900.933 658.124 909.704 658.124C925.019 658.124 937.437 670.453 937.614 685.723C940.289 684.465 943.245 683.729 946.388 683.729C956.358 683.729 964.691 690.776 966.679 700.161C966.679 700.161 787.947 700.054 780.935 700.046Z" fill="white" stroke="#EBEBEB" stroke-width="1.5" stroke-miterlimit="10" stroke-linecap="round" stroke-linejoin="round"/>
<path d="M494.278 520.145C587.918 520.145 663.828 444.235 663.828 350.595C663.828 256.955 587.918 181.045 494.278 181.045C400.638 181.045 324.728 256.955 324.728 350.595C324.728 444.235 400.638 520.145 494.278 520.145Z" stroke="#D5D5D5" stroke-width="1.5" stroke-miterlimit="10"/>
<path d="M494.278 475.877C563.469 475.877 619.56 419.787 619.56 350.595C619.56 281.404 563.469 225.313 494.278 225.313C425.086 225.313 368.996 281.404 368.996 350.595C368.996 419.787 425.086 475.877 494.278 475.877Z" fill="#D5D5D5"/>
<path d="M494.278 564.416C612.368 564.416 708.098 468.685 708.098 350.595C708.098 232.506 612.368 136.775 494.278 136.775C376.188 136.775 280.458 232.506 280.458 350.595C280.458 468.685 376.188 564.416 494.278 564.416Z" stroke="#D5D5D5" stroke-width="1.5" stroke-miterlimit="10"/>
<path d="M676.767 533.093C777.557 432.303 777.557 268.891 676.767 168.101C575.978 67.3111 412.565 67.3111 311.775 168.101C210.986 268.891 210.986 432.303 311.775 533.093C412.565 633.883 575.978 633.883 676.767 533.093Z" stroke="#D5D5D5" stroke-width="1.5" stroke-miterlimit="10"/>
<path d="M708.071 564.397C826.149 446.318 826.149 254.876 708.071 136.797C589.993 18.719 398.55 18.719 280.472 136.797C162.393 254.876 162.393 446.318 280.472 564.397C398.55 682.475 589.993 682.475 708.071 564.397Z" stroke="#D5D5D5" stroke-width="1.5" stroke-miterlimit="10"/>
<path d="M419.853 281.92L494.278 216L568.61 281.92H419.853Z" fill="#BABABA" stroke="#BABABA" stroke-width="1.5" stroke-miterlimit="10" stroke-linecap="round" stroke-linejoin="round"/>
<path d="M496.231 225.587V277.292H554.497L496.231 225.587Z" fill="#EBEBEB" stroke="#EBEBEB" stroke-width="1.5" stroke-miterlimit="10" stroke-linecap="round" stroke-linejoin="round"/>
<path d="M531.741 296.878H456.814V385.247H531.741V296.878Z" fill="#D5D5D5" stroke="#BABABA" stroke-width="1.5" stroke-miterlimit="10" stroke-linecap="round" stroke-linejoin="round"/>
<path d="M419.852 385.247H456.814V296.878H419.852V385.247Z" fill="#FF906F" stroke="#BABABA" stroke-width="1.5" stroke-miterlimit="10" stroke-linecap="round" stroke-linejoin="round"/>
<path d="M531.742 385.247H568.704V296.878H531.742V385.247Z" fill="white" stroke="#BABABA" stroke-width="1.5" stroke-miterlimit="10" stroke-linecap="round" stroke-linejoin="round"/>
<path d="M425.824 496.881H562.73V411.261H425.824V496.881Z" fill="#BABABA" stroke="#BABABA" stroke-width="1.5" stroke-miterlimit="10" stroke-linecap="round" stroke-linejoin="round"/>
<path d="M494.279 496.881H562.73V411.261H494.279V496.881Z" fill="#EBEBEB" stroke="#EBEBEB" stroke-width="1.5" stroke-miterlimit="10" stroke-linecap="round" stroke-linejoin="round"/>
<path d="M576.744 533.032H411.809V551.131H576.744V533.032Z" fill="#EBEBEB" stroke="#EBEBEB" stroke-width="1.5" stroke-miterlimit="10" stroke-linecap="round" stroke-linejoin="round"/>
<path d="M411.526 554.446L395.914 1087.68H592.421L576.747 554.446H411.526Z" fill="#EBEBEB" stroke="#EBEBEB" stroke-width="1.5" stroke-miterlimit="10" stroke-linecap="round" stroke-linejoin="round"/>
<path d="M411.526 551.131L395.914 1087.68H451.819L458.288 554.446L411.526 551.131Z" fill="#BABABA" stroke="#BABABA" stroke-width="1.5" stroke-miterlimit="10" stroke-linecap="round" stroke-linejoin="round"/>
<path d="M400.126 943.991H588.21L583.838 794.738H404.498L400.126 943.991Z" fill="white"/>
<path d="M530.197 554.446C530.197 554.446 531.463 807.965 535.508 927.323C537.532 979.921 535.508 1034.54 536.516 1087.68" stroke="#BABABA" stroke-width="1.5" stroke-miterlimit="10" stroke-linecap="round" stroke-linejoin="round"/>
<path d="M576.747 554.446L592.421 1087.68" stroke="#BABABA" stroke-width="1.5" stroke-miterlimit="10" stroke-linecap="round" stroke-linejoin="round"/>
<path d="M456.771 794.738H404.498L400.126 943.991H455.085L456.771 794.738Z" fill="#EBEBEB"/>
<path d="M411.809 551.131L395.914 1087.68" stroke="#BABABA" stroke-width="1.5" stroke-miterlimit="10" stroke-linecap="round" stroke-linejoin="round"/>
<path d="M512.461 1012.05H475.845V1087.68H512.461V1012.05Z" fill="#BABABA" stroke="#BABABA" stroke-width="1.5" stroke-miterlimit="10" stroke-linecap="round" stroke-linejoin="round"/>
<path d="M523.003 1012.05H465.556V1019.04H523.003V1012.05Z" fill="#BABABA" stroke="#BABABA" stroke-width="1.5" stroke-miterlimit="10" stroke-linecap="round" stroke-linejoin="round"/>
<path d="M503.477 922.417H485.079V943.893H503.477V922.417Z" fill="#BABABA" stroke="#BABABA" stroke-width="1.5" stroke-miterlimit="10" stroke-linecap="round" stroke-linejoin="round"/>
<path d="M507.525 917.925H481.034V922.414H507.525V917.925Z" fill="#BABABA" stroke="#BABABA" stroke-width="1.5" stroke-miterlimit="10" stroke-linecap="round" stroke-linejoin="round"/>
<path d="M503.477 739.019H485.079V760.495H503.477V739.019Z" fill="#BABABA" stroke="#BABABA" stroke-width="1.5" stroke-miterlimit="10" stroke-linecap="round" stroke-linejoin="round"/>
<path d="M507.525 734.529H481.034V739.018H507.525V734.529Z" fill="#BABABA" stroke="#BABABA" stroke-width="1.5" stroke-miterlimit="10" stroke-linecap="round" stroke-linejoin="round"/>
<path d="M503.477 555.623H485.079V577.099H503.477V555.623Z" fill="#BABABA" stroke="#BABABA" stroke-width="1.5" stroke-miterlimit="10" stroke-linecap="round" stroke-linejoin="round"/>
<path d="M576.747 551.131H411.526V555.62H576.747V551.131Z" fill="#BABABA" stroke="#BABABA" stroke-width="1.5" stroke-miterlimit="10" stroke-linecap="round" stroke-linejoin="round"/>
<path d="M578.975 385.247H409.581V409.232H578.975V385.247Z" fill="#BABABA" stroke="#BABABA" stroke-width="1.5" stroke-miterlimit="10" stroke-linecap="round" stroke-linejoin="round"/>
<path d="M568.61 389.033V405.124" stroke="#EBEBEB" stroke-width="1.5" stroke-miterlimit="10" stroke-linecap="round" stroke-linejoin="round"/>
<path d="M554.195 389.033V405.124" stroke="#EBEBEB" stroke-width="1.5" stroke-miterlimit="10" stroke-linecap="round" stroke-linejoin="round"/>
<path d="M539.78 389.033V405.124" stroke="#EBEBEB" stroke-width="1.5" stroke-miterlimit="10" stroke-linecap="round" stroke-linejoin="round"/>
<path d="M525.364 389.033V405.124" stroke="#EBEBEB" stroke-width="1.5" stroke-miterlimit="10" stroke-linecap="round" stroke-linejoin="round"/>
<path d="M510.949 389.033V405.124" stroke="#EBEBEB" stroke-width="1.5" stroke-miterlimit="10" stroke-linecap="round" stroke-linejoin="round"/>
<path d="M578.975 281.92H409.581V296.878H578.975V281.92Z" fill="#BABABA" stroke="#BABABA" stroke-width="1.5" stroke-miterlimit="10" stroke-linecap="round" stroke-linejoin="round"/>
<path d="M568.61 284.282V294.317" stroke="#EBEBEB" stroke-width="1.5" stroke-miterlimit="10" stroke-linecap="round" stroke-linejoin="round"/>
<path d="M554.195 284.282V294.317" stroke="#EBEBEB" stroke-width="1.5" stroke-miterlimit="10" stroke-linecap="round" stroke-linejoin="round"/>
<path d="M539.78 284.282V294.317" stroke="#EBEBEB" stroke-width="1.5" stroke-miterlimit="10" stroke-linecap="round" stroke-linejoin="round"/>
<path d="M525.364 284.282V294.317" stroke="#EBEBEB" stroke-width="1.5" stroke-miterlimit="10" stroke-linecap="round" stroke-linejoin="round"/>
<path d="M510.949 284.282V294.317" stroke="#EBEBEB" stroke-width="1.5" stroke-miterlimit="10" stroke-linecap="round" stroke-linejoin="round"/>
<path d="M588.212 514.956H400.346V533.03H588.212V514.956Z" fill="#BABABA" stroke="#BABABA" stroke-width="1.5" stroke-miterlimit="10" stroke-linecap="round" stroke-linejoin="round"/>
<path d="M598.781 496.882H389.771V514.956H598.781V496.882Z" fill="#BABABA" stroke="#BABABA" stroke-width="1.5" stroke-miterlimit="10" stroke-linecap="round" stroke-linejoin="round"/>
<path d="M400.346 496.882V464.243" stroke="#BABABA" stroke-width="1.5" stroke-miterlimit="10" stroke-linecap="round" stroke-linejoin="round"/>
<path d="M588.209 496.882V464.243" stroke="#BABABA" stroke-width="1.5" stroke-miterlimit="10" stroke-linecap="round" stroke-linejoin="round"/>
<path d="M573.759 496.882V464.243" stroke="#BABABA" stroke-width="1.5" stroke-miterlimit="10" stroke-linecap="round" stroke-linejoin="round"/>
<path d="M559.308 496.882V464.243" stroke="#BABABA" stroke-width="1.5" stroke-miterlimit="10" stroke-linecap="round" stroke-linejoin="round"/>
<path d="M544.857 496.882V464.243" stroke="#BABABA" stroke-width="1.5" stroke-miterlimit="10" stroke-linecap="round" stroke-linejoin="round"/>
<path d="M530.406 496.882V464.243" stroke="#BABABA" stroke-width="1.5" stroke-miterlimit="10" stroke-linecap="round" stroke-linejoin="round"/>
<path d="M515.956 496.882V464.243" stroke="#BABABA" stroke-width="1.5" stroke-miterlimit="10" stroke-linecap="round" stroke-linejoin="round"/>
<path d="M501.505 496.882V464.243" stroke="#BABABA" stroke-width="1.5" stroke-miterlimit="10" stroke-linecap="round" stroke-linejoin="round"/>
<path d="M487.054 496.882V464.243" stroke="#BABABA" stroke-width="1.5" stroke-miterlimit="10" stroke-linecap="round" stroke-linejoin="round"/>
<path d="M472.6 496.882V464.243" stroke="#BABABA" stroke-width="1.5" stroke-miterlimit="10" stroke-linecap="round" stroke-linejoin="round"/>
<path d="M458.149 496.882V464.243" stroke="#BABABA" stroke-width="1.5" stroke-miterlimit="10" stroke-linecap="round" stroke-linejoin="round"/>
<path d="M443.699 496.882V464.243" stroke="#BABABA" stroke-width="1.5" stroke-miterlimit="10" stroke-linecap="round" stroke-linejoin="round"/>
<path d="M429.248 496.882V464.243" stroke="#BABABA" stroke-width="1.5" stroke-miterlimit="10" stroke-linecap="round" stroke-linejoin="round"/>
<path d="M414.797 496.882V464.243" stroke="#BABABA" stroke-width="1.5" stroke-miterlimit="10" stroke-linecap="round" stroke-linejoin="round"/>
<path d="M595.532 465.545H392.741C390.943 465.545 389.488 464.088 389.488 462.293C389.488 460.495 390.946 459.04 392.741 459.04H595.532C597.329 459.04 598.784 460.498 598.784 462.293C598.784 464.088 597.327 465.545 595.532 465.545Z" fill="#BABABA" stroke="#BABABA" stroke-width="1.5" stroke-miterlimit="10" stroke-linecap="round" stroke-linejoin="round"/>
<path d="M394.955 1087.68H592.135C604.219 1087.68 614.562 1096.19 617.04 1108.01C619.007 1117.4 622.32 1127.77 627.836 1133.84C637.454 1144.43 648.012 1140.39 660.431 1150.72C670.943 1159.47 675.928 1174.38 678.194 1182.88C681.806 1196.43 687.709 1201.99 702.645 1204.85C736.842 1211.39 748.296 1215.63 754.559 1235.31H181.909C181.909 1235.31 188.04 1210.5 207.841 1200.17C234.31 1186.36 255.933 1198.57 269.148 1183.02C277.467 1173.24 293.936 1128.06 313.105 1126.4C332.273 1124.74 345.915 1125.16 358.694 1122.91C364.55 1121.87 368.17 1114.39 370.374 1106.58C373.509 1095.49 383.425 1087.68 394.955 1087.68Z" fill="#BABABA"/>
<path d="M568.136 1101.3H592.135C597.776 1101.3 602.535 1105.21 603.709 1110.81C606.782 1125.45 611.375 1135.98 617.757 1143C625.305 1151.31 633.354 1153.7 639.824 1155.62C644.512 1157.01 647.898 1158.01 651.722 1161.19C655.588 1164.41 661.036 1171.39 665.037 1186.39C670.052 1205.2 680.205 1214.42 700.087 1218.23C706.592 1219.47 711.991 1220.61 716.491 1221.7" stroke="#EBEBEB" stroke-width="1.5" stroke-miterlimit="10" stroke-linecap="round" stroke-linejoin="round"/>
<path d="M78.5791 1235.31H902.044" stroke="#D5D5D5" stroke-width="1.5" stroke-miterlimit="10" stroke-linecap="round" stroke-linejoin="round"/>
<path d="M775.847 1246.19H1038.46" stroke="#D5D5D5" stroke-width="1.5" stroke-miterlimit="10" stroke-linecap="round" stroke-linejoin="round"/>
<path d="M616.155 1273.97H887.683C887.683 1273.97 879.691 1259.07 868.983 1256.24C858.278 1253.41 841.942 1255.48 831.234 1248.67C820.529 1241.85 812.713 1219.5 791.148 1218.49C769.451 1217.48 743.736 1217.63 729.138 1217.63C714.54 1217.63 708.989 1236.96 701.204 1240.79C693.419 1244.63 668.012 1242.2 663.31 1247.46C657.007 1254.5 659.162 1258.24 652.496 1262.29C644.517 1267.13 618.225 1260.73 616.155 1273.97Z" fill="#BABABA"/>
<path d="M788.219 1227.49C802.373 1227.49 804.116 1235.21 815.456 1248.25C824.764 1258.95 830.496 1261.77 842.844 1263.08C854.876 1264.35 867.395 1264.9 867.395 1264.9" stroke="#EBEBEB" stroke-width="1.5" stroke-miterlimit="10" stroke-linecap="round" stroke-linejoin="round"/>
<path d="M559.343 1273.97H1088.35" stroke="#D5D5D5" stroke-width="1.5" stroke-miterlimit="10" stroke-linecap="round" stroke-linejoin="round"/>
</g>
<defs>
<clipPath id="clip0_755_21992">
<rect width="1362" height="1362" fill="white"/>
</clipPath>
</defs>
</svg>
