<svg width="1007" height="1007" viewBox="0 0 1007 1007" fill="none" xmlns="http://www.w3.org/2000/svg">
<g clip-path="url(#clip0_755_22139)">
<path d="M33.9983 724.547H973.002" stroke="#F6AF9A" stroke-width="1.5" stroke-miterlimit="10"/>
<path d="M671.822 758.958H778.608" stroke="#F6AF9A" stroke-width="1.5" stroke-miterlimit="10" stroke-linecap="round" stroke-linejoin="round"/>
<path d="M747.844 769.509H818.209" stroke="#F6AF9A" stroke-width="1.5" stroke-miterlimit="10" stroke-linecap="round" stroke-linejoin="round"/>
<path d="M646.818 813.42H540.032" stroke="#F6AF9A" stroke-width="1.5" stroke-miterlimit="10" stroke-linecap="round" stroke-linejoin="round"/>
<path d="M570.796 823.972H500.431" stroke="#F6AF9A" stroke-width="1.5" stroke-miterlimit="10" stroke-linecap="round" stroke-linejoin="round"/>
<path d="M59.3848 773.03H166.171" stroke="#F6AF9A" stroke-width="1.5" stroke-miterlimit="10" stroke-linecap="round" stroke-linejoin="round"/>
<path d="M135.409 783.581H205.774" stroke="#F6AF9A" stroke-width="1.5" stroke-miterlimit="10" stroke-linecap="round" stroke-linejoin="round"/>
<path d="M770.492 865.424H877.278" stroke="#F6AF9A" stroke-width="1.5" stroke-miterlimit="10" stroke-linecap="round" stroke-linejoin="round"/>
<path d="M846.514 875.975H916.881" stroke="#F6AF9A" stroke-width="1.5" stroke-miterlimit="10" stroke-linecap="round" stroke-linejoin="round"/>
<path d="M128.25 940.582H248.085" stroke="#F6AF9A" stroke-width="1.5" stroke-miterlimit="10" stroke-linecap="round" stroke-linejoin="round"/>
<path d="M812.391 532.477C813.686 531.847 814.935 533.422 814.071 534.572C802.857 549.508 784.991 559.161 764.885 559.161C730.905 559.161 703.383 531.62 703.383 497.659C703.383 467.248 725.461 441.98 754.485 437.056C755.884 436.819 756.662 438.653 755.528 439.509C740.86 450.572 731.942 468.871 734.042 489.098C736.681 514.499 757.113 534.965 782.507 537.657C793.272 538.799 803.499 536.812 812.391 532.477Z" fill="#F6AF9A"/>
<path d="M754.584 276.109C754.68 277.429 753.691 278.577 752.372 278.673C751.053 278.77 749.905 277.781 749.808 276.462C749.712 275.143 750.7 273.997 752.02 273.898C753.339 273.801 754.487 274.79 754.584 276.109Z" fill="#F6AF9A"/>
<path d="M864.544 430.495C864.641 431.814 863.652 432.962 862.333 433.058C861.013 433.155 859.865 432.166 859.769 430.847C859.672 429.528 860.661 428.38 861.98 428.283C863.299 428.187 864.447 429.175 864.544 430.495Z" fill="#F6AF9A"/>
<path d="M195.437 622.787C195.533 624.106 194.544 625.252 193.225 625.351C191.906 625.448 190.76 624.459 190.661 623.14C190.563 621.821 191.554 620.673 192.873 620.576C194.192 620.479 195.34 621.468 195.437 622.787Z" fill="#F6AF9A"/>
<path d="M643.701 586.122C643.797 587.442 642.808 588.588 641.489 588.686C640.17 588.785 639.022 587.794 638.925 586.475C638.829 585.156 639.818 584.01 641.137 583.911C642.454 583.814 643.602 584.803 643.701 586.122Z" fill="#F6AF9A"/>
<path d="M661.815 150.641C661.911 151.96 660.923 153.108 659.603 153.205C658.284 153.302 657.138 152.313 657.039 150.994C656.941 149.675 657.932 148.527 659.251 148.43C660.568 148.333 661.716 149.324 661.815 150.641Z" fill="#F6AF9A"/>
<path d="M69.1406 193.542C69.2373 194.861 68.2484 196.007 66.9292 196.105C65.6101 196.202 64.4641 195.213 64.3654 193.894C64.2687 192.575 65.2576 191.427 66.5768 191.33C67.896 191.233 69.0439 192.222 69.1406 193.542Z" fill="#F6AF9A"/>
<path d="M93.635 366.451C93.7317 367.771 92.7428 368.919 91.4236 369.015C90.1045 369.112 88.9585 368.123 88.8598 366.804C88.7611 365.485 89.752 364.337 91.0712 364.24C92.3904 364.143 93.5363 365.132 93.635 366.451Z" fill="#F6AF9A"/>
<path d="M824.489 87.9696C824.586 89.2888 823.597 90.4367 822.278 90.5334C820.959 90.6301 819.813 89.6412 819.714 88.322C819.617 87.0029 820.606 85.8569 821.925 85.7582C823.243 85.6616 824.391 86.6524 824.489 87.9696Z" fill="#F6AF9A"/>
<path d="M695.934 321.807C696.131 324.482 694.125 326.81 691.45 327.007C688.776 327.205 686.448 325.197 686.25 322.524C686.053 319.849 688.059 317.521 690.733 317.324C693.408 317.126 695.736 319.132 695.934 321.807Z" fill="#F6AF9A"/>
<path d="M691.094 309.308V335.265" stroke="#F6AF9A" stroke-width="1.5" stroke-miterlimit="10" stroke-linecap="round" stroke-linejoin="round"/>
<path d="M682.122 322.286H700.064" stroke="#F6AF9A" stroke-width="1.5" stroke-miterlimit="10" stroke-linecap="round" stroke-linejoin="round"/>
<path d="M920.392 469.18C920.589 471.854 918.581 474.182 915.909 474.38C913.234 474.577 910.906 472.571 910.709 469.897C910.511 467.222 912.519 464.894 915.192 464.696C917.864 464.499 920.195 466.505 920.392 469.18Z" fill="#F6AF9A"/>
<path d="M915.55 456.681V482.637" stroke="#F6AF9A" stroke-width="1.5" stroke-miterlimit="10" stroke-linecap="round" stroke-linejoin="round"/>
<path d="M906.58 469.659H924.521" stroke="#F6AF9A" stroke-width="1.5" stroke-miterlimit="10" stroke-linecap="round" stroke-linejoin="round"/>
<path d="M103.479 506.505C103.677 509.18 101.669 511.508 98.996 511.705C96.3214 511.902 93.9932 509.897 93.7959 507.222C93.5985 504.547 95.6044 502.219 98.279 502.022C100.954 501.824 103.282 503.832 103.479 506.505Z" fill="#F6AF9A"/>
<path d="M98.6377 494.008V519.964" stroke="#F6AF9A" stroke-width="1.5" stroke-miterlimit="10" stroke-linecap="round" stroke-linejoin="round"/>
<path d="M89.6672 506.986H107.608" stroke="#F6AF9A" stroke-width="1.5" stroke-miterlimit="10" stroke-linecap="round" stroke-linejoin="round"/>
<path d="M551.806 631.599C552.003 634.273 549.995 636.601 547.322 636.799C544.648 636.996 542.32 634.99 542.122 632.315C541.925 629.641 543.931 627.313 546.605 627.115C549.278 626.916 551.606 628.924 551.806 631.599Z" fill="#F6AF9A"/>
<path d="M546.964 619.1V645.056" stroke="#F6AF9A" stroke-width="1.5" stroke-miterlimit="10" stroke-linecap="round" stroke-linejoin="round"/>
<path d="M537.992 632.078H555.934" stroke="#F6AF9A" stroke-width="1.5" stroke-miterlimit="10" stroke-linecap="round" stroke-linejoin="round"/>
<path d="M119.595 99.9367C119.793 102.611 117.787 104.94 115.112 105.137C112.437 105.334 110.109 103.328 109.912 100.654C109.714 97.9791 111.722 95.6509 114.395 95.4536C117.068 95.2562 119.396 97.2642 119.595 99.9367Z" fill="#F6AF9A"/>
<path d="M114.754 87.4399V113.396" stroke="#F6AF9A" stroke-width="1.5" stroke-miterlimit="10" stroke-linecap="round" stroke-linejoin="round"/>
<path d="M105.783 100.418H123.724" stroke="#F6AF9A" stroke-width="1.5" stroke-miterlimit="10" stroke-linecap="round" stroke-linejoin="round"/>
<path d="M901.839 140.277C902.036 142.952 900.03 145.28 897.356 145.477C894.681 145.675 892.353 143.669 892.155 140.994C891.958 138.32 893.964 135.991 896.639 135.794C899.313 135.597 901.641 137.605 901.839 140.277Z" fill="#F6AF9A"/>
<path d="M896.997 127.78V153.737" stroke="#F6AF9A" stroke-width="1.5" stroke-miterlimit="10" stroke-linecap="round" stroke-linejoin="round"/>
<path d="M888.027 140.759H905.968" stroke="#F6AF9A" stroke-width="1.5" stroke-miterlimit="10" stroke-linecap="round" stroke-linejoin="round"/>
<path d="M919.431 614.288C917.361 604.726 908.86 597.576 898.683 597.576C895.433 597.576 892.387 598.329 889.634 599.612C886.893 591.133 878.966 584.982 869.565 584.924C868.844 569.326 856.007 556.891 840.231 556.891C825.591 556.891 813.463 567.594 811.213 581.599C811.1 582.302 810.212 582.535 809.765 581.981C804.523 575.5 796.517 571.348 787.533 571.348C771.847 571.348 759.125 583.975 758.944 599.618C756.203 598.327 753.176 597.576 749.955 597.576C739.742 597.576 731.207 604.794 729.173 614.409C729.173 614.409 912.247 614.296 919.431 614.288Z" fill="white" stroke="#BAE1F6" stroke-width="1.5" stroke-miterlimit="10" stroke-linecap="round" stroke-linejoin="round"/>
<path d="M577.388 517.582C578.882 510.68 585.019 505.52 592.364 505.52C594.71 505.52 596.907 506.064 598.895 506.988C600.873 500.868 606.597 496.429 613.382 496.387C613.901 485.128 623.168 476.152 634.555 476.152C645.123 476.152 653.877 483.876 655.501 493.986C655.581 494.491 656.224 494.66 656.546 494.262C660.33 489.583 666.108 486.586 672.594 486.586C683.916 486.586 693.098 495.702 693.229 506.992C695.207 506.062 697.392 505.518 699.716 505.518C707.087 505.518 713.248 510.728 714.718 517.666C714.718 517.666 582.572 517.588 577.388 517.582Z" fill="white" stroke="#BAE1F6" stroke-width="1.5" stroke-miterlimit="10" stroke-linecap="round" stroke-linejoin="round"/>
<path d="M365.447 384.571C434.679 384.571 490.804 328.447 490.804 259.214C490.804 189.981 434.679 133.856 365.447 133.856C296.214 133.856 240.089 189.981 240.089 259.214C240.089 328.447 296.214 384.571 365.447 384.571Z" stroke="#F6AF9A" stroke-width="1.5" stroke-miterlimit="10"/>
<path d="M365.446 351.842C416.603 351.842 458.074 310.371 458.074 259.214C458.074 208.057 416.603 166.586 365.446 166.586C314.29 166.586 272.819 208.057 272.819 259.214C272.819 310.371 314.29 351.842 365.446 351.842Z" fill="#F6AF9A"/>
<path d="M365.446 417.303C452.756 417.303 523.535 346.524 523.535 259.214C523.535 171.904 452.756 101.125 365.446 101.125C278.136 101.125 207.357 171.904 207.357 259.214C207.357 346.524 278.136 417.303 365.446 417.303Z" stroke="#F6AF9A" stroke-width="1.5" stroke-miterlimit="10"/>
<path d="M500.371 394.144C574.89 319.625 574.89 198.805 500.371 124.286C425.851 49.7666 305.032 49.7666 230.512 124.286C155.993 198.805 155.993 319.625 230.512 394.144C305.032 468.664 425.851 468.664 500.371 394.144Z" stroke="#F6AF9A" stroke-width="1.5" stroke-miterlimit="10"/>
<path d="M523.515 417.289C610.817 329.987 610.817 188.443 523.515 101.141C436.214 13.8398 294.67 13.8398 207.368 101.141C120.066 188.443 120.066 329.987 207.368 417.289C294.67 504.59 436.214 504.59 523.515 417.289Z" stroke="#F6AF9A" stroke-width="1.5" stroke-miterlimit="10"/>
<path d="M310.42 208.439L365.446 159.7L420.404 208.439H310.42Z" fill="#88AAC4" stroke="#88AAC4" stroke-width="1.5" stroke-miterlimit="10" stroke-linecap="round" stroke-linejoin="round"/>
<path d="M366.89 166.788V205.016H409.97L366.89 166.788Z" fill="#BAE1F6" stroke="#BAE1F6" stroke-width="1.5" stroke-miterlimit="10" stroke-linecap="round" stroke-linejoin="round"/>
<path d="M393.145 219.498H337.748V284.834H393.145V219.498Z" fill="#F6AF9A" stroke="#88AAC4" stroke-width="1.5" stroke-miterlimit="10" stroke-linecap="round" stroke-linejoin="round"/>
<path d="M310.419 284.834H337.747V219.498H310.419V284.834Z" fill="#F6E19B" stroke="#88AAC4" stroke-width="1.5" stroke-miterlimit="10" stroke-linecap="round" stroke-linejoin="round"/>
<path d="M393.146 284.834H420.474V219.498H393.146V284.834Z" fill="white" stroke="#88AAC4" stroke-width="1.5" stroke-miterlimit="10" stroke-linecap="round" stroke-linejoin="round"/>
<path d="M314.835 367.371H416.057V304.067H314.835V367.371Z" fill="#88AAC4" stroke="#88AAC4" stroke-width="1.5" stroke-miterlimit="10" stroke-linecap="round" stroke-linejoin="round"/>
<path d="M365.447 367.371H416.057V304.067H365.447V367.371Z" fill="#BAE1F6" stroke="#BAE1F6" stroke-width="1.5" stroke-miterlimit="10" stroke-linecap="round" stroke-linejoin="round"/>
<path d="M426.418 394.099H304.472V407.481H426.418V394.099Z" fill="#BAE1F6" stroke="#BAE1F6" stroke-width="1.5" stroke-miterlimit="10" stroke-linecap="round" stroke-linejoin="round"/>
<path d="M304.263 409.932L292.721 804.18H438.009L426.42 409.932H304.263Z" fill="#BAE1F6" stroke="#BAE1F6" stroke-width="1.5" stroke-miterlimit="10" stroke-linecap="round" stroke-linejoin="round"/>
<path d="M304.263 407.481L292.721 804.18H334.054L338.837 409.932L304.263 407.481Z" fill="#88AAC4" stroke="#88AAC4" stroke-width="1.5" stroke-miterlimit="10" stroke-linecap="round" stroke-linejoin="round"/>
<path d="M295.834 697.944H434.895L431.663 587.593H299.067L295.834 697.944Z" fill="white"/>
<path d="M392.003 409.932C392.003 409.932 392.939 597.373 395.93 685.62C397.427 724.508 395.93 764.893 396.675 804.18" stroke="#88AAC4" stroke-width="1.5" stroke-miterlimit="10" stroke-linecap="round" stroke-linejoin="round"/>
<path d="M426.42 409.932L438.008 804.18" stroke="#88AAC4" stroke-width="1.5" stroke-miterlimit="10" stroke-linecap="round" stroke-linejoin="round"/>
<path d="M337.716 587.593H299.067L295.834 697.944H336.469L337.716 587.593Z" fill="#BAE1F6"/>
<path d="M304.472 407.481L292.721 804.18" stroke="#88AAC4" stroke-width="1.5" stroke-miterlimit="10" stroke-linecap="round" stroke-linejoin="round"/>
<path d="M378.89 748.261H351.818V804.18H378.89V748.261Z" fill="#88AAC4" stroke="#88AAC4" stroke-width="1.5" stroke-miterlimit="10" stroke-linecap="round" stroke-linejoin="round"/>
<path d="M386.684 748.261H344.211V753.429H386.684V748.261Z" fill="#88AAC4" stroke="#88AAC4" stroke-width="1.5" stroke-miterlimit="10" stroke-linecap="round" stroke-linejoin="round"/>
<path d="M372.248 681.993H358.645V697.871H372.248V681.993Z" fill="#88AAC4" stroke="#88AAC4" stroke-width="1.5" stroke-miterlimit="10" stroke-linecap="round" stroke-linejoin="round"/>
<path d="M375.24 678.672H355.654V681.991H375.24V678.672Z" fill="#88AAC4" stroke="#88AAC4" stroke-width="1.5" stroke-miterlimit="10" stroke-linecap="round" stroke-linejoin="round"/>
<path d="M372.248 546.396H358.645V562.275H372.248V546.396Z" fill="#88AAC4" stroke="#88AAC4" stroke-width="1.5" stroke-miterlimit="10" stroke-linecap="round" stroke-linejoin="round"/>
<path d="M375.24 543.077H355.654V546.396H375.24V543.077Z" fill="#88AAC4" stroke="#88AAC4" stroke-width="1.5" stroke-miterlimit="10" stroke-linecap="round" stroke-linejoin="round"/>
<path d="M372.248 410.802H358.645V426.68H372.248V410.802Z" fill="#88AAC4" stroke="#88AAC4" stroke-width="1.5" stroke-miterlimit="10" stroke-linecap="round" stroke-linejoin="round"/>
<path d="M426.42 407.481H304.263V410.8H426.42V407.481Z" fill="#88AAC4" stroke="#88AAC4" stroke-width="1.5" stroke-miterlimit="10" stroke-linecap="round" stroke-linejoin="round"/>
<path d="M428.068 284.834H302.825V302.567H428.068V284.834Z" fill="#88AAC4" stroke="#88AAC4" stroke-width="1.5" stroke-miterlimit="10" stroke-linecap="round" stroke-linejoin="round"/>
<path d="M420.404 287.633V299.53" stroke="#BAE1F6" stroke-width="1.5" stroke-miterlimit="10" stroke-linecap="round" stroke-linejoin="round"/>
<path d="M409.746 287.633V299.53" stroke="#BAE1F6" stroke-width="1.5" stroke-miterlimit="10" stroke-linecap="round" stroke-linejoin="round"/>
<path d="M399.088 287.633V299.53" stroke="#BAE1F6" stroke-width="1.5" stroke-miterlimit="10" stroke-linecap="round" stroke-linejoin="round"/>
<path d="M388.43 287.633V299.53" stroke="#BAE1F6" stroke-width="1.5" stroke-miterlimit="10" stroke-linecap="round" stroke-linejoin="round"/>
<path d="M377.772 287.633V299.53" stroke="#BAE1F6" stroke-width="1.5" stroke-miterlimit="10" stroke-linecap="round" stroke-linejoin="round"/>
<path d="M428.068 208.439H302.825V219.498H428.068V208.439Z" fill="#88AAC4" stroke="#88AAC4" stroke-width="1.5" stroke-miterlimit="10" stroke-linecap="round" stroke-linejoin="round"/>
<path d="M420.404 210.185V217.605" stroke="#BAE1F6" stroke-width="1.5" stroke-miterlimit="10" stroke-linecap="round" stroke-linejoin="round"/>
<path d="M409.746 210.185V217.605" stroke="#BAE1F6" stroke-width="1.5" stroke-miterlimit="10" stroke-linecap="round" stroke-linejoin="round"/>
<path d="M399.088 210.185V217.605" stroke="#BAE1F6" stroke-width="1.5" stroke-miterlimit="10" stroke-linecap="round" stroke-linejoin="round"/>
<path d="M388.43 210.185V217.605" stroke="#BAE1F6" stroke-width="1.5" stroke-miterlimit="10" stroke-linecap="round" stroke-linejoin="round"/>
<path d="M377.772 210.185V217.605" stroke="#BAE1F6" stroke-width="1.5" stroke-miterlimit="10" stroke-linecap="round" stroke-linejoin="round"/>
<path d="M434.897 380.735H295.998V394.098H434.897V380.735Z" fill="#88AAC4" stroke="#88AAC4" stroke-width="1.5" stroke-miterlimit="10" stroke-linecap="round" stroke-linejoin="round"/>
<path d="M442.711 367.372H288.179V380.735H442.711V367.372Z" fill="#88AAC4" stroke="#88AAC4" stroke-width="1.5" stroke-miterlimit="10" stroke-linecap="round" stroke-linejoin="round"/>
<path d="M295.998 367.372V343.24" stroke="#88AAC4" stroke-width="1.5" stroke-miterlimit="10" stroke-linecap="round" stroke-linejoin="round"/>
<path d="M434.895 367.372V343.24" stroke="#88AAC4" stroke-width="1.5" stroke-miterlimit="10" stroke-linecap="round" stroke-linejoin="round"/>
<path d="M424.211 367.372V343.24" stroke="#88AAC4" stroke-width="1.5" stroke-miterlimit="10" stroke-linecap="round" stroke-linejoin="round"/>
<path d="M413.527 367.372V343.24" stroke="#88AAC4" stroke-width="1.5" stroke-miterlimit="10" stroke-linecap="round" stroke-linejoin="round"/>
<path d="M402.842 367.372V343.24" stroke="#88AAC4" stroke-width="1.5" stroke-miterlimit="10" stroke-linecap="round" stroke-linejoin="round"/>
<path d="M392.158 367.372V343.24" stroke="#88AAC4" stroke-width="1.5" stroke-miterlimit="10" stroke-linecap="round" stroke-linejoin="round"/>
<path d="M381.474 367.372V343.24" stroke="#88AAC4" stroke-width="1.5" stroke-miterlimit="10" stroke-linecap="round" stroke-linejoin="round"/>
<path d="M370.79 367.372V343.24" stroke="#88AAC4" stroke-width="1.5" stroke-miterlimit="10" stroke-linecap="round" stroke-linejoin="round"/>
<path d="M360.105 367.372V343.24" stroke="#88AAC4" stroke-width="1.5" stroke-miterlimit="10" stroke-linecap="round" stroke-linejoin="round"/>
<path d="M349.419 367.372V343.24" stroke="#88AAC4" stroke-width="1.5" stroke-miterlimit="10" stroke-linecap="round" stroke-linejoin="round"/>
<path d="M338.735 367.372V343.24" stroke="#88AAC4" stroke-width="1.5" stroke-miterlimit="10" stroke-linecap="round" stroke-linejoin="round"/>
<path d="M328.05 367.372V343.24" stroke="#88AAC4" stroke-width="1.5" stroke-miterlimit="10" stroke-linecap="round" stroke-linejoin="round"/>
<path d="M317.366 367.372V343.24" stroke="#88AAC4" stroke-width="1.5" stroke-miterlimit="10" stroke-linecap="round" stroke-linejoin="round"/>
<path d="M306.682 367.372V343.24" stroke="#88AAC4" stroke-width="1.5" stroke-miterlimit="10" stroke-linecap="round" stroke-linejoin="round"/>
<path d="M440.309 344.203H290.374C289.045 344.203 287.97 343.125 287.97 341.798C287.97 340.469 289.047 339.393 290.374 339.393H440.309C441.638 339.393 442.713 340.471 442.713 341.798C442.713 343.125 441.636 344.203 440.309 344.203Z" fill="#88AAC4" stroke="#88AAC4" stroke-width="1.5" stroke-miterlimit="10" stroke-linecap="round" stroke-linejoin="round"/>
<path d="M292.012 804.18H437.797C446.731 804.18 454.378 810.47 456.211 819.215C457.665 826.151 460.114 833.824 464.193 838.311C471.304 846.138 479.11 843.151 488.292 850.79C496.064 857.255 499.75 868.286 501.426 874.569C504.096 884.583 508.46 888.698 519.503 890.81C544.787 895.646 553.256 898.784 557.886 913.333H134.495C134.495 913.333 139.028 894.987 153.668 887.35C173.238 877.141 189.225 886.164 198.995 874.67C205.146 867.436 217.323 834.036 231.495 832.809C245.668 831.583 255.754 831.889 265.201 830.225C269.532 829.462 272.208 823.927 273.837 818.155C276.156 809.952 283.487 804.18 292.012 804.18Z" fill="#88AAC4"/>
<path d="M420.054 814.25H437.797C441.968 814.25 445.487 817.14 446.355 821.281C448.626 832.106 452.022 839.892 456.741 845.085C462.322 851.225 468.273 852.991 473.056 854.409C476.522 855.439 479.026 856.182 481.853 858.532C484.711 860.911 488.739 866.072 491.698 877.164C495.405 891.07 502.912 897.89 517.612 900.703C522.421 901.622 526.413 902.459 529.74 903.265" stroke="#BAE1F6" stroke-width="1.5" stroke-miterlimit="10" stroke-linecap="round" stroke-linejoin="round"/>
<path d="M58.0979 913.333H666.93" stroke="#F6AF9A" stroke-width="1.5" stroke-miterlimit="10" stroke-linecap="round" stroke-linejoin="round"/>
<path d="M573.625 921.377H767.787" stroke="#F6AF9A" stroke-width="1.5" stroke-miterlimit="10" stroke-linecap="round" stroke-linejoin="round"/>
<path d="M455.557 941.914H656.312C656.312 941.914 650.403 930.899 642.486 928.808C634.571 926.716 622.493 928.242 614.576 923.205C606.661 918.168 600.883 901.642 584.938 900.898C568.897 900.151 549.884 900.258 539.091 900.258C528.298 900.258 524.194 914.547 518.438 917.385C512.682 920.223 493.897 918.426 490.421 922.311C485.761 927.519 487.354 930.287 482.425 933.277C476.526 936.858 457.087 932.127 455.557 941.914Z" fill="#88AAC4"/>
<path d="M582.773 907.549C593.238 907.549 594.527 913.256 602.911 922.897C609.793 930.81 614.03 932.893 623.16 933.859C632.056 934.802 641.312 935.205 641.312 935.205" stroke="#BAE1F6" stroke-width="1.5" stroke-miterlimit="10" stroke-linecap="round" stroke-linejoin="round"/>
<path d="M413.553 941.914H804.678" stroke="#F6AF9A" stroke-width="1.5" stroke-miterlimit="10" stroke-linecap="round" stroke-linejoin="round"/>
</g>
<defs>
<clipPath id="clip0_755_22139">
<rect width="1007" height="1007" fill="white"/>
</clipPath>
</defs>
</svg>
