<svg width="61" height="46" viewBox="0 0 61 46" fill="none" xmlns="http://www.w3.org/2000/svg">
<path d="M46.9648 19.6577L33.2661 18.7771V16.5113L45.4613 15.3671C41.5947 7.07077 32.9649 1.45293 23.097 2.06792C11.395 2.79677 1.96571 12.5074 1.52893 24.2553C1.25859 31.5198 4.33304 38.0721 9.32977 42.4881C12.75 45.511 18.1706 43.2861 18.6685 38.7424L20.3848 23.0705H28.7516L30.4689 38.7466C30.965 43.2765 36.3677 45.5193 39.7819 42.5107C44.5896 38.2741 47.6241 32.0625 47.6241 25.14C47.6241 23.2503 47.391 21.4159 46.9643 19.6577H46.9648ZM20.3853 14.0366L24.5687 11.8413L28.7516 14.0366V14.9591H20.3848V14.0366H20.3853ZM30.4417 21.7133H18.6952V20.1675H20.3853V16.5016H28.7521V20.1675H30.4422V21.7133H30.4417Z" fill="#75C3EC"/>
<path d="M59.574 14.0043L45.4395 15.3302C46.0817 16.704 46.5985 18.1474 46.9627 19.6531L59.574 20.4635V14.0039V14.0043Z" fill="#ED5E34"/>
</svg>
