<svg width="120" height="48" viewBox="0 0 120 48" fill="none" xmlns="http://www.w3.org/2000/svg">
<path d="M7 10.0047H16.9C17.8 10.0047 20.5 9.70469 21.7 13.9047C22.6 16.6047 23.8 20.8047 25.6 27.1047H26.2C28 20.5047 29.5 16.0047 30.1 13.9047C31.3 9.70469 34.3 10.0047 35.5 10.0047H44.8V38.8047H35.2V21.7047H34.6L29.5 38.8047H22.3L17.2 21.7047H16.3V38.8047H7M48.7 10.0047H58.3V27.1047H59.2L65.5 13.0047C66.7 10.3047 69.4 10.0047 69.4 10.0047H78.4V38.8047H68.8V21.7047H68.2L61.9 35.8047C60.7 38.5047 57.7 38.8047 57.7 38.8047H48.7M91.3 30.1047V38.8047H82.3V23.8047H111.7C110.5 27.4047 106.3 30.1047 101.5 30.1047" fill="#0F754E"/>
<path d="M112.299 22.0047C113.499 16.6047 109.899 10.0047 102.099 10.0047H81.6992C82.2992 16.3047 87.6992 22.0047 93.3992 22.0047" fill="url(#paint0_linear_675_12190)"/>
<defs>
<linearGradient id="paint0_linear_675_12190" x1="108.699" y1="6.10468" x2="84.6992" y2="6.10468" gradientUnits="userSpaceOnUse">
<stop stop-color="#1F5CD7"/>
<stop offset="1" stop-color="#02AEFF"/>
</linearGradient>
</defs>
</svg>
