<svg width="120" height="48" viewBox="0 0 120 48" fill="none" xmlns="http://www.w3.org/2000/svg">
<path d="M95.282 13.7015V25.4367H91.1618V17.2047H87.1945V25.4367H83.0742V13.7007L95.282 13.7015Z" fill="black"/>
<path fill-rule="evenodd" clip-rule="evenodd" d="M74.6117 25.8563C78.3002 25.8563 81.0391 23.5563 81.0391 20.0695C81.0391 16.6947 79.0183 14.5035 75.641 14.5035C74.0823 14.5035 72.7962 15.0615 71.8275 16.0243C72.0588 14.0343 73.7134 12.5815 75.5352 12.5815C75.9557 12.5815 79.121 12.5747 79.121 12.5747L80.9109 9.09106C80.9109 9.09106 76.937 9.18306 75.0896 9.18306C70.8686 9.25786 68.0176 13.1599 68.0176 17.8991C68.0176 23.4203 70.7982 25.8563 74.6117 25.8563ZM74.6342 17.5891C76.0036 17.5891 76.9531 18.5043 76.9531 20.0691C76.9531 21.4775 76.1094 22.6379 74.6342 22.6411C73.223 22.6411 72.2735 21.5659 72.2735 20.0931C72.2735 18.5279 73.223 17.5891 74.6342 17.5891Z" fill="black"/>
<path d="M64.6655 21.5079C64.6655 21.5079 63.6924 22.0783 62.2392 22.1863C60.5684 22.2367 59.0797 21.1635 59.0797 19.2567C59.0797 17.3967 60.3934 16.3307 62.1971 16.3307C63.3031 16.3307 64.7661 17.1103 64.7661 17.1103C64.7661 17.1103 65.8367 15.1123 66.3913 14.1131C65.3758 13.3303 64.0232 12.9011 62.45 12.9011C58.4796 12.9011 55.4043 15.5339 55.4043 19.2331C55.4043 22.9795 58.2947 25.5511 62.45 25.4735C63.6114 25.4295 65.2137 25.0147 66.1903 24.3767L64.6655 21.5079Z" fill="black"/>
<path d="M14 10.448L19.7155 20.838V27.1756L14.0067 37.5452L14 10.448Z" fill="#5B57A2"/>
<path d="M35.9453 17.0572L41.301 13.7188L52.2616 13.7084L35.9453 23.874V17.0572Z" fill="#D90751"/>
<path d="M35.9154 10.3868L35.9457 24.1428L30.2168 20.5628V0L35.9154 10.3868Z" fill="#FAB718"/>
<path d="M52.262 13.7084L41.3009 13.7188L35.9154 10.3868L30.2168 0L52.262 13.7084Z" fill="#ED6F26"/>
<path d="M35.9457 37.6028V30.9288L30.2168 27.4168L30.2199 48L35.9457 37.6028Z" fill="#63B22F"/>
<path d="M41.2875 34.2948L19.7151 20.838L14 10.448L52.2383 34.2812L41.2875 34.2948Z" fill="#1487C9"/>
<path d="M30.2207 48L35.9457 37.6028L41.2879 34.2948L52.2387 34.2812L30.2207 48Z" fill="#017F36"/>
<path d="M14.0059 37.5452L30.2624 27.4172L24.797 24.0068L19.7147 27.1756L14.0059 37.5452Z" fill="#984995"/>
<path d="M59.0799 33.3347C58.954 33.4979 58.7885 33.6211 58.5898 33.7043C58.3861 33.7886 58.168 33.8316 57.948 33.8307C57.7291 33.8337 57.5116 33.7966 57.3057 33.7211C57.1208 33.6528 56.9518 33.5463 56.8094 33.4083C56.6687 33.27 56.5583 33.1032 56.4853 32.9187C56.4062 32.7165 56.3668 32.5006 56.3692 32.2831C56.3692 32.0671 56.4058 31.8671 56.4817 31.6775C56.5545 31.4875 56.6603 31.3247 56.7928 31.1879C56.9254 31.0483 57.0843 30.9419 57.2628 30.8587C57.4449 30.7787 57.6436 30.7355 57.8618 30.7355C58.097 30.7355 58.3153 30.7655 58.5139 30.8251C58.7126 30.8851 58.8813 30.9851 59.0201 31.1251L58.7786 31.5411C58.6618 31.4334 58.5243 31.3517 58.3747 31.3011C58.2325 31.2545 58.084 31.231 57.9346 31.2315C57.8024 31.2315 57.6766 31.2579 57.5543 31.3079C57.4337 31.3572 57.3236 31.4296 57.2298 31.5211C57.1339 31.6151 57.0584 31.7285 57.008 31.8539C56.9517 31.9835 56.9254 32.1267 56.9254 32.2863C56.9254 32.4495 56.9549 32.5959 57.0111 32.7223C57.0678 32.8523 57.1437 32.9623 57.2396 33.0551C57.3356 33.1487 57.4481 33.2183 57.5771 33.2651C57.7065 33.3151 57.8422 33.3383 57.9877 33.3383C58.1663 33.3383 58.3287 33.3015 58.4675 33.2315C58.6051 33.1639 58.7287 33.0702 58.8317 32.9555L59.0799 33.3347ZM59.7615 33.7607V30.7987H60.2846V33.0055L61.9856 30.7987H62.5087V33.7611H61.9856V31.5543L60.2846 33.7611L59.7615 33.7607ZM65.9738 33.3347C65.8451 33.4992 65.6763 33.6267 65.4841 33.7043C65.2802 33.7886 65.062 33.8315 64.8418 33.8307C64.6231 33.8337 64.4057 33.7965 64.2 33.7211C64.0149 33.6528 63.8458 33.5463 63.7032 33.4083C63.5626 33.27 63.4521 33.1032 63.3791 32.9187C63.3001 32.7165 63.2607 32.5006 63.2631 32.2831C63.2631 32.0671 63.2997 31.8671 63.3756 31.6775C63.4487 31.4875 63.5545 31.3247 63.6867 31.1879C63.8192 31.0483 63.9781 30.9419 64.1567 30.8587C64.3453 30.7742 64.5496 30.7322 64.7557 30.7355C64.9909 30.7355 65.2092 30.7655 65.4078 30.8251C65.6064 30.8851 65.7751 30.9851 65.9144 31.1251L65.6725 31.5411C65.5559 31.4333 65.4184 31.3516 65.269 31.3011C65.1268 31.2545 64.9782 31.231 64.8289 31.2315C64.5659 31.2323 64.3134 31.336 64.1237 31.5211C64.0286 31.6158 63.9532 31.729 63.9018 31.8539C63.8456 31.9835 63.8192 32.1267 63.8192 32.2863C63.8192 32.4495 63.8491 32.5959 63.9054 32.7223C63.9616 32.8523 64.0375 32.9623 64.1335 33.0551C64.2295 33.1487 64.3423 33.2183 64.4713 33.2651C64.6003 33.3115 64.736 33.3383 64.8816 33.3383C65.0605 33.3383 65.2194 33.3015 65.3614 33.2315C65.499 33.1639 65.6226 33.0702 65.7256 32.9555L65.9738 33.3347ZM66.242 30.7987H68.9259V31.3247H67.8471V33.7607H67.324V31.3247H66.2451V30.7987H66.242Z" fill="black"/>
<path fill-rule="evenodd" clip-rule="evenodd" d="M71.3684 33.7311C71.567 33.6679 71.7357 33.5711 71.8813 33.4383L71.7224 33.0255C71.6264 33.1123 71.4974 33.1855 71.342 33.2455C71.1863 33.3055 71.0109 33.3351 70.8189 33.3351C70.531 33.3351 70.2927 33.2587 70.1039 33.1023C69.9155 32.9455 69.8129 32.7263 69.7897 32.4463H72.0535C72.0767 32.3431 72.0866 32.2267 72.0866 32.0903C72.0866 31.8871 72.05 31.7043 71.9772 31.5379C71.9095 31.3763 71.8105 31.2302 71.6862 31.1083C71.5601 30.9875 71.4116 30.8936 71.2492 30.8323C71.0793 30.7652 70.8985 30.7313 70.7163 30.7323C70.4713 30.7323 70.2561 30.7755 70.0677 30.8555C69.8896 30.9317 69.7285 31.0438 69.5942 31.1851C69.4638 31.3256 69.3636 31.4922 69.3 31.6743C69.2301 31.8682 69.1953 32.0733 69.1974 32.2799C69.1974 32.5131 69.2371 32.7259 69.3098 32.9159C69.3806 33.0999 69.4889 33.2666 69.6276 33.4051C69.7633 33.5411 69.9285 33.6447 70.124 33.7179C70.3333 33.7933 70.5541 33.8304 70.7761 33.8275C70.9772 33.8262 71.1769 33.7934 71.3684 33.7311ZM70.0445 31.4511C70.2066 31.3015 70.4217 31.2283 70.6931 31.2283C70.948 31.2283 71.1533 31.2983 71.3023 31.4383C71.4514 31.5779 71.5304 31.7711 71.5438 32.0171H69.7566C69.782 31.7993 69.8843 31.5978 70.0445 31.4511Z" fill="black"/>
<path d="M72.7988 30.7987H73.2755L74.4074 32.2667L75.4796 30.7987H75.9429V33.7611H75.4202V31.6011L74.4008 32.9755H74.3807L73.3219 31.6007V33.7607H72.7988V30.7987Z" fill="black"/>
<path fill-rule="evenodd" clip-rule="evenodd" d="M77.366 30.8087C77.2073 30.8509 77.0556 30.9169 76.9161 31.0047L77.0549 31.4247C77.1741 31.3647 77.2933 31.3147 77.4124 31.2715C77.5316 31.2279 77.6838 31.2079 77.8659 31.2079C78.0114 31.2079 78.1275 31.2315 78.2167 31.2779C78.306 31.3211 78.3721 31.3879 78.4185 31.4679C78.4649 31.5479 78.4948 31.6475 78.5113 31.7639C78.5278 31.8803 78.5345 32.0067 78.5345 32.1435C78.4275 32.0676 78.3055 32.0164 78.177 31.9935C78.0528 31.9684 77.9265 31.955 77.7998 31.9535C77.6441 31.9535 77.4986 31.9771 77.3593 32.0167C77.2205 32.0567 77.1013 32.1167 77.0054 32.1967C76.9074 32.2765 76.8282 32.3777 76.7737 32.4927C76.7154 32.6186 76.6859 32.7563 76.6876 32.8955C76.6876 33.1851 76.7705 33.4115 76.9357 33.5715C77.1013 33.7311 77.3196 33.8107 77.591 33.8107C77.836 33.8107 78.0315 33.7675 78.1802 33.6811C78.3292 33.5943 78.4484 33.4947 78.5345 33.3815V33.7643H79.0242V31.9471C79.0242 31.5607 78.9416 31.2615 78.7729 31.0515C78.6073 30.8419 78.3127 30.7355 77.8958 30.7355C77.7102 30.7355 77.5347 30.7619 77.366 30.8087ZM78.2403 33.2087C78.1212 33.2951 77.9654 33.3347 77.7735 33.3347C77.6048 33.3347 77.4722 33.2915 77.3798 33.2083C77.287 33.1219 77.2406 33.0087 77.2406 32.8687C77.2406 32.7859 77.2571 32.7159 77.2936 32.6527C77.3302 32.5895 77.3798 32.5395 77.436 32.4995C77.4976 32.4577 77.5659 32.4272 77.6378 32.4095C77.7141 32.3895 77.79 32.3795 77.8694 32.3795C78.1278 32.3795 78.3493 32.4427 78.5314 32.5759V32.9519C78.4456 33.0497 78.3477 33.1363 78.2403 33.2087ZM83.6416 29.7567C83.7474 29.7071 83.8465 29.6239 83.9393 29.5007L83.6546 29.0847C83.5818 29.1847 83.4992 29.2543 83.4064 29.2911C83.308 29.3302 83.206 29.3591 83.102 29.3775L83.0029 29.3955C82.9167 29.4107 82.8243 29.4275 82.7248 29.4443C82.5652 29.4743 82.4097 29.5234 82.2615 29.5907C82.0263 29.6939 81.8379 29.8335 81.6955 30.0099C81.5531 30.1863 81.4407 30.3859 81.3644 30.6059C81.2871 30.8288 81.2349 31.0598 81.209 31.2947C81.1823 31.5347 81.1693 31.7639 81.1693 31.9835C81.1693 32.2667 81.2055 32.5227 81.2782 32.7523C81.3514 32.9823 81.4536 33.1751 81.5893 33.3315C81.725 33.4915 81.8875 33.6115 82.0794 33.6979C82.2713 33.7843 82.4865 33.8275 82.7279 33.8275C82.9498 33.8275 83.1551 33.7843 83.3403 33.7043C83.5189 33.6274 83.6809 33.5156 83.817 33.3751C83.9492 33.2383 84.0554 33.0751 84.1281 32.8923C84.204 32.7091 84.2406 32.5127 84.2406 32.3063C84.2406 32.0835 84.2076 31.8807 84.1446 31.7007C84.0867 31.5291 83.9943 31.3716 83.8733 31.2383C83.752 31.1072 83.6039 31.0048 83.4394 30.9383C83.2583 30.8657 83.065 30.8296 82.8703 30.8319C82.7445 30.8319 82.6221 30.8487 82.503 30.8819C82.3871 30.9151 82.2758 30.9632 82.1718 31.0251C82.0709 31.0838 81.9785 31.1565 81.8973 31.2411C81.8178 31.3247 81.7518 31.4179 81.7054 31.5243H81.692C81.7022 31.3879 81.7187 31.2483 81.7482 31.1051C81.7781 30.9619 81.821 30.8251 81.8776 30.6955C81.9339 30.5659 82.0066 30.4491 82.0959 30.3427C82.1916 30.2353 82.309 30.1501 82.4401 30.0931C82.5841 30.0233 82.7366 29.973 82.8935 29.9435L82.9974 29.9243C83.1008 29.9051 83.1995 29.8867 83.2939 29.8667C83.4198 29.8403 83.5354 29.8063 83.6416 29.7567ZM81.8013 32.6027C81.7501 32.4346 81.7256 32.2594 81.7286 32.0835C81.7507 31.9825 81.7911 31.8866 81.8477 31.8007C81.904 31.7107 81.9767 31.6311 82.0629 31.5607C82.2573 31.4058 82.4975 31.3226 82.7445 31.3247C83.0524 31.3247 83.2841 31.4211 83.4461 31.6111C83.6086 31.8039 83.688 32.0435 83.688 32.3331C83.688 32.4763 83.6613 32.6063 83.6152 32.7259C83.5705 32.8439 83.5029 32.9515 83.4165 33.0424C83.3301 33.1333 83.2266 33.2056 83.1122 33.2551C82.993 33.3083 82.8636 33.3351 82.7181 33.3351C82.5726 33.3351 82.44 33.3051 82.3177 33.2451C82.1962 33.1863 82.0888 33.1011 82.0031 32.9955C81.9134 32.8778 81.8451 32.7448 81.8013 32.6027ZM88.2519 30.7987H87.7288V33.7611H88.2519V30.7987ZM85.5181 30.7987V31.6875H86.0014C86.2295 31.6875 86.4148 31.7175 86.5639 31.7739C86.7129 31.8307 86.8321 31.9071 86.9214 32.0003C87.0107 32.0935 87.0736 32.2035 87.1102 32.3263C87.1463 32.4495 87.1664 32.5759 87.1664 32.7091C87.1664 32.8423 87.1463 32.9691 87.1035 33.0955C87.0637 33.2219 86.9941 33.3315 86.9013 33.4315C86.8089 33.5315 86.683 33.6115 86.5241 33.6715C86.3652 33.7311 86.1733 33.7643 85.9416 33.7643H84.9918V30.7987H85.5181ZM85.5181 33.2683H85.8988C86.1603 33.2683 86.3456 33.2219 86.4514 33.1283C86.5576 33.0351 86.6103 32.9023 86.6103 32.7259C86.6103 32.5459 86.554 32.4099 86.4482 32.3163C86.3389 32.2231 86.1568 32.1763 85.9055 32.1763H85.5181V33.2683Z" fill="black"/>
<path d="M91.7108 33.3347C91.5849 33.4979 91.4193 33.6211 91.2207 33.7043C91.0169 33.7886 90.7988 33.8315 90.5788 33.8307C90.36 33.8337 90.1424 33.7966 89.9366 33.7211C89.7516 33.6529 89.5826 33.5464 89.4402 33.4083C89.2996 33.27 89.189 33.1032 89.1157 32.9187C89.037 32.7164 88.9977 32.5006 89.0001 32.2831C89.0001 32.0671 89.0363 31.8671 89.1126 31.6775C89.1854 31.4875 89.2912 31.3247 89.4237 31.1879C89.5562 31.0483 89.7147 30.9419 89.8937 30.8587C90.0823 30.7742 90.2866 30.7321 90.4927 30.7355C90.7275 30.7355 90.9462 30.7655 91.1448 30.8251C91.3434 30.8851 91.5121 30.9851 91.651 31.1251L91.4095 31.5411C91.2927 31.4334 91.1551 31.3517 91.0056 31.3011C90.8634 31.2545 90.7148 31.231 90.5655 31.2315C90.4333 31.2315 90.3074 31.2579 90.1847 31.3079C90.0643 31.3573 89.9543 31.4296 89.8607 31.5211C89.7655 31.6157 89.69 31.7289 89.6388 31.8539C89.5826 31.9835 89.5562 32.1267 89.5562 32.2863C89.5562 32.4495 89.5857 32.5959 89.642 32.7223C89.6982 32.8523 89.7745 32.9623 89.8705 33.0551C89.9665 33.1487 90.0789 33.2183 90.2079 33.2651C90.3373 33.3115 90.473 33.3383 90.6186 33.3383C90.7971 33.3383 90.956 33.3015 91.0984 33.2315C91.236 33.1639 91.3596 33.0702 91.4626 32.9555L91.7108 33.3347ZM91.9786 30.7987H94.6629V31.3247H93.5837V33.7607H93.061V31.3247H91.9821V30.7987H91.9786Z" fill="black"/>
<path fill-rule="evenodd" clip-rule="evenodd" d="M95.7555 30.7991H95.2324V35.0791H95.7555V33.6247C95.8613 33.6947 95.9872 33.7447 96.1327 33.7779C96.2782 33.8111 96.4304 33.8275 96.5862 33.8275C96.8178 33.8275 97.0263 33.7843 97.2151 33.7047C97.3961 33.6259 97.5602 33.5117 97.6981 33.3687C97.8337 33.2251 97.9364 33.0587 98.0092 32.8623C98.0819 32.6663 98.1185 32.4563 98.1185 32.2335C98.1185 32.0135 98.0855 31.8107 98.0225 31.6275C97.9633 31.4535 97.8711 31.293 97.7512 31.1551C97.6335 31.0205 97.4875 30.9147 97.324 30.8455C97.1454 30.7674 96.9525 30.7288 96.7581 30.7323C96.5531 30.7323 96.3612 30.7723 96.1791 30.8523C95.997 30.9323 95.8546 31.0283 95.7555 31.1483V30.7991ZM96.1197 31.3483C96.2688 31.2683 96.4308 31.2283 96.6062 31.2283C96.7585 31.2283 96.8941 31.2515 97.0168 31.3015C97.136 31.3515 97.2351 31.4215 97.3181 31.5147C97.4007 31.6079 97.4636 31.7147 97.5034 31.8407C97.5462 31.9671 97.5663 32.1039 97.5663 32.2535C97.5663 32.4135 97.5396 32.5563 97.4935 32.6895C97.4502 32.8158 97.3813 32.9314 97.2914 33.0291C97.2011 33.1255 97.0917 33.2015 96.9704 33.2519C96.8353 33.3094 96.6898 33.3378 96.5433 33.3351C96.4013 33.3351 96.2688 33.3187 96.1429 33.2855C96.0051 33.2473 95.8744 33.1865 95.7559 33.1055V31.6375C95.8483 31.5247 95.9711 31.4283 96.1197 31.3483ZM102.13 30.7987H101.607V33.7611H102.13V30.7987ZM99.3928 30.7987V31.6875H99.8758C100.104 31.6875 100.29 31.7175 100.439 31.7739C100.588 31.8307 100.707 31.9071 100.796 32.0003C100.885 32.0935 100.948 32.2035 100.985 32.3263C101.021 32.4495 101.041 32.5759 101.041 32.7091C101.041 32.8423 101.021 32.9691 100.978 33.0955C100.939 33.2219 100.869 33.3315 100.776 33.4315C100.684 33.5315 100.558 33.6115 100.399 33.6715C100.24 33.7311 100.048 33.7643 99.8164 33.7643H98.8666V30.7987H99.3928ZM99.3964 33.2683H99.7771C100.038 33.2683 100.224 33.2219 100.33 33.1283C100.435 33.0351 100.489 32.9023 100.489 32.7259C100.489 32.5459 100.432 32.4099 100.327 32.3163C100.217 32.2231 100.035 32.1763 99.7838 32.1763H99.3964V33.2683Z" fill="black"/>
<path d="M104.637 32.2267L105.756 33.7611H105.114L104.25 32.5627L103.373 33.7611H102.764L103.876 32.2531L102.83 30.7987H103.472L104.27 31.9171L105.081 30.7987H105.69L104.637 32.2267ZM58.6926 37.4223H57.0876V39.8919H56.5645V36.9299H59.2153V39.8919H58.6926V37.4223ZM62.184 37.4555H61.1516L61.1181 37.9547C61.082 38.3775 61.0324 38.7171 60.9628 38.9763C60.8932 39.2363 60.807 39.4359 60.7079 39.5755C60.6088 39.7155 60.4928 39.8119 60.3602 39.8587C60.2235 39.9091 60.0789 39.9339 59.9335 39.9319L59.8938 39.4191C59.95 39.4223 60.0161 39.4091 60.0889 39.3759C60.162 39.3427 60.2348 39.2695 60.304 39.1599C60.3736 39.0463 60.4365 38.8867 60.4928 38.6803C60.549 38.4707 60.5856 38.1979 60.6053 37.8547L60.6584 36.9327H62.7071V39.8951H62.184V37.4555Z" fill="black"/>
<path fill-rule="evenodd" clip-rule="evenodd" d="M64.118 36.9367C63.9489 36.9831 63.7966 37.0495 63.6676 37.1327L63.8069 37.5523C63.926 37.4923 64.0452 37.4423 64.164 37.3991C64.2832 37.3559 64.4358 37.3359 64.6175 37.3359C64.7634 37.3359 64.879 37.3591 64.9683 37.4055C65.058 37.4491 65.124 37.5155 65.1705 37.5955C65.2165 37.6755 65.2464 37.7755 65.2629 37.8915C65.2794 38.0083 65.2861 38.1347 65.2861 38.2711C65.1791 38.1953 65.057 38.1443 64.9286 38.1215C64.8043 38.0963 64.6781 38.0829 64.5514 38.0815C64.396 38.0815 64.2501 38.1047 64.1113 38.1447C63.9721 38.1847 63.8529 38.2447 63.7569 38.3247C63.659 38.4045 63.5798 38.5057 63.5253 38.6207C63.4671 38.7466 63.4378 38.8843 63.4395 39.0235C63.4395 39.3127 63.5221 39.5395 63.6877 39.6991C63.8529 39.8587 64.0716 39.9387 64.3429 39.9387C64.588 39.9387 64.7831 39.8955 64.9321 39.8087C65.0808 39.7223 65.2 39.6223 65.2861 39.5091V39.8919H65.7762V38.0747C65.7762 37.6887 65.6932 37.3891 65.5244 37.1795C65.3589 36.9695 65.0643 36.8635 64.6474 36.8635C64.4685 36.8636 64.2905 36.8885 64.118 36.9367ZM64.995 39.3359C64.8763 39.4227 64.7205 39.4627 64.5286 39.4627C64.3563 39.4627 64.2273 39.4195 64.1349 39.3359C64.0421 39.2495 63.9957 39.1363 63.9957 38.9967C63.9957 38.9135 64.0122 38.8435 64.0488 38.7803C64.0849 38.7171 64.1349 38.6671 64.1911 38.6271C64.2474 38.5871 64.3166 38.5571 64.3929 38.5371C64.4686 38.5172 64.5464 38.5072 64.6246 38.5075C64.8826 38.5075 65.1044 38.5707 65.2865 38.7035V39.0795C65.2005 39.1773 65.1026 39.2634 64.995 39.3359Z" fill="black"/>
<path d="M66.2891 36.9299H68.9734V37.4555H67.8941V39.8919H67.3714V37.4559H66.2926V36.9299H66.2891Z" fill="black"/>
<path fill-rule="evenodd" clip-rule="evenodd" d="M71.4156 39.8619C71.6143 39.7987 71.783 39.7019 71.9285 39.5691L71.7696 39.1563C71.6737 39.2431 71.5447 39.3163 71.3889 39.3763C71.2336 39.4363 71.0581 39.4659 70.8662 39.4659C70.5783 39.4659 70.34 39.3895 70.1512 39.2331C69.9624 39.0767 69.8601 38.8571 69.8369 38.5771H72.1008C72.1236 38.4743 72.1338 38.3575 72.1338 38.2211C72.1338 38.0183 72.0972 37.8351 72.0245 37.6687C71.9567 37.5071 71.8576 37.3611 71.733 37.2395C71.6072 37.1185 71.4588 37.0245 71.2965 36.9631C71.1266 36.8961 70.9458 36.8621 70.7636 36.8631C70.5185 36.8631 70.3034 36.9063 70.115 36.9863C69.9368 37.0623 69.7757 37.1744 69.6415 37.3159C69.5111 37.4565 69.4107 37.623 69.3469 37.8051C69.2771 37.999 69.2424 38.2042 69.2442 38.4107C69.2442 38.6439 69.2839 38.8567 69.3567 39.0467C69.4298 39.2363 69.5388 39.3995 69.6745 39.5359C69.8102 39.6723 69.9758 39.7755 70.1712 39.8487C70.3804 39.9243 70.601 39.9615 70.8229 39.9587C71.0184 39.9587 71.217 39.9251 71.4156 39.8619ZM70.0886 37.5787C70.2507 37.4291 70.4658 37.3559 70.7372 37.3559C70.9956 37.3559 71.1974 37.4291 71.3464 37.5655C71.4951 37.7055 71.5745 37.8983 71.5879 38.1447H69.8007C69.826 37.9267 69.9283 37.7255 70.0886 37.5787ZM72.3887 36.9299H73.0506L74.0598 38.3579L72.981 39.8919H72.3391L73.4707 38.3575L72.3887 36.9299ZM74.1888 36.9299H74.7119V39.8919H74.1888V36.9299ZM76.5817 39.8919L75.4301 38.3575L76.5058 36.9295H75.8569L74.8409 38.3575L75.9332 39.8919H76.5817ZM78.9714 39.8619C79.1701 39.7987 79.3388 39.7019 79.4843 39.5691L79.3254 39.1563C79.2294 39.2431 79.1004 39.3163 78.9451 39.3763C78.7893 39.4363 78.6139 39.4659 78.422 39.4659C78.1341 39.4659 77.8957 39.3895 77.707 39.2331C77.5186 39.0767 77.4159 38.8571 77.3927 38.5771H79.6566C79.6798 38.4743 79.6896 38.3575 79.6896 38.2211C79.6896 38.0183 79.6534 37.8351 79.5803 37.6687C79.5125 37.5072 79.4135 37.3613 79.2892 37.2395C79.1633 37.1185 79.0147 37.0245 78.8523 36.9631C78.6824 36.896 78.5016 36.8621 78.3193 36.8631C78.0747 36.8631 77.8596 36.9063 77.6708 36.9863C77.4927 37.0624 77.3318 37.1745 77.1976 37.3159C77.067 37.4563 76.9666 37.6229 76.903 37.8051C76.8331 37.999 76.7983 38.2042 76.8004 38.4107C76.8004 38.6439 76.8401 38.8567 76.9129 39.0467C76.9856 39.2363 77.095 39.3995 77.2307 39.5359C77.3664 39.6723 77.5316 39.7755 77.727 39.8487C77.9363 39.9243 78.1571 39.9615 78.3791 39.9587C78.5802 39.9571 78.78 39.9245 78.9714 39.8619ZM77.6444 37.5787C77.8069 37.4291 78.022 37.3559 78.2934 37.3559C78.5482 37.3559 78.7532 37.4291 78.9022 37.5655C79.0513 37.7055 79.1307 37.8983 79.1437 38.1447H77.3565C77.3818 37.9267 77.4841 37.7255 77.6444 37.5787ZM81.8115 35.9347C81.5035 35.9347 81.3348 35.7615 81.3085 35.4155H80.8153C80.8153 35.5483 80.8385 35.6683 80.8813 35.7815C80.9246 35.8947 80.9875 35.9911 81.0701 36.0711C81.1527 36.1511 81.2589 36.2143 81.3812 36.2639C81.5035 36.3139 81.6459 36.3371 81.808 36.3371C81.957 36.3371 82.0896 36.3139 82.2087 36.2639C82.3279 36.2175 82.427 36.1511 82.5132 36.0711C82.5957 35.9911 82.6622 35.8947 82.7082 35.7815C82.7546 35.6683 82.7778 35.5483 82.7778 35.4155H82.2882C82.265 35.7615 82.1025 35.9347 81.8115 35.9347ZM80.398 36.9295V39.8919H80.9211L82.6221 37.6851V39.8919H83.1452V36.9295H82.6221L80.9211 39.1363V36.9295H80.398Z" fill="black"/>
</svg>
