<svg width="792" height="1055" viewBox="0 0 792 1055" fill="none" xmlns="http://www.w3.org/2000/svg">
<path d="M616.173 157.617C616.255 158.571 615.418 159.401 614.301 159.471C613.185 159.54 612.213 158.826 612.131 157.872C612.05 156.918 612.887 156.09 614.003 156.018C615.12 155.949 616.091 156.663 616.173 157.617Z" fill="#D5D5D5"/>
<path d="M709.239 269.228C709.321 270.182 708.484 271.012 707.368 271.082C706.251 271.152 705.28 270.437 705.198 269.483C705.116 268.529 705.953 267.699 707.07 267.629C708.186 267.56 709.158 268.274 709.239 269.228Z" fill="#D5D5D5"/>
<path d="M142.938 408.244C143.02 409.198 142.183 410.026 141.066 410.098C139.95 410.168 138.98 409.453 138.896 408.499C138.813 407.545 139.651 406.715 140.768 406.646C141.884 406.576 142.856 407.291 142.938 408.244Z" fill="#D5D5D5"/>
<path d="M522.327 381.738C522.409 382.691 521.572 383.52 520.455 383.591C519.339 383.663 518.367 382.946 518.285 381.993C518.203 381.039 519.04 380.21 520.157 380.139C521.272 380.069 522.243 380.784 522.327 381.738Z" fill="#D5D5D5"/>
<path d="M537.658 66.9113C537.739 67.8649 536.902 68.6949 535.786 68.7647C534.67 68.8346 533.7 68.1197 533.616 67.1661C533.533 66.2124 534.371 65.3825 535.488 65.3126C536.603 65.2427 537.574 65.959 537.658 66.9113Z" fill="#D5D5D5"/>
<path d="M36.047 97.9254C36.1288 98.8791 35.2919 99.7076 34.1754 99.7789C33.0589 99.8488 32.089 99.1339 32.0055 98.1802C31.9237 97.2265 32.7606 96.3966 33.8771 96.3267C34.9936 96.2569 35.9652 96.9717 36.047 97.9254Z" fill="#D5D5D5"/>
<path d="M56.7777 222.929C56.8595 223.883 56.0226 224.712 54.9061 224.782C53.7896 224.852 52.8197 224.137 52.7362 223.184C52.6527 222.23 53.4913 221.4 54.6078 221.33C55.7243 221.26 56.6942 221.975 56.7777 222.929Z" fill="#D5D5D5"/>
<path d="M675.338 21.6034C675.42 22.5571 674.583 23.387 673.466 23.4569C672.35 23.5268 671.38 22.8119 671.297 21.8582C671.215 20.9045 672.052 20.0761 673.168 20.0047C674.283 19.9348 675.255 20.6512 675.338 21.6034Z" fill="#D5D5D5"/>
<path d="M566.535 190.654C566.703 192.587 565.005 194.271 562.741 194.413C560.477 194.556 558.507 193.104 558.34 191.172C558.173 189.239 559.871 187.555 562.134 187.413C564.398 187.27 566.368 188.72 566.535 190.654Z" fill="#D5D5D5"/>
<path d="M562.438 181.618V200.383" stroke="#D5D5D5" stroke-width="1.5" stroke-miterlimit="10" stroke-linecap="round" stroke-linejoin="round"/>
<path d="M554.845 191H570.031" stroke="#D5D5D5" stroke-width="1.5" stroke-miterlimit="10" stroke-linecap="round" stroke-linejoin="round"/>
<path d="M756.506 297.195C756.673 299.129 754.973 300.812 752.711 300.954C750.448 301.097 748.477 299.647 748.31 297.713C748.143 295.78 749.843 294.097 752.105 293.954C754.366 293.811 756.339 295.262 756.506 297.195Z" fill="#D5D5D5"/>
<path d="M752.407 288.159V306.924" stroke="#D5D5D5" stroke-width="1.5" stroke-miterlimit="10" stroke-linecap="round" stroke-linejoin="round"/>
<path d="M744.816 297.542H760" stroke="#D5D5D5" stroke-width="1.5" stroke-miterlimit="10" stroke-linecap="round" stroke-linejoin="round"/>
<path d="M65.1097 324.179C65.2767 326.113 63.5773 327.796 61.3153 327.938C59.0517 328.081 57.0812 326.631 56.9142 324.697C56.7471 322.764 58.4449 321.081 60.7085 320.938C62.9722 320.795 64.9426 322.247 65.1097 324.179Z" fill="#D5D5D5"/>
<path d="M61.0117 315.145V333.91" stroke="#D5D5D5" stroke-width="1.5" stroke-miterlimit="10" stroke-linecap="round" stroke-linejoin="round"/>
<path d="M53.4194 324.527H68.6036" stroke="#D5D5D5" stroke-width="1.5" stroke-miterlimit="10" stroke-linecap="round" stroke-linejoin="round"/>
<path d="M444.552 414.614C444.719 416.548 443.019 418.231 440.757 418.374C438.494 418.516 436.523 417.066 436.356 415.133C436.189 413.199 437.887 411.516 440.15 411.373C442.412 411.229 444.383 412.681 444.552 414.614Z" fill="#D5D5D5"/>
<path d="M440.454 405.578V424.343" stroke="#D5D5D5" stroke-width="1.5" stroke-miterlimit="10" stroke-linecap="round" stroke-linejoin="round"/>
<path d="M432.86 414.961H448.046" stroke="#D5D5D5" stroke-width="1.5" stroke-miterlimit="10" stroke-linecap="round" stroke-linejoin="round"/>
<path d="M78.7493 30.2549C78.9164 32.1885 77.2186 33.8716 74.955 34.0143C72.6913 34.157 70.7209 32.7068 70.5538 30.7732C70.3868 28.8397 72.0862 27.1565 74.3481 27.0138C76.6101 26.8711 78.5806 28.3228 78.7493 30.2549Z" fill="#D5D5D5"/>
<path d="M74.6514 21.2205V39.9854" stroke="#D5D5D5" stroke-width="1.5" stroke-miterlimit="10" stroke-linecap="round" stroke-linejoin="round"/>
<path d="M67.0596 30.6029H82.2437" stroke="#D5D5D5" stroke-width="1.5" stroke-miterlimit="10" stroke-linecap="round" stroke-linejoin="round"/>
<path d="M740.804 59.4187C740.971 61.3523 739.273 63.0354 737.01 63.1781C734.746 63.3208 732.776 61.8706 732.609 59.937C732.441 58.0035 734.139 56.3203 736.403 56.1776C738.667 56.035 740.637 57.4866 740.804 59.4187Z" fill="#D5D5D5"/>
<path d="M736.706 50.3842V69.1491" stroke="#D5D5D5" stroke-width="1.5" stroke-miterlimit="10" stroke-linecap="round" stroke-linejoin="round"/>
<path d="M729.114 59.7666H744.298" stroke="#D5D5D5" stroke-width="1.5" stroke-miterlimit="10" stroke-linecap="round" stroke-linejoin="round"/>
<path d="M570.991 719.617C571.06 720.571 570.346 721.401 569.392 721.471C568.438 721.54 567.608 720.826 567.538 719.872C567.469 718.918 568.183 718.09 569.137 718.018C570.091 717.949 570.921 718.663 570.991 719.617Z" fill="#D5D5D5"/>
<path d="M650.485 831.228C650.555 832.182 649.84 833.012 648.887 833.082C647.933 833.152 647.103 832.437 647.033 831.483C646.963 830.529 647.678 829.699 648.632 829.63C649.585 829.56 650.415 830.275 650.485 831.228Z" fill="#D5D5D5"/>
<path d="M166.761 970.244C166.831 971.198 166.116 972.026 165.163 972.098C164.209 972.168 163.38 971.453 163.309 970.499C163.238 969.545 163.954 968.715 164.908 968.646C165.861 968.576 166.691 969.291 166.761 970.244Z" fill="#D5D5D5"/>
<path d="M490.829 943.738C490.899 944.691 490.184 945.52 489.23 945.591C488.277 945.663 487.447 944.946 487.377 943.993C487.307 943.039 488.022 942.21 488.975 942.139C489.928 942.069 490.758 942.784 490.829 943.738Z" fill="#D5D5D5"/>
<path d="M503.924 628.911C503.994 629.865 503.279 630.695 502.326 630.765C501.372 630.835 500.544 630.12 500.472 629.166C500.401 628.212 501.117 627.382 502.071 627.313C503.023 627.243 503.853 627.959 503.924 628.911Z" fill="#D5D5D5"/>
<path d="M75.4569 659.925C75.5268 660.879 74.8119 661.708 73.8582 661.779C72.9045 661.849 72.0761 661.134 72.0047 660.18C71.9348 659.227 72.6497 658.397 73.6034 658.327C74.5571 658.257 75.387 658.972 75.4569 659.925Z" fill="#D5D5D5"/>
<path d="M93.1646 784.929C93.2345 785.883 92.5196 786.712 91.5659 786.782C90.6122 786.852 89.7838 786.137 89.7124 785.184C89.6411 784.23 90.3574 783.4 91.3111 783.33C92.2648 783.26 93.0933 783.975 93.1646 784.929Z" fill="#D5D5D5"/>
<path d="M621.528 583.603C621.598 584.557 620.883 585.387 619.93 585.457C618.976 585.527 618.147 584.812 618.076 583.858C618.006 582.905 618.721 582.076 619.675 582.005C620.627 581.935 621.457 582.651 621.528 583.603Z" fill="#D5D5D5"/>
<path d="M528.59 752.654C528.733 754.587 527.283 756.27 525.349 756.413C523.416 756.556 521.732 755.104 521.59 753.172C521.447 751.238 522.897 749.555 524.831 749.413C526.764 749.27 528.448 750.72 528.59 752.654Z" fill="#D5D5D5"/>
<path d="M525.091 743.618V762.383" stroke="#D5D5D5" stroke-width="1.5" stroke-miterlimit="10" stroke-linecap="round" stroke-linejoin="round"/>
<path d="M518.605 753H531.576" stroke="#D5D5D5" stroke-width="1.5" stroke-miterlimit="10" stroke-linecap="round" stroke-linejoin="round"/>
<path d="M690.86 859.195C691.003 861.129 689.551 862.812 687.619 862.954C685.686 863.097 684.002 861.647 683.86 859.713C683.717 857.78 685.169 856.097 687.101 855.954C689.033 855.811 690.718 857.262 690.86 859.195Z" fill="#D5D5D5"/>
<path d="M687.36 850.159V868.924" stroke="#D5D5D5" stroke-width="1.5" stroke-miterlimit="10" stroke-linecap="round" stroke-linejoin="round"/>
<path d="M680.875 859.542H693.845" stroke="#D5D5D5" stroke-width="1.5" stroke-miterlimit="10" stroke-linecap="round" stroke-linejoin="round"/>
<path d="M100.282 886.179C100.424 888.113 98.9727 889.796 97.0406 889.938C95.107 890.081 93.4239 888.631 93.2812 886.697C93.1385 884.764 94.5887 883.081 96.5222 882.938C98.4558 882.795 100.139 884.247 100.282 886.179Z" fill="#D5D5D5"/>
<path d="M96.7812 877.145V895.91" stroke="#D5D5D5" stroke-width="1.5" stroke-miterlimit="10" stroke-linecap="round" stroke-linejoin="round"/>
<path d="M90.2964 886.527H103.266" stroke="#D5D5D5" stroke-width="1.5" stroke-miterlimit="10" stroke-linecap="round" stroke-linejoin="round"/>
<path d="M424.394 976.614C424.537 978.548 423.085 980.231 421.153 980.374C419.22 980.516 417.537 979.066 417.394 977.132C417.251 975.199 418.701 973.516 420.635 973.373C422.567 973.229 424.25 974.681 424.394 976.614Z" fill="#D5D5D5"/>
<path d="M420.894 967.578V986.343" stroke="#D5D5D5" stroke-width="1.5" stroke-miterlimit="10" stroke-linecap="round" stroke-linejoin="round"/>
<path d="M414.408 976.961H427.379" stroke="#D5D5D5" stroke-width="1.5" stroke-miterlimit="10" stroke-linecap="round" stroke-linejoin="round"/>
<path d="M111.932 592.255C112.075 594.188 110.625 595.872 108.691 596.014C106.758 596.157 105.075 594.707 104.932 592.773C104.789 590.84 106.241 589.157 108.173 589.014C110.105 588.871 111.788 590.323 111.932 592.255Z" fill="#D5D5D5"/>
<path d="M108.432 583.22V601.985" stroke="#D5D5D5" stroke-width="1.5" stroke-miterlimit="10" stroke-linecap="round" stroke-linejoin="round"/>
<path d="M101.947 592.603H114.917" stroke="#D5D5D5" stroke-width="1.5" stroke-miterlimit="10" stroke-linecap="round" stroke-linejoin="round"/>
<path d="M677.447 621.419C677.59 623.352 676.14 625.035 674.206 625.178C672.273 625.321 670.589 623.871 670.447 621.937C670.304 620.003 671.754 618.32 673.688 618.178C675.621 618.035 677.304 619.487 677.447 621.419Z" fill="#D5D5D5"/>
<path d="M673.947 612.384V631.149" stroke="#D5D5D5" stroke-width="1.5" stroke-miterlimit="10" stroke-linecap="round" stroke-linejoin="round"/>
<path d="M667.462 621.767H680.432" stroke="#D5D5D5" stroke-width="1.5" stroke-miterlimit="10" stroke-linecap="round" stroke-linejoin="round"/>
<path d="M345.985 660.73C345.842 658.797 347.292 657.114 349.226 656.971C351.16 656.828 352.843 658.279 352.985 660.212C353.128 662.146 351.676 663.829 349.744 663.972C347.812 664.114 346.129 662.663 345.985 660.73Z" fill="#D5D5D5"/>
<path d="M349.485 669.765L349.485 651" stroke="#D5D5D5" stroke-width="1.5" stroke-miterlimit="10" stroke-linecap="round" stroke-linejoin="round"/>
<path d="M355.97 660.382L343 660.382" stroke="#D5D5D5" stroke-width="1.5" stroke-miterlimit="10" stroke-linecap="round" stroke-linejoin="round"/>
<path d="M261.484 295.923C261.342 293.99 262.793 292.307 264.726 292.164C266.659 292.021 268.342 293.471 268.485 295.405C268.628 297.339 267.177 299.022 265.244 299.164C263.31 299.307 261.627 297.855 261.484 295.923Z" fill="#D5D5D5"/>
<path d="M264.985 304.958L264.985 286.193" stroke="#D5D5D5" stroke-width="1.5" stroke-miterlimit="10" stroke-linecap="round" stroke-linejoin="round"/>
<path d="M271.47 295.575L258.5 295.575" stroke="#D5D5D5" stroke-width="1.5" stroke-miterlimit="10" stroke-linecap="round" stroke-linejoin="round"/>
<path d="M268.602 397.173C268.532 396.22 269.247 395.39 270.2 395.32C271.154 395.25 271.982 395.965 272.054 396.919C272.125 397.872 271.409 398.702 270.455 398.772C269.501 398.842 268.673 398.127 268.602 397.173Z" fill="#D5D5D5"/>
<path d="M445.129 753.393C445.682 752.613 446.762 752.428 447.542 752.981C448.322 753.534 448.506 754.613 447.954 755.393C447.402 756.174 446.321 756.358 445.541 755.805C444.761 755.252 444.577 754.173 445.129 753.393Z" fill="#D5D5D5"/>
<path d="M621.024 475.436C621.577 474.656 622.657 474.471 623.437 475.024C624.217 475.577 624.401 476.656 623.849 477.437C623.297 478.218 622.216 478.402 621.436 477.849C620.656 477.296 620.472 476.217 621.024 475.436Z" fill="#D5D5D5"/>
<path d="M396.005 324.858C395.935 323.905 396.65 323.075 397.604 323.005C398.557 322.935 399.386 323.65 399.457 324.603C399.528 325.557 398.812 326.387 397.858 326.457C396.905 326.527 396.076 325.812 396.005 324.858Z" fill="#D5D5D5"/>
<path d="M323.005 112.858C322.935 111.905 323.65 111.075 324.604 111.005C325.557 110.935 326.386 111.65 326.457 112.603C326.528 113.557 325.812 114.387 324.858 114.457C323.905 114.527 323.076 113.812 323.005 112.858Z" fill="#D5D5D5"/>
<path d="M286.309 522.177C286.239 521.223 286.954 520.395 287.908 520.324C288.862 520.254 289.69 520.969 289.761 521.922C289.831 522.876 289.116 523.706 288.163 523.776C287.209 523.846 286.379 523.131 286.309 522.177Z" fill="#D5D5D5"/>
<path d="M379.215 861.072C379.769 860.292 380.847 860.108 381.628 860.66C382.408 861.213 382.592 862.292 382.04 863.073C381.487 863.853 380.407 864.038 379.627 863.484C378.847 862.931 378.662 861.852 379.215 861.072Z" fill="#D5D5D5"/>
<path d="M236.024 834.436C236.578 833.656 237.656 833.472 238.437 834.024C239.217 834.577 239.401 835.656 238.849 836.437C238.296 837.217 237.216 837.402 236.436 836.849C235.656 836.296 235.471 835.216 236.024 834.436Z" fill="#D5D5D5"/>
<path d="M233.024 714.436C233.578 713.656 234.656 713.472 235.437 714.024C236.217 714.577 236.401 715.656 235.849 716.437C235.296 717.217 234.216 717.402 233.436 716.849C232.656 716.296 232.471 715.216 233.024 714.436Z" fill="#D5D5D5"/>
<path d="M195.005 211.858C194.935 210.905 195.65 210.076 196.604 210.005C197.557 209.935 198.386 210.65 198.457 211.603C198.528 212.557 197.812 213.387 196.858 213.457C195.905 213.527 195.075 212.812 195.005 211.858Z" fill="#D5D5D5"/>
</svg>
