<svg width="24" height="24" viewBox="0 0 24 24" fill="none" xmlns="http://www.w3.org/2000/svg">
<path fill-rule="evenodd" clip-rule="evenodd" d="M15.1853 20.3433C16.1538 21.059 17.5363 20.5322 17.7866 19.3557L20.4275 6.90899C20.6794 5.7233 19.5154 4.73481 18.3874 5.16909L2.87204 11.1533C1.74994 11.5857 1.808 13.1868 2.95055 13.544L6.64947 14.698L7.91034 18.849C8.21885 19.8653 9.49286 20.1915 10.253 19.4526L11.8614 17.8878L15.1853 20.3433ZM12.2243 16.2909L10.6986 15.1638C10.6482 15.1267 10.6468 15.0572 10.6892 15.019C11.3531 14.4196 12.3326 13.5356 13.1459 12.8017L14.6059 11.4843C14.9134 11.2068 14.9382 10.7321 14.6608 10.4246C14.3833 10.1171 13.909 10.0927 13.6015 10.3702L12.141 11.6881C11.3279 12.4218 10.3484 13.3058 9.68432 13.9053C8.93322 14.583 8.99891 15.7737 9.80788 16.3707L10.6388 16.9845L9.30563 18.2815L7.96959 13.883C7.93204 13.7594 7.86546 13.6526 7.77958 13.5678C7.6968 13.4854 7.59349 13.4212 7.4743 13.384L4.03701 12.3116L18.9267 6.56883C18.9331 6.56636 18.9371 6.56598 18.9371 6.56598L18.9391 6.56606C18.9391 6.56606 18.9461 6.56803 18.9523 6.57328C18.9584 6.57853 18.9612 6.58468 18.9612 6.58468L18.9615 6.58618C18.9615 6.58618 18.9618 6.59008 18.9603 6.59703L16.3193 19.044C16.2956 19.1553 16.1662 19.203 16.0767 19.1369L12.2553 16.3138C12.2451 16.3059 12.2348 16.2982 12.2243 16.2909Z" fill="#282828"/>
</svg>
