<svg width="23" height="23" viewBox="0 0 23 23" fill="none" xmlns="http://www.w3.org/2000/svg">
<path d="M13.0572 15.3828C13.2327 15.4634 13.4305 15.4818 13.6179 15.435C13.8054 15.3882 13.9712 15.279 14.0883 15.1252L14.39 14.73C14.5483 14.5189 14.7537 14.3475 14.9897 14.2295C15.2258 14.1114 15.4861 14.05 15.75 14.05H18.3C18.7509 14.05 19.1833 14.2291 19.5021 14.5479C19.8209 14.8667 20 15.2991 20 15.75V18.3C20 18.7509 19.8209 19.1833 19.5021 19.5021C19.1833 19.8209 18.7509 20 18.3 20C14.2422 20 10.3506 18.388 7.48127 15.5187C4.61196 12.6494 3 8.75781 3 4.7C3 4.24913 3.17911 3.81673 3.49792 3.49792C3.81673 3.17911 4.24913 3 4.7 3H7.25C7.70087 3 8.13327 3.17911 8.45208 3.49792C8.77089 3.81673 8.95 4.24913 8.95 4.7V7.25C8.95 7.51392 8.88855 7.77421 8.77053 8.01026C8.6525 8.24632 8.48113 8.45165 8.27 8.61L7.8722 8.90835C7.71615 9.0275 7.60617 9.197 7.56092 9.38805C7.51568 9.5791 7.53797 9.77992 7.624 9.9564C8.78568 12.3159 10.6963 14.2241 13.0572 15.3828Z" stroke="#282828" stroke-width="1.5" stroke-linecap="round" stroke-linejoin="round"/>
</svg>
