<svg width="24" height="24" viewBox="0 0 24 24" fill="none" xmlns="http://www.w3.org/2000/svg">
<path d="M6.34315 4.34326C7.84344 2.8429 9.87827 2 12 2C14.1217 2 16.1566 2.8429 17.6569 4.34326C19.1571 5.84363 20 7.87856 20 10.0004C20 14.9936 14.461 20.1939 12.601 21.8C12.4276 21.93 12.2167 22.0002 12 22C11.7833 22.0002 11.5724 21.93 11.399 21.8C9.539 20.1939 4 14.9936 4 10.0004C4 7.87856 4.84285 5.84363 6.34315 4.34326Z" stroke="black" stroke-width="1.5" stroke-linecap="round" stroke-linejoin="round"/>
<path d="M12 13.0005C13.6569 13.0005 15 11.6573 15 10.0004C15 8.34346 13.6569 7.00025 12 7.00025C10.3431 7.00025 9 8.34346 9 10.0004C9 11.6573 10.3431 13.0005 12 13.0005Z" stroke="black" stroke-width="1.5" stroke-linecap="round" stroke-linejoin="round"/>
</svg>
