<svg width="24" height="24" viewBox="0 0 24 24" fill="none" xmlns="http://www.w3.org/2000/svg">
<path d="M21.8692 16.7131C21.8692 16.6563 21.8274 16.6089 21.8024 16.5615C21.2572 15.5805 20.5844 14.6988 19.8067 13.9463V13.9463C19.3641 13.463 19.0802 13.1409 18.9716 12.9987C18.8756 12.8695 18.8119 12.7135 18.7869 12.5469C18.762 12.3803 18.7767 12.2092 18.8297 12.0512C19.0901 11.4987 19.4038 10.9807 19.7649 10.5067L20.4413 9.5023C21.5853 7.59772 22.1113 6.44172 21.9777 5.93004L21.8859 5.79738C21.7999 5.69167 21.6853 5.62162 21.5602 5.5984C21.3398 5.54735 21.1126 5.54735 20.8922 5.5984H17.8944C17.8265 5.57435 17.7537 5.57435 17.6857 5.5984H17.5437H17.4936H17.4519C17.4068 5.63125 17.3672 5.67296 17.335 5.72158C17.2901 5.78317 17.2561 5.85393 17.2348 5.93004C16.9331 6.89036 16.5645 7.8219 16.1325 8.71583C15.8737 9.20856 15.6399 9.66338 15.4228 9.98555C15.2621 10.2679 15.0805 10.5342 14.88 10.7815C14.7582 10.9282 14.6271 11.0643 14.4875 11.1889C14.4137 11.2711 14.3153 11.3185 14.212 11.3216L14.0366 11.2742C13.9381 11.2002 13.8577 11.0992 13.8028 10.9805C13.737 10.8361 13.6973 10.6782 13.6859 10.5162C13.6859 10.3361 13.6859 10.1751 13.6441 10.0424C13.6024 9.90974 13.6441 9.72023 13.6441 9.47387C13.6441 9.22751 13.6441 9.06642 13.6441 8.97167C13.6441 8.67793 13.6441 8.34629 13.6441 8.02412C13.6441 7.70196 13.6441 7.39874 13.6441 7.19028C13.6441 6.98182 13.6441 6.77336 13.6441 6.53647C13.6602 6.36006 13.6602 6.18225 13.6441 6.00584C13.6206 5.87527 13.5842 5.74813 13.5356 5.62683C13.4889 5.51028 13.4135 5.41156 13.3185 5.34256C13.2103 5.26699 13.0918 5.21254 12.9678 5.18148C12.5065 5.07277 12.036 5.02193 11.5649 5.02987C10.7216 4.94498 9.87167 5.04142 9.05983 5.31413C8.9085 5.40228 8.77266 5.5211 8.65902 5.66473C8.53098 5.83529 8.51428 5.93004 8.60891 5.94899C8.77973 5.95958 8.9467 6.01057 9.09913 6.09869C9.25156 6.1868 9.38607 6.3101 9.49405 6.46067L9.56085 6.6028C9.63083 6.77414 9.67864 6.95605 9.7028 7.1429C9.7553 7.42705 9.7888 7.71529 9.80301 8.00517C9.83662 8.50032 9.83662 8.99767 9.80301 9.49282C9.80301 9.90027 9.7362 10.2224 9.7028 10.4404C9.67742 10.633 9.62969 10.821 9.56085 10.9994L9.45229 11.2363V11.2932C9.36179 11.3339 9.2657 11.3563 9.16838 11.3595C9.0363 11.3449 8.91117 11.2855 8.80932 11.1889C8.65488 11.0531 8.51227 10.9008 8.38346 10.7341C8.19408 10.4789 8.02371 10.2064 7.87409 9.91922C7.69038 9.5781 7.48997 9.16118 7.28957 8.68741L7.12256 8.34629C7.02236 8.12835 6.87205 7.80619 6.6967 7.39874C6.52134 6.99129 6.35433 6.57437 6.21238 6.1764C6.1708 6.02054 6.08209 5.88632 5.96187 5.79738H5.91177C5.86072 5.75625 5.80439 5.72429 5.74476 5.70263C5.66701 5.66432 5.58581 5.63573 5.5026 5.61735L2.60505 5.58892C2.49877 5.57044 2.39018 5.57961 2.28747 5.61572C2.18477 5.65183 2.09064 5.71395 2.01218 5.79738V5.86371C1.99594 5.92554 1.99594 5.9914 2.01218 6.05322C2.0138 6.16481 2.03659 6.27469 2.07899 6.37539C2.48815 7.48402 2.91401 8.56422 3.44008 9.59705C3.96615 10.6299 4.35026 11.4921 4.71768 12.0891C5.08509 12.6861 5.44415 13.3209 5.81992 13.88C6.19568 14.439 6.44619 14.8275 6.56309 14.9602C6.65476 15.083 6.75233 15.2001 6.85535 15.3108L7.11421 15.595C7.34306 15.8439 7.58875 16.072 7.84904 16.2773C8.19618 16.5599 8.5557 16.8224 8.92623 17.0637C9.35758 17.337 9.81773 17.5472 10.2957 17.6891C10.7925 17.8469 11.3083 17.9141 11.8238 17.8881H13.0179C13.2271 17.8823 13.4267 17.7876 13.5773 17.6228L13.6191 17.5659C13.6513 17.4967 13.6765 17.4236 13.6942 17.348C13.7075 17.238 13.7075 17.1264 13.6942 17.0164C13.683 16.6986 13.7054 16.3805 13.761 16.0688C13.7999 15.8588 13.8616 15.6551 13.9448 15.4624C14.0042 15.3359 14.0771 15.2181 14.1619 15.1118C14.2161 15.0458 14.2779 14.9885 14.3456 14.9412H14.4291C14.5327 14.9173 14.64 14.922 14.7417 14.955C14.8434 14.988 14.9367 15.0483 15.0136 15.1307C15.2535 15.325 15.4697 15.5544 15.6566 15.813C15.8486 16.0878 16.0908 16.391 16.3663 16.7605C16.59 17.0385 16.836 17.2923 17.1012 17.5186L17.3099 17.6607C17.4803 17.7724 17.6627 17.8584 17.8527 17.9165C18.0389 17.9969 18.2406 18.0197 18.4372 17.9829H21.101C21.315 17.994 21.528 17.9417 21.7189 17.8312C21.7791 17.8004 21.8331 17.7559 21.8777 17.7005C21.9222 17.6451 21.9562 17.58 21.9777 17.5091C22.0074 17.3754 22.0074 17.2354 21.9777 17.1016C21.9591 16.9666 21.9225 16.8356 21.8692 16.7131Z" fill="#282828"/>
</svg>
