<svg width="24" height="24" viewBox="0 0 24 24" fill="none" xmlns="http://www.w3.org/2000/svg">
<path fill-rule="evenodd" clip-rule="evenodd" d="M11.5717 8.67492C12.0691 9.38316 12.0088 10.3525 11.4128 10.9884C11.6332 11.2765 11.885 11.5624 12.1602 11.8377L12.1622 11.8397C12.4374 12.1148 12.7232 12.3665 13.0112 12.5869C13.6515 11.9833 14.6306 11.9258 15.3403 12.4325L15.3411 12.4331C15.7529 12.728 16.1259 12.9922 16.4732 13.2374C17.4104 13.9001 17.509 15.2423 16.6975 16.0413C16.5811 16.1559 16.4657 16.2714 16.35 16.3865C15.3306 17.4011 13.9939 17.41 12.7836 16.9796C11.4755 16.5144 10.3293 15.6164 9.35748 14.6441C8.3316 13.6178 7.44558 12.4123 7.02016 11.2158C6.58987 10.0057 6.5988 8.66926 7.61336 7.64988L7.61876 7.64451L7.97363 7.28964C8.77887 6.4844 10.1203 6.59345 10.7757 7.53574C11.0181 7.88496 11.2795 8.25997 11.5711 8.6741L11.5717 8.67492ZM9.03429 8.3503C9.18489 8.1997 9.4271 8.22444 9.54389 8.3917C9.78733 8.74234 10.0503 9.11968 10.3444 9.53736C10.4404 9.67427 10.4213 9.85938 10.3107 9.97061L9.91846 10.3657C9.70085 10.5757 9.63058 10.8991 9.74232 11.1808C9.99574 11.8227 10.622 12.4207 11.0996 12.8983L11.1016 12.9003C11.5961 13.3948 12.1365 13.8403 12.6932 14.1934C13.0179 14.3993 13.4404 14.3247 13.6768 14.0333L14.0348 13.6834C14.1469 13.5737 14.3322 13.5561 14.4683 13.653C14.8837 13.9505 15.259 14.2163 15.6077 14.4625C15.774 14.5806 15.7969 14.823 15.6451 14.9724C15.5136 15.1019 15.373 15.226 15.2499 15.3636C14.7913 15.7885 14.1552 15.8754 13.2862 15.5663C12.3768 15.2429 11.3554 14.5202 10.4164 13.5808C9.60327 12.7672 8.82358 11.8104 8.43348 10.7133C8.1158 9.81988 8.21659 9.17282 8.67317 8.71141L8.67529 8.7093L9.03429 8.3503Z" fill="#282828"/>
<path fill-rule="evenodd" clip-rule="evenodd" d="M12.0369 2.45605C6.81614 2.45605 2.56922 6.70028 2.56791 11.9195C2.56595 13.474 2.94747 15.0037 3.6769 16.3734L2.52056 20.5949C2.44976 20.8534 2.52225 21.13 2.7107 21.3205C2.89915 21.511 3.17494 21.5865 3.43415 21.5185L7.77537 20.3802C9.09489 21.0446 10.5524 21.3921 12.0329 21.3921H12.0369C17.2561 21.3921 21.5027 17.1464 21.5049 11.9274C21.506 9.40032 20.521 7.02062 18.7346 5.23205C16.9479 3.44432 14.5677 2.45714 12.0369 2.45605ZM4.06791 11.9202C4.06883 7.52972 7.64365 3.95623 12.0366 3.95605C14.1696 3.95705 16.168 4.78597 17.6733 6.29206C19.1789 7.79949 20.0058 9.79779 20.0049 11.9267C20.0031 16.3177 16.4278 19.8921 12.0369 19.8921H12.0329C10.7024 19.8921 9.39358 19.5585 8.2244 18.9223C8.05666 18.831 7.86041 18.8071 7.67568 18.8556L4.31053 19.738L5.20427 16.4752C5.25716 16.2821 5.23065 16.0759 5.13064 15.9024C4.43253 14.6917 4.06609 13.3174 4.06791 11.9202Z" fill="#282828"/>
</svg>
